<?xml version="1.0" encoding="UTF-8" standalone="no"?><svg xmlns="http://www.w3.org/2000/svg" xmlns:xlink="http://www.w3.org/1999/xlink" clip-rule="evenodd" stroke-miterlimit="10" viewBox="0 0 1024 768"><desc>SVG generated by Keynote</desc><defs></defs><g transform="matrix(1.00, 0.00, -0.00, -1.00, 0.0, 768.0)"><g><clipPath id="clip0x6080008a3120"><path d="M 0.0 768.0 L 1024.0 768.0 L 1024.0 0.0 L 0.0 0.0 Z M 0.0 768.0 "></path></clipPath><g clip-path="url(#clip0x6080008a3120)"><image xlink:href="../../BE03AB4A-F5E0-4685-80C7-20DCBC62631F/assets/574DCE55A4CF432400CBDDDE1DFDFC9B.jpeg" width="2048.00" height="1536.00" transform="matrix(0.50, 0.00, -0.00, -0.50, 0.0, 768.0)"></image></g></g><text xml:space="preserve" font-family="GillSans-Light,Gill Sans" font-size="72.0" fill="#525252" transform="matrix(1.00, 0.00, -0.00, -1.00, 153.6, 628.2)">P</text><text xml:space="preserve" font-family="GillSans-Light,Gill Sans" font-size="72.0" fill="#525252" transform="matrix(1.00, 0.00, -0.00, -1.00, 183.8, 628.2)">A</text><text xml:space="preserve" font-family="GillSans-Light,Gill Sans" font-size="72.0" fill="#525252" transform="matrix(1.00, 0.00, -0.00, -1.00, 231.9, 628.2)">L</text><text xml:space="preserve" font-family="GillSans-Light,Gill Sans" font-size="72.0" fill="#525252" transform="matrix(1.00, 0.00, -0.00, -1.00, 265.7, 628.2)">E</text><text xml:space="preserve" font-family="GillSans-Light,Gill Sans" font-size="72.0" fill="#525252" transform="matrix(1.00, 0.00, -0.00, -1.00, 301.0, 628.2)">T</text><text xml:space="preserve" font-family="GillSans-Light,Gill Sans" font-size="72.0" fill="#525252" transform="matrix(1.00, 0.00, -0.00, -1.00, 342.3, 628.2)">T</text><text xml:space="preserve" font-family="GillSans-Light,Gill Sans" font-size="72.0" fill="#525252" transform="matrix(1.00, 0.00, -0.00, -1.00, 383.5, 628.2)">E</text><text xml:space="preserve" font-family="GillSans-Light,Gill Sans" font-size="72.0" fill="#525252" transform="matrix(1.00, 0.00, -0.00, -1.00, 418.9, 628.2)"> </text><text xml:space="preserve" font-family="GillSans-Light,Gill Sans" font-size="72.0" fill="#525252" transform="matrix(1.00, 0.00, -0.00, -1.00, 438.8, 628.2)">E</text><text xml:space="preserve" font-family="GillSans-Light,Gill Sans" font-size="72.0" fill="#525252" transform="matrix(1.00, 0.00, -0.00, -1.00, 474.2, 628.2)">X</text><text xml:space="preserve" font-family="GillSans-Light,Gill Sans" font-size="72.0" fill="#525252" transform="matrix(1.00, 0.00, -0.00, -1.00, 523.7, 628.2)">T</text><text xml:space="preserve" font-family="GillSans-Light,Gill Sans" font-size="72.0" fill="#525252" transform="matrix(1.00, 0.00, -0.00, -1.00, 565.0, 628.2)">R</text><text xml:space="preserve" font-family="GillSans-Light,Gill Sans" font-size="72.0" fill="#525252" transform="matrix(1.00, 0.00, -0.00, -1.00, 606.3, 628.2)">A</text><text xml:space="preserve" font-family="GillSans-Light,Gill Sans" font-size="72.0" fill="#525252" transform="matrix(1.00, 0.00, -0.00, -1.00, 650.7, 628.2)">C</text><text xml:space="preserve" font-family="GillSans-Light,Gill Sans" font-size="72.0" fill="#525252" transform="matrix(1.00, 0.00, -0.00, -1.00, 699.4, 628.2)">T</text><text xml:space="preserve" font-family="GillSans-Light,Gill Sans" font-size="72.0" fill="#525252" transform="matrix(1.00, 0.00, -0.00, -1.00, 740.7, 628.2)">I</text><text xml:space="preserve" font-family="GillSans-Light,Gill Sans" font-size="72.0" fill="#525252" transform="matrix(1.00, 0.00, -0.00, -1.00, 755.7, 628.2)">O</text><text xml:space="preserve" font-family="GillSans-Light,Gill Sans" font-size="72.0" fill="#525252" transform="matrix(1.00, 0.00, -0.00, -1.00, 815.0, 628.2)">N</text><text xml:space="preserve" font-family="GillSans-Light,Gill Sans" font-size="29.0" fill="#525252" transform="matrix(1.00, 0.00, -0.00, -1.00, 551.0, 157.4)">C</text><text xml:space="preserve" font-family="GillSans-Light,Gill Sans" font-size="29.0" fill="#525252" transform="matrix(1.00, 0.00, -0.00, -1.00, 570.6, 157.4)">l</text><text xml:space="preserve" font-family="GillSans-Light,Gill Sans" font-size="29.0" fill="#525252" transform="matrix(1.00, 0.00, -0.00, -1.00, 576.1, 157.4)">u</text><text xml:space="preserve" font-family="GillSans-Light,Gill Sans" font-size="29.0" fill="#525252" transform="matrix(1.00, 0.00, -0.00, -1.00, 590.3, 157.4)">s</text><text xml:space="preserve" font-family="GillSans-Light,Gill Sans" font-size="29.0" fill="#525252" transform="matrix(1.00, 0.00, -0.00, -1.00, 600.5, 157.4)">t</text><text xml:space="preserve" font-family="GillSans-Light,Gill Sans" font-size="29.0" fill="#525252" transform="matrix(1.00, 0.00, -0.00, -1.00, 609.3, 157.4)">e</text><text xml:space="preserve" font-family="GillSans-Light,Gill Sans" font-size="29.0" fill="#525252" transform="matrix(1.00, 0.00, -0.00, -1.00, 623.2, 157.4)">r</text><text xml:space="preserve" font-family="GillSans-Light,Gill Sans" font-size="29.0" fill="#525252" transform="matrix(1.00, 0.00, -0.00, -1.00, 633.6, 157.4)">i</text><text xml:space="preserve" font-family="GillSans-Light,Gill Sans" font-size="29.0" fill="#525252" transform="matrix(1.00, 0.00, -0.00, -1.00, 639.0, 157.4)">n</text><text xml:space="preserve" font-family="GillSans-Light,Gill Sans" font-size="29.0" fill="#525252" transform="matrix(1.00, 0.00, -0.00, -1.00, 653.2, 157.4)">g</text><text xml:space="preserve" font-family="GillSans-Light,Gill Sans" font-size="29.0" fill="#525252" transform="matrix(1.00, 0.00, -0.00, -1.00, 665.6, 157.4)"> </text><text xml:space="preserve" font-family="GillSans-Light,Gill Sans" font-size="29.0" fill="#525252" transform="matrix(1.00, 0.00, -0.00, -1.00, 673.7, 157.4)">o</text><text xml:space="preserve" font-family="GillSans-Light,Gill Sans" font-size="29.0" fill="#525252" transform="matrix(1.00, 0.00, -0.00, -1.00, 689.4, 157.4)">f</text><text xml:space="preserve" font-family="GillSans-Light,Gill Sans" font-size="29.0" fill="#525252" transform="matrix(1.00, 0.00, -0.00, -1.00, 696.3, 157.4)"> </text><text xml:space="preserve" font-family="GillSans-Light,Gill Sans" font-size="29.0" fill="#525252" transform="matrix(1.00, 0.00, -0.00, -1.00, 704.4, 157.4)">P</text><text xml:space="preserve" font-family="GillSans-Light,Gill Sans" font-size="29.0" fill="#525252" transform="matrix(1.00, 0.00, -0.00, -1.00, 719.2, 157.4)">i</text><text xml:space="preserve" font-family="GillSans-Light,Gill Sans" font-size="29.0" fill="#525252" transform="matrix(1.00, 0.00, -0.00, -1.00, 724.6, 157.4)">x</text><text xml:space="preserve" font-family="GillSans-Light,Gill Sans" font-size="29.0" fill="#525252" transform="matrix(1.00, 0.00, -0.00, -1.00, 737.9, 157.4)">e</text><text xml:space="preserve" font-family="GillSans-Light,Gill Sans" font-size="29.0" fill="#525252" transform="matrix(1.00, 0.00, -0.00, -1.00, 751.8, 157.4)">l</text><text xml:space="preserve" font-family="GillSans-Light,Gill Sans" font-size="29.0" fill="#525252" transform="matrix(1.00, 0.00, -0.00, -1.00, 757.3, 157.4)">s</text><text xml:space="preserve" font-family="GillSans-Light,Gill Sans" font-size="29.0" fill="#525252" transform="matrix(1.00, 0.00, -0.00, -1.00, 767.5, 157.4)"> </text><text xml:space="preserve" font-family="GillSans-Light,Gill Sans" font-size="29.0" fill="#525252" transform="matrix(1.00, 0.00, -0.00, -1.00, 775.6, 157.4)">b</text><text xml:space="preserve" font-family="GillSans-Light,Gill Sans" font-size="29.0" fill="#525252" transform="matrix(1.00, 0.00, -0.00, -1.00, 789.9, 157.4)">y</text><text xml:space="preserve" font-family="GillSans-Light,Gill Sans" font-size="29.0" fill="#525252" transform="matrix(1.00, 0.00, -0.00, -1.00, 802.0, 157.4)"> </text><text xml:space="preserve" font-family="GillSans-Light,Gill Sans" font-size="29.0" fill="#525252" transform="matrix(1.00, 0.00, -0.00, -1.00, 810.1, 157.4)">R</text><text xml:space="preserve" font-family="GillSans-Light,Gill Sans" font-size="29.0" fill="#525252" transform="matrix(1.00, 0.00, -0.00, -1.00, 826.7, 157.4)">G</text><text xml:space="preserve" font-family="GillSans-Light,Gill Sans" font-size="29.0" fill="#525252" transform="matrix(1.00, 0.00, -0.00, -1.00, 847.6, 157.4)">B</text><text xml:space="preserve" font-family="GillSans-Light,Gill Sans" font-size="29.0" fill="#525252" transform="matrix(1.00, 0.00, -0.00, -1.00, 863.0, 157.4)"> </text><text xml:space="preserve" font-family="GillSans-Light,Gill Sans" font-size="29.0" fill="#525252" transform="matrix(1.00, 0.00, -0.00, -1.00, 866.9, 157.4)">V</text><text xml:space="preserve" font-family="GillSans-Light,Gill Sans" font-size="29.0" fill="#525252" transform="matrix(1.00, 0.00, -0.00, -1.00, 882.7, 157.4)">a</text><text xml:space="preserve" font-family="GillSans-Light,Gill Sans" font-size="29.0" fill="#525252" transform="matrix(1.00, 0.00, -0.00, -1.00, 895.1, 157.4)">l</text><text xml:space="preserve" font-family="GillSans-Light,Gill Sans" font-size="29.0" fill="#525252" transform="matrix(1.00, 0.00, -0.00, -1.00, 900.6, 157.4)">u</text><text xml:space="preserve" font-family="GillSans-Light,Gill Sans" font-size="29.0" fill="#525252" transform="matrix(1.00, 0.00, -0.00, -1.00, 914.8, 157.4)">e</text><text xml:space="preserve" font-family="GillSans-Light,Gill Sans" font-size="29.0" fill="#525252" transform="matrix(1.00, 0.00, -0.00, -1.00, 928.7, 157.4)">s</text><text xml:space="preserve" font-family="GillSans-Light,Gill Sans" font-size="29.0" fill="#525252" transform="matrix(1.00, 0.00, -0.00, -1.00, 615.4, 124.4)">(</text><text xml:space="preserve" font-family="GillSans-Light,Gill Sans" font-size="29.0" fill="#525252" transform="matrix(1.00, 0.00, -0.00, -1.00, 625.0, 124.4)">k</text><text xml:space="preserve" font-family="GillSans-Light,Gill Sans" font-size="29.0" fill="#525252" transform="matrix(1.00, 0.00, -0.00, -1.00, 637.4, 124.4)">-</text><text xml:space="preserve" font-family="GillSans-Light,Gill Sans" font-size="29.0" fill="#525252" transform="matrix(1.00, 0.00, -0.00, -1.00, 646.5, 124.4)">m</text><text xml:space="preserve" font-family="GillSans-Light,Gill Sans" font-size="29.0" fill="#525252" transform="matrix(1.00, 0.00, -0.00, -1.00, 668.8, 124.4)">e</text><text xml:space="preserve" font-family="GillSans-Light,Gill Sans" font-size="29.0" fill="#525252" transform="matrix(1.00, 0.00, -0.00, -1.00, 682.7, 124.4)">a</text><text xml:space="preserve" font-family="GillSans-Light,Gill Sans" font-size="29.0" fill="#525252" transform="matrix(1.00, 0.00, -0.00, -1.00, 695.1, 124.4)">n</text><text xml:space="preserve" font-family="GillSans-Light,Gill Sans" font-size="29.0" fill="#525252" transform="matrix(1.00, 0.00, -0.00, -1.00, 709.3, 124.4)">s</text><text xml:space="preserve" font-family="GillSans-Light,Gill Sans" font-size="29.0" fill="#525252" transform="matrix(1.00, 0.00, -0.00, -1.00, 719.6, 124.4)">,</text><text xml:space="preserve" font-family="GillSans-Light,Gill Sans" font-size="29.0" fill="#525252" transform="matrix(1.00, 0.00, -0.00, -1.00, 722.4, 124.4)"> </text><text xml:space="preserve" font-family="GillSans-Light,Gill Sans" font-size="29.0" fill="#525252" transform="matrix(1.00, 0.00, -0.00, -1.00, 730.4, 124.4)">k</text><text xml:space="preserve" font-family="GillSans-Light,Gill Sans" font-size="29.0" fill="#525252" transform="matrix(1.00, 0.00, -0.00, -1.00, 742.8, 124.4)">=</text><text xml:space="preserve" font-family="GillSans-Light,Gill Sans" font-size="29.0" fill="#525252" transform="matrix(1.00, 0.00, -0.00, -1.00, 761.9, 124.4)">1</text><text xml:space="preserve" font-family="GillSans-Light,Gill Sans" font-size="29.0" fill="#525252" transform="matrix(1.00, 0.00, -0.00, -1.00, 776.4, 124.4)">,</text><text xml:space="preserve" font-family="GillSans-Light,Gill Sans" font-size="29.0" fill="#525252" transform="matrix(1.00, 0.00, -0.00, -1.00, 781.6, 124.4)">2</text><text xml:space="preserve" font-family="GillSans-Light,Gill Sans" font-size="29.0" fill="#525252" transform="matrix(1.00, 0.00, -0.00, -1.00, 796.1, 124.4)">,</text><text xml:space="preserve" font-family="GillSans-Light,Gill Sans" font-size="29.0" fill="#525252" transform="matrix(1.00, 0.00, -0.00, -1.00, 801.2, 124.4)">3</text><text xml:space="preserve" font-family="GillSans-Light,Gill Sans" font-size="29.0" fill="#525252" transform="matrix(1.00, 0.00, -0.00, -1.00, 815.7, 124.4)">,</text><text xml:space="preserve" font-family="GillSans-Light,Gill Sans" font-size="29.0" fill="#525252" transform="matrix(1.00, 0.00, -0.00, -1.00, 820.8, 124.4)">…</text><text xml:space="preserve" font-family="GillSans-Light,Gill Sans" font-size="29.0" fill="#525252" transform="matrix(1.00, 0.00, -0.00, -1.00, 849.8, 124.4)">,</text><text xml:space="preserve" font-family="GillSans-Light,Gill Sans" font-size="29.0" fill="#525252" transform="matrix(1.00, 0.00, -0.00, -1.00, 854.9, 124.4)">7</text><text xml:space="preserve" font-family="GillSans-Light,Gill Sans" font-size="29.0" fill="#525252" transform="matrix(1.00, 0.00, -0.00, -1.00, 869.4, 124.4)">;</text><text xml:space="preserve" font-family="GillSans-Light,Gill Sans" font-size="29.0" fill="#525252" transform="matrix(1.00, 0.00, -0.00, -1.00, 675.9, 91.4)">k</text><text xml:space="preserve" font-family="GillSans-Light,Gill Sans" font-size="29.0" fill="#525252" transform="matrix(1.00, 0.00, -0.00, -1.00, 688.2, 91.4)">=</text><text xml:space="preserve" font-family="GillSans-Light,Gill Sans" font-size="29.0" fill="#525252" transform="matrix(1.00, 0.00, -0.00, -1.00, 707.4, 91.4)">3</text><text xml:space="preserve" font-family="GillSans-Light,Gill Sans" font-size="29.0" fill="#525252" transform="matrix(1.00, 0.00, -0.00, -1.00, 721.9, 91.4)"> </text><text xml:space="preserve" font-family="GillSans-Light,Gill Sans" font-size="29.0" fill="#525252" transform="matrix(1.00, 0.00, -0.00, -1.00, 729.9, 91.4)">s</text><text xml:space="preserve" font-family="GillSans-Light,Gill Sans" font-size="29.0" fill="#525252" transform="matrix(1.00, 0.00, -0.00, -1.00, 740.2, 91.4)">h</text><text xml:space="preserve" font-family="GillSans-Light,Gill Sans" font-size="29.0" fill="#525252" transform="matrix(1.00, 0.00, -0.00, -1.00, 754.4, 91.4)">o</text><text xml:space="preserve" font-family="GillSans-Light,Gill Sans" font-size="29.0" fill="#525252" transform="matrix(1.00, 0.00, -0.00, -1.00, 769.7, 91.4)">w</text><text xml:space="preserve" font-family="GillSans-Light,Gill Sans" font-size="29.0" fill="#525252" transform="matrix(1.00, 0.00, -0.00, -1.00, 790.2, 91.4)">n</text><text xml:space="preserve" font-family="GillSans-Light,Gill Sans" font-size="29.0" fill="#525252" transform="matrix(1.00, 0.00, -0.00, -1.00, 804.4, 91.4)">)</text><path d="M -0.3 -0.1 L 96.2 -0.1 L 97.7 -0.1 " fill="none" stroke="#3D4453" stroke-width="2.00" transform="matrix(1.00, 0.00, 0.00, -1.00, 392.3, 344.9)"></path><path d="M 489.0 340.2 L 498.6 345.0 L 489.0 349.8 Z M 489.0 340.2 " fill="#3D4453"></path><image xlink:href="../../BCF4AFDD-6F2D-4EC4-B409-B2917B30AD2B/assets/E1BA45CA2A3DF2689FC8ED67B048DD2F.png" width="572.00" height="404.00" transform="matrix(1.00, 0.00, -0.00, -1.00, 446.0, 598.0)"></image><image xlink:href="../../BE03AB4A-F5E0-4685-80C7-20DCBC62631F/assets/681E786721C8AF9BC242EF5530D4821B.png" width="373.00" height="256.00" transform="matrix(0.87, 0.00, -0.00, -0.87, 48.0, 456.0)"></image><image xlink:href="../../BCF4AFDD-6F2D-4EC4-B409-B2917B30AD2B/assets/5123CFCCED7B61A87C04C22E22676B4F.png" width="218.00" height="179.00" transform="matrix(0.81, 0.00, -0.00, -0.80, 14.0, 161.0)"></image></g></svg>