<?xml version="1.0" encoding="UTF-8" standalone="no"?><svg xmlns="http://www.w3.org/2000/svg" xmlns:xlink="http://www.w3.org/1999/xlink" clip-rule="evenodd" stroke-miterlimit="10" viewBox="0 0 391 96"><desc>SVG generated by Keynote</desc><defs></defs><g transform="matrix(1.00, 0.00, -0.00, -1.00, 0.0, 96.0)"><text xml:space="preserve" font-family="GillSans-Light,Gill Sans" font-size="29.0" fill="#525252" transform="matrix(1.00, 0.00, -0.00, -1.00, 1.0, 74.4)">C</text><text xml:space="preserve" font-family="GillSans-Light,Gill Sans" font-size="29.0" fill="#525252" transform="matrix(1.00, 0.00, -0.00, -1.00, 20.6, 74.4)">l</text><text xml:space="preserve" font-family="GillSans-Light,Gill Sans" font-size="29.0" fill="#525252" transform="matrix(1.00, 0.00, -0.00, -1.00, 26.1, 74.4)">u</text><text xml:space="preserve" font-family="GillSans-Light,Gill Sans" font-size="29.0" fill="#525252" transform="matrix(1.00, 0.00, -0.00, -1.00, 40.3, 74.4)">s</text><text xml:space="preserve" font-family="GillSans-Light,Gill Sans" font-size="29.0" fill="#525252" transform="matrix(1.00, 0.00, -0.00, -1.00, 50.5, 74.4)">t</text><text xml:space="preserve" font-family="GillSans-Light,Gill Sans" font-size="29.0" fill="#525252" transform="matrix(1.00, 0.00, -0.00, -1.00, 59.3, 74.4)">e</text><text xml:space="preserve" font-family="GillSans-Light,Gill Sans" font-size="29.0" fill="#525252" transform="matrix(1.00, 0.00, -0.00, -1.00, 73.2, 74.4)">r</text><text xml:space="preserve" font-family="GillSans-Light,Gill Sans" font-size="29.0" fill="#525252" transform="matrix(1.00, 0.00, -0.00, -1.00, 83.6, 74.4)">i</text><text xml:space="preserve" font-family="GillSans-Light,Gill Sans" font-size="29.0" fill="#525252" transform="matrix(1.00, 0.00, -0.00, -1.00, 89.0, 74.4)">n</text><text xml:space="preserve" font-family="GillSans-Light,Gill Sans" font-size="29.0" fill="#525252" transform="matrix(1.00, 0.00, -0.00, -1.00, 103.2, 74.4)">g</text><text xml:space="preserve" font-family="GillSans-Light,Gill Sans" font-size="29.0" fill="#525252" transform="matrix(1.00, 0.00, -0.00, -1.00, 115.6, 74.4)"> </text><text xml:space="preserve" font-family="GillSans-Light,Gill Sans" font-size="29.0" fill="#525252" transform="matrix(1.00, 0.00, -0.00, -1.00, 123.7, 74.4)">o</text><text xml:space="preserve" font-family="GillSans-Light,Gill Sans" font-size="29.0" fill="#525252" transform="matrix(1.00, 0.00, -0.00, -1.00, 139.4, 74.4)">f</text><text xml:space="preserve" font-family="GillSans-Light,Gill Sans" font-size="29.0" fill="#525252" transform="matrix(1.00, 0.00, -0.00, -1.00, 146.3, 74.4)"> </text><text xml:space="preserve" font-family="GillSans-Light,Gill Sans" font-size="29.0" fill="#525252" transform="matrix(1.00, 0.00, -0.00, -1.00, 154.4, 74.4)">P</text><text xml:space="preserve" font-family="GillSans-Light,Gill Sans" font-size="29.0" fill="#525252" transform="matrix(1.00, 0.00, -0.00, -1.00, 169.2, 74.4)">i</text><text xml:space="preserve" font-family="GillSans-Light,Gill Sans" font-size="29.0" fill="#525252" transform="matrix(1.00, 0.00, -0.00, -1.00, 174.6, 74.4)">x</text><text xml:space="preserve" font-family="GillSans-Light,Gill Sans" font-size="29.0" fill="#525252" transform="matrix(1.00, 0.00, -0.00, -1.00, 187.9, 74.4)">e</text><text xml:space="preserve" font-family="GillSans-Light,Gill Sans" font-size="29.0" fill="#525252" transform="matrix(1.00, 0.00, -0.00, -1.00, 201.8, 74.4)">l</text><text xml:space="preserve" font-family="GillSans-Light,Gill Sans" font-size="29.0" fill="#525252" transform="matrix(1.00, 0.00, -0.00, -1.00, 207.3, 74.4)">s</text><text xml:space="preserve" font-family="GillSans-Light,Gill Sans" font-size="29.0" fill="#525252" transform="matrix(1.00, 0.00, -0.00, -1.00, 217.5, 74.4)"> </text><text xml:space="preserve" font-family="GillSans-Light,Gill Sans" font-size="29.0" fill="#525252" transform="matrix(1.00, 0.00, -0.00, -1.00, 225.6, 74.4)">b</text><text xml:space="preserve" font-family="GillSans-Light,Gill Sans" font-size="29.0" fill="#525252" transform="matrix(1.00, 0.00, -0.00, -1.00, 239.9, 74.4)">y</text><text xml:space="preserve" font-family="GillSans-Light,Gill Sans" font-size="29.0" fill="#525252" transform="matrix(1.00, 0.00, -0.00, -1.00, 252.0, 74.4)"> </text><text xml:space="preserve" font-family="GillSans-Light,Gill Sans" font-size="29.0" fill="#525252" transform="matrix(1.00, 0.00, -0.00, -1.00, 260.1, 74.4)">R</text><text xml:space="preserve" font-family="GillSans-Light,Gill Sans" font-size="29.0" fill="#525252" transform="matrix(1.00, 0.00, -0.00, -1.00, 276.7, 74.4)">G</text><text xml:space="preserve" font-family="GillSans-Light,Gill Sans" font-size="29.0" fill="#525252" transform="matrix(1.00, 0.00, -0.00, -1.00, 297.6, 74.4)">B</text><text xml:space="preserve" font-family="GillSans-Light,Gill Sans" font-size="29.0" fill="#525252" transform="matrix(1.00, 0.00, -0.00, -1.00, 313.0, 74.4)"> </text><text xml:space="preserve" font-family="GillSans-Light,Gill Sans" font-size="29.0" fill="#525252" transform="matrix(1.00, 0.00, -0.00, -1.00, 316.9, 74.4)">V</text><text xml:space="preserve" font-family="GillSans-Light,Gill Sans" font-size="29.0" fill="#525252" transform="matrix(1.00, 0.00, -0.00, -1.00, 332.7, 74.4)">a</text><text xml:space="preserve" font-family="GillSans-Light,Gill Sans" font-size="29.0" fill="#525252" transform="matrix(1.00, 0.00, -0.00, -1.00, 345.1, 74.4)">l</text><text xml:space="preserve" font-family="GillSans-Light,Gill Sans" font-size="29.0" fill="#525252" transform="matrix(1.00, 0.00, -0.00, -1.00, 350.6, 74.4)">u</text><text xml:space="preserve" font-family="GillSans-Light,Gill Sans" font-size="29.0" fill="#525252" transform="matrix(1.00, 0.00, -0.00, -1.00, 364.8, 74.4)">e</text><text xml:space="preserve" font-family="GillSans-Light,Gill Sans" font-size="29.0" fill="#525252" transform="matrix(1.00, 0.00, -0.00, -1.00, 378.7, 74.4)">s</text><text xml:space="preserve" font-family="GillSans-Light,Gill Sans" font-size="29.0" fill="#525252" transform="matrix(1.00, 0.00, -0.00, -1.00, 65.4, 41.4)">(</text><text xml:space="preserve" font-family="GillSans-Light,Gill Sans" font-size="29.0" fill="#525252" transform="matrix(1.00, 0.00, -0.00, -1.00, 75.0, 41.4)">k</text><text xml:space="preserve" font-family="GillSans-Light,Gill Sans" font-size="29.0" fill="#525252" transform="matrix(1.00, 0.00, -0.00, -1.00, 87.4, 41.4)">-</text><text xml:space="preserve" font-family="GillSans-Light,Gill Sans" font-size="29.0" fill="#525252" transform="matrix(1.00, 0.00, -0.00, -1.00, 96.5, 41.4)">m</text><text xml:space="preserve" font-family="GillSans-Light,Gill Sans" font-size="29.0" fill="#525252" transform="matrix(1.00, 0.00, -0.00, -1.00, 118.8, 41.4)">e</text><text xml:space="preserve" font-family="GillSans-Light,Gill Sans" font-size="29.0" fill="#525252" transform="matrix(1.00, 0.00, -0.00, -1.00, 132.7, 41.4)">a</text><text xml:space="preserve" font-family="GillSans-Light,Gill Sans" font-size="29.0" fill="#525252" transform="matrix(1.00, 0.00, -0.00, -1.00, 145.1, 41.4)">n</text><text xml:space="preserve" font-family="GillSans-Light,Gill Sans" font-size="29.0" fill="#525252" transform="matrix(1.00, 0.00, -0.00, -1.00, 159.3, 41.4)">s</text><text xml:space="preserve" font-family="GillSans-Light,Gill Sans" font-size="29.0" fill="#525252" transform="matrix(1.00, 0.00, -0.00, -1.00, 169.6, 41.4)">,</text><text xml:space="preserve" font-family="GillSans-Light,Gill Sans" font-size="29.0" fill="#525252" transform="matrix(1.00, 0.00, -0.00, -1.00, 172.4, 41.4)"> </text><text xml:space="preserve" font-family="GillSans-Light,Gill Sans" font-size="29.0" fill="#525252" transform="matrix(1.00, 0.00, -0.00, -1.00, 180.4, 41.4)">k</text><text xml:space="preserve" font-family="GillSans-Light,Gill Sans" font-size="29.0" fill="#525252" transform="matrix(1.00, 0.00, -0.00, -1.00, 192.8, 41.4)">=</text><text xml:space="preserve" font-family="GillSans-Light,Gill Sans" font-size="29.0" fill="#525252" transform="matrix(1.00, 0.00, -0.00, -1.00, 211.9, 41.4)">1</text><text xml:space="preserve" font-family="GillSans-Light,Gill Sans" font-size="29.0" fill="#525252" transform="matrix(1.00, 0.00, -0.00, -1.00, 226.4, 41.4)">,</text><text xml:space="preserve" font-family="GillSans-Light,Gill Sans" font-size="29.0" fill="#525252" transform="matrix(1.00, 0.00, -0.00, -1.00, 231.6, 41.4)">2</text><text xml:space="preserve" font-family="GillSans-Light,Gill Sans" font-size="29.0" fill="#525252" transform="matrix(1.00, 0.00, -0.00, -1.00, 246.1, 41.4)">,</text><text xml:space="preserve" font-family="GillSans-Light,Gill Sans" font-size="29.0" fill="#525252" transform="matrix(1.00, 0.00, -0.00, -1.00, 251.2, 41.4)">3</text><text xml:space="preserve" font-family="GillSans-Light,Gill Sans" font-size="29.0" fill="#525252" transform="matrix(1.00, 0.00, -0.00, -1.00, 265.7, 41.4)">,</text><text xml:space="preserve" font-family="GillSans-Light,Gill Sans" font-size="29.0" fill="#525252" transform="matrix(1.00, 0.00, -0.00, -1.00, 270.8, 41.4)">…</text><text xml:space="preserve" font-family="GillSans-Light,Gill Sans" font-size="29.0" fill="#525252" transform="matrix(1.00, 0.00, -0.00, -1.00, 299.8, 41.4)">,</text><text xml:space="preserve" font-family="GillSans-Light,Gill Sans" font-size="29.0" fill="#525252" transform="matrix(1.00, 0.00, -0.00, -1.00, 304.9, 41.4)">7</text><text xml:space="preserve" font-family="GillSans-Light,Gill Sans" font-size="29.0" fill="#525252" transform="matrix(1.00, 0.00, -0.00, -1.00, 319.4, 41.4)">;</text><text xml:space="preserve" font-family="GillSans-Light,Gill Sans" font-size="29.0" fill="#525252" transform="matrix(1.00, 0.00, -0.00, -1.00, 125.9, 8.4)">k</text><text xml:space="preserve" font-family="GillSans-Light,Gill Sans" font-size="29.0" fill="#525252" transform="matrix(1.00, 0.00, -0.00, -1.00, 138.2, 8.4)">=</text><text xml:space="preserve" font-family="GillSans-Light,Gill Sans" font-size="29.0" fill="#525252" transform="matrix(1.00, 0.00, -0.00, -1.00, 157.4, 8.4)">3</text><text xml:space="preserve" font-family="GillSans-Light,Gill Sans" font-size="29.0" fill="#525252" transform="matrix(1.00, 0.00, -0.00, -1.00, 171.9, 8.4)"> </text><text xml:space="preserve" font-family="GillSans-Light,Gill Sans" font-size="29.0" fill="#525252" transform="matrix(1.00, 0.00, -0.00, -1.00, 179.9, 8.4)">s</text><text xml:space="preserve" font-family="GillSans-Light,Gill Sans" font-size="29.0" fill="#525252" transform="matrix(1.00, 0.00, -0.00, -1.00, 190.2, 8.4)">h</text><text xml:space="preserve" font-family="GillSans-Light,Gill Sans" font-size="29.0" fill="#525252" transform="matrix(1.00, 0.00, -0.00, -1.00, 204.4, 8.4)">o</text><text xml:space="preserve" font-family="GillSans-Light,Gill Sans" font-size="29.0" fill="#525252" transform="matrix(1.00, 0.00, -0.00, -1.00, 219.7, 8.4)">w</text><text xml:space="preserve" font-family="GillSans-Light,Gill Sans" font-size="29.0" fill="#525252" transform="matrix(1.00, 0.00, -0.00, -1.00, 240.2, 8.4)">n</text><text xml:space="preserve" font-family="GillSans-Light,Gill Sans" font-size="29.0" fill="#525252" transform="matrix(1.00, 0.00, -0.00, -1.00, 254.4, 8.4)">)</text></g></svg>