<?xml version="1.0" encoding="UTF-8" standalone="no"?><svg xmlns="http://www.w3.org/2000/svg" xmlns:xlink="http://www.w3.org/1999/xlink" clip-rule="evenodd" stroke-miterlimit="10" viewBox="0 0 324 133"><desc>SVG generated by Keynote</desc><defs></defs><g transform="matrix(1.00, 0.00, -0.00, -1.00, 0.0, 133.0)"><g><clipPath id="clip0x6080008aa020"><path d="M 113.3 0.4 L 323.8 0.4 L 323.8 132.6 L 113.3 132.6 Z M 113.3 0.4 "></path></clipPath><g clip-path="url(#clip0x6080008aa020)"><image xlink:href="16910A922E48333DF49CE4B8113F8854.png" width="559.00" height="322.00" transform="matrix(0.35, 0.00, -0.00, -0.35, 120.0, 129.0)"></image><image xlink:href="4D360A862A0EE8BD9AEC9F73E3516913.png" width="211.00" height="133.00" transform="matrix(1.00, 0.00, -0.00, 1.00, 113.0, 0.0)"></image></g></g><g><clipPath id="clip0x6000008ad440"><path d="M 0.9 60.7 L 100.2 60.7 L 100.2 72.3 L 0.9 72.3 Z M 0.9 60.7 "></path></clipPath><g clip-path="url(#clip0x6000008ad440)"><path d="M 0.1 0.5 L 87.8 0.5 L 89.1 0.5 " fill="none" stroke="#3D4453" stroke-width="2.00" transform="matrix(1.00, 0.00, 0.00, -1.00, 1.9, 66.5)"></path><path d="M 90.0 61.2 L 99.6 66.0 L 90.0 70.8 Z M 90.0 61.2 " fill="#3D4453"></path></g></g></g></svg>