<?xml version="1.0" encoding="UTF-8" standalone="no"?><svg xmlns="http://www.w3.org/2000/svg" xmlns:xlink="http://www.w3.org/1999/xlink" clip-rule="evenodd" stroke-miterlimit="10" viewBox="0 0 229 303"><desc>SVG generated by Keynote</desc><defs></defs><g transform="matrix(1.00, 0.00, -0.00, -1.00, 0.0, 303.0)"><g><clipPath id="clip0x6080006bf7a0"><path d="M 7.0 239.0 L 221.0 239.0 L 221.0 155.0 L 7.0 155.0 Z M 7.1 238.7 "></path></clipPath><g clip-path="url(#clip0x6080006bf7a0)"><g><clipPath id="clip0x6080006b49a0"><path d="M 0.1 139.8 L 228.4 139.8 L 228.4 242.7 L 0.1 242.7 Z M 0.1 139.8 "></path></clipPath><g clip-path="url(#clip0x6080006b49a0)"><image xlink:href="33D003CB0AA4D39F6DA77544B9E0DBC2.png" width="335.00" height="131.00" transform="matrix(0.64, 0.00, -0.00, -0.64, 7.0, 239.0)"></image></g></g></g></g><g><clipPath id="clip0x600000aacba0"><path d="M 0.1 139.8 L 228.4 139.8 L 228.4 242.7 L 0.1 242.7 Z M 0.1 139.8 "></path></clipPath><g clip-path="url(#clip0x600000aacba0)"><image xlink:href="386C9BCEEF70308580D515B6B8FAC5FD.png" width="228.00" height="103.00" transform="matrix(1.00, 0.00, -0.00, 1.00, 0.1, 139.8)"></image></g></g><g><clipPath id="clip0x6000008acd20"><path d="M 24.0 135.0 L 204.0 135.0 L 204.0 16.0 L 24.0 16.0 Z M 24.4 135.3 "></path></clipPath><g clip-path="url(#clip0x6000008acd20)"><g><clipPath id="clip0x6000008b27e0"><path d="M 17.4 0.7 L 211.1 0.7 L 211.1 139.3 L 17.4 139.3 Z M 17.4 0.7 "></path></clipPath><g clip-path="url(#clip0x6000008b27e0)"><image xlink:href="7439719EBF6FF96E7C8D45E2917C9620.png" width="1286.00" height="856.00" transform="matrix(0.14, 0.00, -0.00, -0.14, 24.0, 135.0)"></image></g></g></g></g><g><clipPath id="clip0x6000008af5a0"><path d="M 17.4 0.7 L 211.1 0.7 L 211.1 139.3 L 17.4 139.3 Z M 17.4 0.7 "></path></clipPath><g clip-path="url(#clip0x6000008af5a0)"><image xlink:href="D36FBB14C8C9EE491C2B01E7ABDED70C.png" width="194.00" height="139.00" transform="matrix(1.00, 0.00, -0.00, 1.00, 17.4, 0.7)"></image></g></g><g><clipPath id="clip0x6000008b44c0"><path d="M 120.0 302.4 L 120.0 242.2 L 108.4 242.2 L 108.4 302.4 Z M 120.0 302.4 "></path></clipPath><g clip-path="url(#clip0x6000008b44c0)"><path d="M 0.4 0.2 L 48.6 0.2 L 49.4 0.2 " fill="none" stroke="#3D4453" stroke-width="2.00" transform="matrix(0.00, -1.00, -1.00, 0.00, 114.2, 301.4)"></path><path d="M 109.2 253.0 L 114.0 243.4 L 118.8 253.0 Z M 109.2 253.0 " fill="#3D4453"></path></g></g></g></svg>