<?xml version="1.0" encoding="UTF-8" standalone="no"?><svg xmlns="http://www.w3.org/2000/svg" xmlns:xlink="http://www.w3.org/1999/xlink" clip-rule="evenodd" stroke-miterlimit="10" viewBox="0 0 257 378"><desc>SVG generated by Keynote</desc><defs></defs><g transform="matrix(1.00, 0.00, -0.00, -1.00, 0.0, 378.0)"><g><clipPath id="clip0x610000aab280"><path d="M 0.8 52.1 L 255.3 52.1 L 255.3 190.7 L 0.8 190.7 Z M 0.8 52.1 "></path></clipPath><g clip-path="url(#clip0x610000aab280)"><image xlink:href="752F8624EDA728EFB1596CAD69C3AF1C.png" width="459.00" height="250.00" transform="matrix(0.55, 0.00, -0.00, -0.56, 1.0, 191.0)"></image></g></g><g><clipPath id="clip0x600000aab1c0"><path d="M 256.6 370.3 L 133.8 206.0 L 124.6 212.9 L 247.3 377.3 Z M 256.6 370.3 "></path></clipPath><g clip-path="url(#clip0x600000aab1c0)"><path d="M 0.0 0.0 L 193.6 0.0 L 194.6 0.0 " fill="none" stroke="#3D4453" stroke-width="2.00" transform="matrix(-0.60, -0.80, -0.80, 0.60, 251.4, 373.0)"></path><path d="M 131.7 220.8 L 129.8 210.2 L 139.4 215.0 Z M 131.7 220.8 " fill="#3D4453"></path></g></g><g><clipPath id="clip0x600000aad680"><path d="M -3.7 -5.0 L 259.8 -5.0 L 259.8 56.4 L -3.7 56.4 Z M -3.7 -5.0 "></path></clipPath><g clip-path="url(#clip0x600000aad680)"><text xml:space="preserve" font-family="GillSans-Light,Gill Sans" font-size="36.0" fill="#525252" transform="matrix(1.00, 0.00, -0.00, -1.00, 7.1, 13.8)">(</text><text xml:space="preserve" font-family="GillSans-Light,Gill Sans" font-size="36.0" fill="#525252" transform="matrix(1.00, 0.00, -0.00, -1.00, 19.0, 13.8)">S</text><text xml:space="preserve" font-family="GillSans-Light,Gill Sans" font-size="36.0" fill="#525252" transform="matrix(1.00, 0.00, -0.00, -1.00, 35.9, 13.8)">o</text><text xml:space="preserve" font-family="GillSans-Light,Gill Sans" font-size="36.0" fill="#525252" transform="matrix(1.00, 0.00, -0.00, -1.00, 55.5, 13.8)">u</text><text xml:space="preserve" font-family="GillSans-Light,Gill Sans" font-size="36.0" fill="#525252" transform="matrix(1.00, 0.00, -0.00, -1.00, 73.1, 13.8)">r</text><text xml:space="preserve" font-family="GillSans-Light,Gill Sans" font-size="36.0" fill="#525252" transform="matrix(1.00, 0.00, -0.00, -1.00, 85.1, 13.8)">c</text><text xml:space="preserve" font-family="GillSans-Light,Gill Sans" font-size="36.0" fill="#525252" transform="matrix(1.00, 0.00, -0.00, -1.00, 100.1, 13.8)">e</text><text xml:space="preserve" font-family="GillSans-Light,Gill Sans" font-size="36.0" fill="#525252" transform="matrix(1.00, 0.00, -0.00, -1.00, 117.4, 13.8)"> </text><text xml:space="preserve" font-family="GillSans-Light,Gill Sans" font-size="36.0" fill="#525252" transform="matrix(1.00, 0.00, -0.00, -1.00, 127.3, 13.8)">o</text><text xml:space="preserve" font-family="GillSans-Light,Gill Sans" font-size="36.0" fill="#525252" transform="matrix(1.00, 0.00, -0.00, -1.00, 146.9, 13.8)">f</text><text xml:space="preserve" font-family="GillSans-Light,Gill Sans" font-size="36.0" fill="#525252" transform="matrix(1.00, 0.00, -0.00, -1.00, 155.5, 13.8)"> </text><text xml:space="preserve" font-family="GillSans-Light,Gill Sans" font-size="36.0" fill="#525252" transform="matrix(1.00, 0.00, -0.00, -1.00, 160.5, 13.8)">T</text><text xml:space="preserve" font-family="GillSans-Light,Gill Sans" font-size="36.0" fill="#525252" transform="matrix(1.00, 0.00, -0.00, -1.00, 177.5, 13.8)">r</text><text xml:space="preserve" font-family="GillSans-Light,Gill Sans" font-size="36.0" fill="#525252" transform="matrix(1.00, 0.00, -0.00, -1.00, 190.9, 13.8)">u</text><text xml:space="preserve" font-family="GillSans-Light,Gill Sans" font-size="36.0" fill="#525252" transform="matrix(1.00, 0.00, -0.00, -1.00, 208.6, 13.8)">t</text><text xml:space="preserve" font-family="GillSans-Light,Gill Sans" font-size="36.0" fill="#525252" transform="matrix(1.00, 0.00, -0.00, -1.00, 219.4, 13.8)">h</text><text xml:space="preserve" font-family="GillSans-Light,Gill Sans" font-size="36.0" fill="#525252" transform="matrix(1.00, 0.00, -0.00, -1.00, 237.1, 13.8)">)</text></g></g></g></svg>