<?xml version="1.0" encoding="UTF-8" standalone="no"?><svg xmlns="http://www.w3.org/2000/svg" xmlns:xlink="http://www.w3.org/1999/xlink" clip-rule="evenodd" stroke-miterlimit="10" viewBox="0 0 304 204"><desc>SVG generated by Keynote</desc><defs></defs><g transform="matrix(1.00, 0.00, -0.00, -1.00, 0.0, 204.0)"><g><clipPath id="clip0x610000ab5780"><path d="M 0.7 115.6 L 52.0 115.6 L 52.0 127.2 L 0.7 127.2 Z M 0.7 115.6 "></path></clipPath><g clip-path="url(#clip0x610000ab5780)"><path d="M 0.3 0.4 L 39.6 0.4 L 40.3 0.4 " fill="none" stroke="#595E5D" stroke-width="2.00" transform="matrix(1.00, 0.00, 0.00, -1.00, 1.7, 121.4)"></path><path d="M 41.0 116.2 L 50.6 121.0 L 41.0 125.8 Z M 41.0 116.2 " fill="#595E5D"></path></g></g><g><clipPath id="clip0x610000aa07e0"><path d="M 135.0 79.0 L 206.0 79.0 L 206.0 1.0 L 135.0 1.0 Z M 134.6 79.2 "></path></clipPath><g clip-path="url(#clip0x610000aa07e0)"><g><clipPath id="clip0x610000aa2100"><path d="M 134.6 0.9 L 206.4 0.9 L 206.4 79.2 L 134.6 79.2 Z M 134.6 0.9 "></path></clipPath><g clip-path="url(#clip0x610000aa2100)"><image xlink:href="2366C817D0081362C36A48CFEB51DCAC.png" width="215.00" height="234.00" transform="matrix(0.33, 0.00, -0.00, -0.33, 135.0, 79.0)"></image></g></g></g></g><g><clipPath id="clip0x600000aa8e80"><path d="M 92.5 105.9 L 449.5 105.9 L 449.5 208.3 L 92.5 208.3 Z M 92.5 105.9 "></path></clipPath><g clip-path="url(#clip0x600000aa8e80)"><text xml:space="preserve" font-family="GillSans-Light,Gill Sans" font-size="36.0" fill="#525252" transform="matrix(1.00, 0.00, -0.00, -1.00, 133.0, 165.7)">I</text><text xml:space="preserve" font-family="GillSans-Light,Gill Sans" font-size="36.0" fill="#525252" transform="matrix(1.00, 0.00, -0.00, -1.00, 140.5, 165.7)">n</text><text xml:space="preserve" font-family="GillSans-Light,Gill Sans" font-size="36.0" fill="#525252" transform="matrix(1.00, 0.00, -0.00, -1.00, 158.2, 165.7)">g</text><text xml:space="preserve" font-family="GillSans-Light,Gill Sans" font-size="36.0" fill="#525252" transform="matrix(1.00, 0.00, -0.00, -1.00, 173.5, 165.7)">e</text><text xml:space="preserve" font-family="GillSans-Light,Gill Sans" font-size="36.0" fill="#525252" transform="matrix(1.00, 0.00, -0.00, -1.00, 190.8, 165.7)">s</text><text xml:space="preserve" font-family="GillSans-Light,Gill Sans" font-size="36.0" fill="#525252" transform="matrix(1.00, 0.00, -0.00, -1.00, 203.5, 165.7)">t</text><text xml:space="preserve" font-family="GillSans-Light,Gill Sans" font-size="36.0" fill="#525252" transform="matrix(1.00, 0.00, -0.00, -1.00, 214.4, 165.7)">i</text><text xml:space="preserve" font-family="GillSans-Light,Gill Sans" font-size="36.0" fill="#525252" transform="matrix(1.00, 0.00, -0.00, -1.00, 221.1, 165.7)">o</text><text xml:space="preserve" font-family="GillSans-Light,Gill Sans" font-size="36.0" fill="#525252" transform="matrix(1.00, 0.00, -0.00, -1.00, 240.6, 165.7)">n</text><text xml:space="preserve" font-family="GillSans-Light,Gill Sans" font-size="36.0" fill="#525252" transform="matrix(1.00, 0.00, -0.00, -1.00, 258.3, 165.7)">/</text><text xml:space="preserve" font-family="GillSans-Light,Gill Sans" font-size="36.0" fill="#525252" transform="matrix(1.00, 0.00, -0.00, -1.00, 103.2, 124.7)">P</text><text xml:space="preserve" font-family="GillSans-Light,Gill Sans" font-size="36.0" fill="#525252" transform="matrix(1.00, 0.00, -0.00, -1.00, 121.6, 124.7)">r</text><text xml:space="preserve" font-family="GillSans-Light,Gill Sans" font-size="36.0" fill="#525252" transform="matrix(1.00, 0.00, -0.00, -1.00, 133.6, 124.7)">e</text><text xml:space="preserve" font-family="GillSans-Light,Gill Sans" font-size="36.0" fill="#525252" transform="matrix(1.00, 0.00, -0.00, -1.00, 150.8, 124.7)">p</text><text xml:space="preserve" font-family="GillSans-Light,Gill Sans" font-size="36.0" fill="#525252" transform="matrix(1.00, 0.00, -0.00, -1.00, 169.2, 124.7)">r</text><text xml:space="preserve" font-family="GillSans-Light,Gill Sans" font-size="36.0" fill="#525252" transform="matrix(1.00, 0.00, -0.00, -1.00, 181.1, 124.7)">o</text><text xml:space="preserve" font-family="GillSans-Light,Gill Sans" font-size="36.0" fill="#525252" transform="matrix(1.00, 0.00, -0.00, -1.00, 200.7, 124.7)">c</text><text xml:space="preserve" font-family="GillSans-Light,Gill Sans" font-size="36.0" fill="#525252" transform="matrix(1.00, 0.00, -0.00, -1.00, 215.7, 124.7)">e</text><text xml:space="preserve" font-family="GillSans-Light,Gill Sans" font-size="36.0" fill="#525252" transform="matrix(1.00, 0.00, -0.00, -1.00, 232.9, 124.7)">s</text><text xml:space="preserve" font-family="GillSans-Light,Gill Sans" font-size="36.0" fill="#525252" transform="matrix(1.00, 0.00, -0.00, -1.00, 245.7, 124.7)">s</text><text xml:space="preserve" font-family="GillSans-Light,Gill Sans" font-size="36.0" fill="#525252" transform="matrix(1.00, 0.00, -0.00, -1.00, 258.4, 124.7)">i</text><text xml:space="preserve" font-family="GillSans-Light,Gill Sans" font-size="36.0" fill="#525252" transform="matrix(1.00, 0.00, -0.00, -1.00, 265.2, 124.7)">n</text><text xml:space="preserve" font-family="GillSans-Light,Gill Sans" font-size="36.0" fill="#525252" transform="matrix(1.00, 0.00, -0.00, -1.00, 282.8, 124.7)">g</text></g></g><g><clipPath id="clip0x6000008aaec0"><path d="M 177.6 24.9 L 283.9 24.9 L 283.9 124.3 L 177.6 124.3 Z M 177.6 24.9 "></path></clipPath><g clip-path="url(#clip0x6000008aaec0)"><image xlink:href="0B0FCF33CA03C550527A35ED0E8F0B9A.png" width="200.00" height="187.00" transform="matrix(0.53, 0.00, -0.00, -0.53, 178.0, 124.0)"></image></g></g></g></svg>