<?xml version="1.0" encoding="UTF-8" standalone="no"?><svg xmlns="http://www.w3.org/2000/svg" xmlns:xlink="http://www.w3.org/1999/xlink" clip-rule="evenodd" stroke-miterlimit="10" viewBox="0 0 170 342"><desc>SVG generated by Keynote</desc><defs></defs><g transform="matrix(1.00, 0.00, -0.00, -1.00, 0.0, 342.0)"><g><clipPath id="clip0x6180004bfb00"><path d="M 0.1 0.5 L 169.2 0.5 L 169.2 227.5 L 0.1 227.5 Z M 0.1 0.5 "></path></clipPath><g clip-path="url(#clip0x6180004bfb00)"><image xlink:href="642C14F2B88052B4B935F1B846E6D4DA.png" width="1190.00" height="1598.00" transform="matrix(0.14, 0.00, -0.00, -0.14, 0.0, 228.0)"></image></g></g><g><clipPath id="clip0x6100008a1a40"><path d="M 50.0 341.6 L 74.2 280.3 L 63.4 276.1 L 39.3 337.3 Z M 50.0 341.6 "></path></clipPath><g clip-path="url(#clip0x6100008a1a40)"><path d="M 0.0 0.0 L 54.2 0.0 L 55.2 0.0 " fill="none" stroke="#595E5D" stroke-width="2.00" transform="matrix(0.37, -0.93, -0.93, -0.37, 45.0, 338.5)"></path><path d="M 60.4 286.3 L 68.4 279.1 L 69.3 289.8 Z M 60.4 286.3 " fill="#595E5D"></path></g></g><g><clipPath id="clip0x6100006bfd40"><path d="M 18.6 225.3 L 127.4 225.3 L 127.4 286.7 L 18.6 286.7 Z M 18.6 225.3 "></path></clipPath><g clip-path="url(#clip0x6100006bfd40)"><text xml:space="preserve" font-family="GillSans-Light,Gill Sans" font-size="36.0" fill="#525252" transform="matrix(1.00, 0.00, -0.00, -1.00, 29.3, 244.1)">L</text><text xml:space="preserve" font-family="GillSans-Light,Gill Sans" font-size="36.0" fill="#525252" transform="matrix(1.00, 0.00, -0.00, -1.00, 46.2, 244.1)">a</text><text xml:space="preserve" font-family="GillSans-Light,Gill Sans" font-size="36.0" fill="#525252" transform="matrix(1.00, 0.00, -0.00, -1.00, 61.6, 244.1)">b</text><text xml:space="preserve" font-family="GillSans-Light,Gill Sans" font-size="36.0" fill="#525252" transform="matrix(1.00, 0.00, -0.00, -1.00, 79.9, 244.1)">e</text><text xml:space="preserve" font-family="GillSans-Light,Gill Sans" font-size="36.0" fill="#525252" transform="matrix(1.00, 0.00, -0.00, -1.00, 97.2, 244.1)">l</text><text xml:space="preserve" font-family="GillSans-Light,Gill Sans" font-size="36.0" fill="#525252" transform="matrix(1.00, 0.00, -0.00, -1.00, 103.9, 244.1)">s</text></g></g></g></svg>