<?xml version="1.0" encoding="UTF-8" standalone="no"?><svg xmlns="http://www.w3.org/2000/svg" xmlns:xlink="http://www.w3.org/1999/xlink" clip-rule="evenodd" stroke-miterlimit="10" viewBox="0 0 516 366"><desc>SVG generated by Keynote</desc><defs></defs><g transform="matrix(1.00, 0.00, -0.00, -1.00, 0.0, 366.0)"><g><clipPath id="clip0x6080006be180"><path d="M 3.9 365.2 L 236.7 293.4 L 233.3 282.3 L 0.5 354.1 Z M 3.9 365.2 "></path></clipPath><g clip-path="url(#clip0x6080006be180)"><path d="M 0.0 0.0 L 232.0 0.0 L 233.0 0.0 " fill="none" stroke="#595E5D" stroke-width="2.00" transform="matrix(0.96, -0.29, -0.29, -0.96, 3.2, 359.3)"></path><path d="M 223.5 286.4 L 234.1 288.2 L 226.3 295.6 Z M 223.5 286.4 " fill="#595E5D"></path></g></g><g><clipPath id="clip0x6080008a26a0"><path d="M 235.3 243.3 L 387.6 243.3 L 387.6 304.7 L 235.3 304.7 Z M 235.3 243.3 "></path></clipPath><g clip-path="url(#clip0x6080008a26a0)"><text xml:space="preserve" font-family="GillSans-Light,Gill Sans" font-size="36.0" fill="#525252" transform="matrix(1.00, 0.00, -0.00, -1.00, 246.0, 262.1)">G</text><text xml:space="preserve" font-family="GillSans-Light,Gill Sans" font-size="36.0" fill="#525252" transform="matrix(1.00, 0.00, -0.00, -1.00, 271.9, 262.1)">e</text><text xml:space="preserve" font-family="GillSans-Light,Gill Sans" font-size="36.0" fill="#525252" transform="matrix(1.00, 0.00, -0.00, -1.00, 289.2, 262.1)">o</text><text xml:space="preserve" font-family="GillSans-Light,Gill Sans" font-size="36.0" fill="#525252" transform="matrix(1.00, 0.00, -0.00, -1.00, 308.7, 262.1)">D</text><text xml:space="preserve" font-family="GillSans-Light,Gill Sans" font-size="36.0" fill="#525252" transform="matrix(1.00, 0.00, -0.00, -1.00, 335.3, 262.1)">a</text><text xml:space="preserve" font-family="GillSans-Light,Gill Sans" font-size="36.0" fill="#525252" transform="matrix(1.00, 0.00, -0.00, -1.00, 350.7, 262.1)">t</text><text xml:space="preserve" font-family="GillSans-Light,Gill Sans" font-size="36.0" fill="#525252" transform="matrix(1.00, 0.00, -0.00, -1.00, 361.5, 262.1)">a</text></g></g><g><clipPath id="clip0x6080006a9a20"><path d="M 178.0 0.3 L 515.6 0.3 L 515.6 239.7 L 178.0 239.7 Z M 178.0 0.3 "></path></clipPath><g clip-path="url(#clip0x6080006a9a20)"><image xlink:href="D075DE45D330E5CC0737EB1DC5E0F7AB.png" width="1665.00" height="1181.00" transform="matrix(0.20, 0.00, -0.00, -0.20, 178.0, 240.0)"></image></g></g></g></svg>