<?xml version="1.0" encoding="UTF-8" standalone="no"?><svg xmlns="http://www.w3.org/2000/svg" xmlns:xlink="http://www.w3.org/1999/xlink" clip-rule="evenodd" stroke-miterlimit="10" viewBox="0 0 388 61"><desc>SVG generated by Keynote</desc><defs></defs><g transform="matrix(1.00, 0.00, -0.00, -1.00, 0.0, 61.0)"><text xml:space="preserve" font-family="GillSans-Light,Gill Sans" font-size="29.0" fill="#525252" transform="matrix(1.00, 0.00, -0.00, -1.00, -0.1, 38.9)">u</text><text xml:space="preserve" font-family="GillSans-Light,Gill Sans" font-size="29.0" fill="#525252" transform="matrix(1.00, 0.00, -0.00, -1.00, 14.1, 38.9)">r</text><text xml:space="preserve" font-family="GillSans-Light,Gill Sans" font-size="29.0" fill="#525252" transform="matrix(1.00, 0.00, -0.00, -1.00, 25.0, 38.9)">l</text><text xml:space="preserve" font-family="GillSans-Light,Gill Sans" font-size="29.0" fill="#525252" transform="matrix(1.00, 0.00, -0.00, -1.00, 30.4, 38.9)">:</text><text xml:space="preserve" font-family="GillSans-Light,Gill Sans" font-size="29.0" fill="#525252" transform="matrix(1.00, 0.00, -0.00, -1.00, 33.2, 38.9)"> </text><text xml:space="preserve" font-family="GillSans-Light,Gill Sans" font-size="29.0" fill="#525252" transform="matrix(1.00, 0.00, -0.00, -1.00, 41.3, 38.9)">h</text><text xml:space="preserve" font-family="GillSans-Light,Gill Sans" font-size="29.0" fill="#525252" transform="matrix(1.00, 0.00, -0.00, -1.00, 55.5, 38.9)">t</text><text xml:space="preserve" font-family="GillSans-Light,Gill Sans" font-size="29.0" fill="#525252" transform="matrix(1.00, 0.00, -0.00, -1.00, 64.2, 38.9)">t</text><text xml:space="preserve" font-family="GillSans-Light,Gill Sans" font-size="29.0" fill="#525252" transform="matrix(1.00, 0.00, -0.00, -1.00, 73.0, 38.9)">p</text><text xml:space="preserve" font-family="GillSans-Light,Gill Sans" font-size="29.0" fill="#525252" transform="matrix(1.00, 0.00, -0.00, -1.00, 87.8, 38.9)">s</text><text xml:space="preserve" font-family="GillSans-Light,Gill Sans" font-size="29.0" fill="#525252" transform="matrix(1.00, 0.00, -0.00, -1.00, 98.0, 38.9)">:</text><text xml:space="preserve" font-family="GillSans-Light,Gill Sans" font-size="29.0" fill="#525252" transform="matrix(1.00, 0.00, -0.00, -1.00, 103.1, 38.9)">/</text><text xml:space="preserve" font-family="GillSans-Light,Gill Sans" font-size="29.0" fill="#525252" transform="matrix(1.00, 0.00, -0.00, -1.00, 111.3, 38.9)">/</text><text xml:space="preserve" font-family="GillSans-Light,Gill Sans" font-size="29.0" fill="#525252" transform="matrix(1.00, 0.00, -0.00, -1.00, 119.4, 38.9)">w</text><text xml:space="preserve" font-family="GillSans-Light,Gill Sans" font-size="29.0" fill="#525252" transform="matrix(1.00, 0.00, -0.00, -1.00, 139.9, 38.9)">w</text><text xml:space="preserve" font-family="GillSans-Light,Gill Sans" font-size="29.0" fill="#525252" transform="matrix(1.00, 0.00, -0.00, -1.00, 160.5, 38.9)">w</text><text xml:space="preserve" font-family="GillSans-Light,Gill Sans" font-size="29.0" fill="#525252" transform="matrix(1.00, 0.00, -0.00, -1.00, 179.4, 38.9)">.</text><text xml:space="preserve" font-family="GillSans-Light,Gill Sans" font-size="29.0" fill="#525252" transform="matrix(1.00, 0.00, -0.00, -1.00, 184.5, 38.9)">ﬂ</text><text xml:space="preserve" font-family="GillSans-Light,Gill Sans" font-size="29.0" fill="#525252" transform="matrix(1.00, 0.00, -0.00, -1.00, 198.4, 38.9)">i</text><text xml:space="preserve" font-family="GillSans-Light,Gill Sans" font-size="29.0" fill="#525252" transform="matrix(1.00, 0.00, -0.00, -1.00, 203.9, 38.9)">c</text><text xml:space="preserve" font-family="GillSans-Light,Gill Sans" font-size="29.0" fill="#525252" transform="matrix(1.00, 0.00, -0.00, -1.00, 216.0, 38.9)">k</text><text xml:space="preserve" font-family="GillSans-Light,Gill Sans" font-size="29.0" fill="#525252" transform="matrix(1.00, 0.00, -0.00, -1.00, 228.3, 38.9)">r</text><text xml:space="preserve" font-family="GillSans-Light,Gill Sans" font-size="29.0" fill="#525252" transform="matrix(1.00, 0.00, -0.00, -1.00, 235.4, 38.9)">.</text><text xml:space="preserve" font-family="GillSans-Light,Gill Sans" font-size="29.0" fill="#525252" transform="matrix(1.00, 0.00, -0.00, -1.00, 240.5, 38.9)">c</text><text xml:space="preserve" font-family="GillSans-Light,Gill Sans" font-size="29.0" fill="#525252" transform="matrix(1.00, 0.00, -0.00, -1.00, 252.6, 38.9)">o</text><text xml:space="preserve" font-family="GillSans-Light,Gill Sans" font-size="29.0" fill="#525252" transform="matrix(1.00, 0.00, -0.00, -1.00, 268.3, 38.9)">m</text><text xml:space="preserve" font-family="GillSans-Light,Gill Sans" font-size="29.0" fill="#525252" transform="matrix(1.00, 0.00, -0.00, -1.00, 290.7, 38.9)">/</text><text xml:space="preserve" font-family="GillSans-Light,Gill Sans" font-size="29.0" fill="#525252" transform="matrix(1.00, 0.00, -0.00, -1.00, 298.8, 38.9)">p</text><text xml:space="preserve" font-family="GillSans-Light,Gill Sans" font-size="29.0" fill="#525252" transform="matrix(1.00, 0.00, -0.00, -1.00, 313.6, 38.9)">h</text><text xml:space="preserve" font-family="GillSans-Light,Gill Sans" font-size="29.0" fill="#525252" transform="matrix(1.00, 0.00, -0.00, -1.00, 327.8, 38.9)">o</text><text xml:space="preserve" font-family="GillSans-Light,Gill Sans" font-size="29.0" fill="#525252" transform="matrix(1.00, 0.00, -0.00, -1.00, 343.5, 38.9)">t</text><text xml:space="preserve" font-family="GillSans-Light,Gill Sans" font-size="29.0" fill="#525252" transform="matrix(1.00, 0.00, -0.00, -1.00, 352.3, 38.9)">o</text><text xml:space="preserve" font-family="GillSans-Light,Gill Sans" font-size="29.0" fill="#525252" transform="matrix(1.00, 0.00, -0.00, -1.00, 368.0, 38.9)">s</text><text xml:space="preserve" font-family="GillSans-Light,Gill Sans" font-size="29.0" fill="#525252" transform="matrix(1.00, 0.00, -0.00, -1.00, 378.3, 38.9)">/</text><text xml:space="preserve" font-family="GillSans-Light,Gill Sans" font-size="29.0" fill="#525252" transform="matrix(1.00, 0.00, -0.00, -1.00, 21.3, 5.9)">1</text><text xml:space="preserve" font-family="GillSans-Light,Gill Sans" font-size="29.0" fill="#525252" transform="matrix(1.00, 0.00, -0.00, -1.00, 35.8, 5.9)">1</text><text xml:space="preserve" font-family="GillSans-Light,Gill Sans" font-size="29.0" fill="#525252" transform="matrix(1.00, 0.00, -0.00, -1.00, 50.3, 5.9)">3</text><text xml:space="preserve" font-family="GillSans-Light,Gill Sans" font-size="29.0" fill="#525252" transform="matrix(1.00, 0.00, -0.00, -1.00, 64.8, 5.9)">0</text><text xml:space="preserve" font-family="GillSans-Light,Gill Sans" font-size="29.0" fill="#525252" transform="matrix(1.00, 0.00, -0.00, -1.00, 79.3, 5.9)">9</text><text xml:space="preserve" font-family="GillSans-Light,Gill Sans" font-size="29.0" fill="#525252" transform="matrix(1.00, 0.00, -0.00, -1.00, 93.8, 5.9)">3</text><text xml:space="preserve" font-family="GillSans-Light,Gill Sans" font-size="29.0" fill="#525252" transform="matrix(1.00, 0.00, -0.00, -1.00, 108.3, 5.9)">7</text><text xml:space="preserve" font-family="GillSans-Light,Gill Sans" font-size="29.0" fill="#525252" transform="matrix(1.00, 0.00, -0.00, -1.00, 122.8, 5.9)">9</text><text xml:space="preserve" font-family="GillSans-Light,Gill Sans" font-size="29.0" fill="#525252" transform="matrix(1.00, 0.00, -0.00, -1.00, 137.3, 5.9)">@</text><text xml:space="preserve" font-family="GillSans-Light,Gill Sans" font-size="29.0" fill="#525252" transform="matrix(1.00, 0.00, -0.00, -1.00, 160.5, 5.9)">N</text><text xml:space="preserve" font-family="GillSans-Light,Gill Sans" font-size="29.0" fill="#525252" transform="matrix(1.00, 0.00, -0.00, -1.00, 182.9, 5.9)">0</text><text xml:space="preserve" font-family="GillSans-Light,Gill Sans" font-size="29.0" fill="#525252" transform="matrix(1.00, 0.00, -0.00, -1.00, 197.4, 5.9)">0</text><text xml:space="preserve" font-family="GillSans-Light,Gill Sans" font-size="29.0" fill="#525252" transform="matrix(1.00, 0.00, -0.00, -1.00, 211.9, 5.9)">/</text><text xml:space="preserve" font-family="GillSans-Light,Gill Sans" font-size="29.0" fill="#525252" transform="matrix(1.00, 0.00, -0.00, -1.00, 220.0, 5.9)">2</text><text xml:space="preserve" font-family="GillSans-Light,Gill Sans" font-size="29.0" fill="#525252" transform="matrix(1.00, 0.00, -0.00, -1.00, 234.5, 5.9)">5</text><text xml:space="preserve" font-family="GillSans-Light,Gill Sans" font-size="29.0" fill="#525252" transform="matrix(1.00, 0.00, -0.00, -1.00, 249.0, 5.9)">1</text><text xml:space="preserve" font-family="GillSans-Light,Gill Sans" font-size="29.0" fill="#525252" transform="matrix(1.00, 0.00, -0.00, -1.00, 263.5, 5.9)">1</text><text xml:space="preserve" font-family="GillSans-Light,Gill Sans" font-size="29.0" fill="#525252" transform="matrix(1.00, 0.00, -0.00, -1.00, 278.0, 5.9)">1</text><text xml:space="preserve" font-family="GillSans-Light,Gill Sans" font-size="29.0" fill="#525252" transform="matrix(1.00, 0.00, -0.00, -1.00, 292.5, 5.9)">1</text><text xml:space="preserve" font-family="GillSans-Light,Gill Sans" font-size="29.0" fill="#525252" transform="matrix(1.00, 0.00, -0.00, -1.00, 307.0, 5.9)">5</text><text xml:space="preserve" font-family="GillSans-Light,Gill Sans" font-size="29.0" fill="#525252" transform="matrix(1.00, 0.00, -0.00, -1.00, 321.5, 5.9)">4</text><text xml:space="preserve" font-family="GillSans-Light,Gill Sans" font-size="29.0" fill="#525252" transform="matrix(1.00, 0.00, -0.00, -1.00, 336.0, 5.9)">7</text><text xml:space="preserve" font-family="GillSans-Light,Gill Sans" font-size="29.0" fill="#525252" transform="matrix(1.00, 0.00, -0.00, -1.00, 350.5, 5.9)">2</text></g></svg>