<?xml version="1.0" encoding="UTF-8" standalone="no"?><svg xmlns="http://www.w3.org/2000/svg" xmlns:xlink="http://www.w3.org/1999/xlink" clip-rule="evenodd" stroke-miterlimit="10" viewBox="0 0 453 444"><desc>SVG generated by Keynote</desc><defs></defs><g transform="matrix(1.00, 0.00, -0.00, -1.00, 0.0, 444.0)"><text xml:space="preserve" font-family="GillSans-Light,Gill Sans" font-size="30.2" fill="#525252" transform="matrix(1.00, 0.00, -0.00, -1.00, 0.0, 416.2)">•</text><text xml:space="preserve" font-family="GillSans-Light,Gill Sans" font-size="36.9" fill="#525252" transform="matrix(1.00, 0.00, -0.00, -1.00, 33.0, 413.8)">F</text><text xml:space="preserve" font-family="GillSans-Light,Gill Sans" font-size="36.9" fill="#525252" transform="matrix(1.00, 0.00, -0.00, -1.00, 49.1, 413.8)">a</text><text xml:space="preserve" font-family="GillSans-Light,Gill Sans" font-size="36.9" fill="#525252" transform="matrix(1.00, 0.00, -0.00, -1.00, 64.8, 413.8)">t</text><text xml:space="preserve" font-family="GillSans-Light,Gill Sans" font-size="36.9" fill="#525252" transform="matrix(1.00, 0.00, -0.00, -1.00, 76.0, 413.8)">h</text><text xml:space="preserve" font-family="GillSans-Light,Gill Sans" font-size="36.9" fill="#525252" transform="matrix(1.00, 0.00, -0.00, -1.00, 94.0, 413.8)">e</text><text xml:space="preserve" font-family="GillSans-Light,Gill Sans" font-size="36.9" fill="#525252" transform="matrix(1.00, 0.00, -0.00, -1.00, 111.7, 413.8)">r</text><text xml:space="preserve" font-family="GillSans-Light,Gill Sans" font-size="36.9" fill="#525252" transform="matrix(1.00, 0.00, -0.00, -1.00, 124.0, 413.8)"> </text><text xml:space="preserve" font-family="GillSans-Light,Gill Sans" font-size="36.9" fill="#525252" transform="matrix(1.00, 0.00, -0.00, -1.00, 134.2, 413.8)">o</text><text xml:space="preserve" font-family="GillSans-Light,Gill Sans" font-size="36.9" fill="#525252" transform="matrix(1.00, 0.00, -0.00, -1.00, 154.2, 413.8)">f</text><text xml:space="preserve" font-family="GillSans-Light,Gill Sans" font-size="36.9" fill="#525252" transform="matrix(1.00, 0.00, -0.00, -1.00, 163.0, 413.8)"> </text><text xml:space="preserve" font-family="GillSans-Light,Gill Sans" font-size="36.9" fill="#525252" transform="matrix(1.00, 0.00, -0.00, -1.00, 173.3, 413.8)">M</text><text xml:space="preserve" font-family="GillSans-Light,Gill Sans" font-size="36.9" fill="#525252" transform="matrix(1.00, 0.00, -0.00, -1.00, 202.0, 413.8)">i</text><text xml:space="preserve" font-family="GillSans-Light,Gill Sans" font-size="36.9" fill="#525252" transform="matrix(1.00, 0.00, -0.00, -1.00, 209.0, 413.8)">c</text><text xml:space="preserve" font-family="GillSans-Light,Gill Sans" font-size="36.9" fill="#525252" transform="matrix(1.00, 0.00, -0.00, -1.00, 224.3, 413.8)">a</text><text xml:space="preserve" font-family="GillSans-Light,Gill Sans" font-size="36.9" fill="#525252" transform="matrix(1.00, 0.00, -0.00, -1.00, 240.1, 413.8)">e</text><text xml:space="preserve" font-family="GillSans-Light,Gill Sans" font-size="36.9" fill="#525252" transform="matrix(1.00, 0.00, -0.00, -1.00, 257.7, 413.8)">l</text><text xml:space="preserve" font-family="GillSans-Light,Gill Sans" font-size="36.9" fill="#525252" transform="matrix(1.00, 0.00, -0.00, -1.00, 264.7, 413.8)">a</text><text xml:space="preserve" font-family="GillSans-Light,Gill Sans" font-size="36.9" fill="#525252" transform="matrix(1.00, 0.00, -0.00, -1.00, 280.4, 413.8)"> </text><text xml:space="preserve" font-family="GillSans-Light,Gill Sans" font-size="36.9" fill="#525252" transform="matrix(1.00, 0.00, -0.00, -1.00, 290.6, 413.8)">C</text><text xml:space="preserve" font-family="GillSans-Light,Gill Sans" font-size="36.9" fill="#525252" transform="matrix(1.00, 0.00, -0.00, -1.00, 315.6, 413.8)">r</text><text xml:space="preserve" font-family="GillSans-Light,Gill Sans" font-size="36.9" fill="#525252" transform="matrix(1.00, 0.00, -0.00, -1.00, 329.3, 413.8)">u</text><text xml:space="preserve" font-family="GillSans-Light,Gill Sans" font-size="36.9" fill="#525252" transform="matrix(1.00, 0.00, -0.00, -1.00, 347.4, 413.8)">z</text><text xml:space="preserve" font-family="GillSans-Light,Gill Sans" font-size="36.9" fill="#525252" transform="matrix(1.00, 0.00, -0.00, -1.00, 362.0, 413.8)"> </text><text xml:space="preserve" font-family="GillSans-Light,Gill Sans" font-size="30.2" fill="#525252" transform="matrix(1.00, 0.00, -0.00, -1.00, 0.0, 337.3)">•</text><text xml:space="preserve" font-family="GillSans-Light,Gill Sans" font-size="36.9" fill="#525252" transform="matrix(1.00, 0.00, -0.00, -1.00, 33.0, 334.9)">P</text><text xml:space="preserve" font-family="GillSans-Light,Gill Sans" font-size="36.9" fill="#525252" transform="matrix(1.00, 0.00, -0.00, -1.00, 51.8, 334.9)">h</text><text xml:space="preserve" font-family="GillSans-Light,Gill Sans" font-size="36.9" fill="#525252" transform="matrix(1.00, 0.00, -0.00, -1.00, 69.8, 334.9)">D</text><text xml:space="preserve" font-family="GillSans-Light,Gill Sans" font-size="36.9" fill="#525252" transform="matrix(1.00, 0.00, -0.00, -1.00, 97.1, 334.9)"> </text><text xml:space="preserve" font-family="GillSans-Light,Gill Sans" font-size="36.9" fill="#525252" transform="matrix(1.00, 0.00, -0.00, -1.00, 107.4, 334.9)">S</text><text xml:space="preserve" font-family="GillSans-Light,Gill Sans" font-size="36.9" fill="#525252" transform="matrix(1.00, 0.00, -0.00, -1.00, 124.7, 334.9)">t</text><text xml:space="preserve" font-family="GillSans-Light,Gill Sans" font-size="36.9" fill="#525252" transform="matrix(1.00, 0.00, -0.00, -1.00, 135.8, 334.9)">u</text><text xml:space="preserve" font-family="GillSans-Light,Gill Sans" font-size="36.9" fill="#525252" transform="matrix(1.00, 0.00, -0.00, -1.00, 153.9, 334.9)">d</text><text xml:space="preserve" font-family="GillSans-Light,Gill Sans" font-size="36.9" fill="#525252" transform="matrix(1.00, 0.00, -0.00, -1.00, 172.6, 334.9)">e</text><text xml:space="preserve" font-family="GillSans-Light,Gill Sans" font-size="36.9" fill="#525252" transform="matrix(1.00, 0.00, -0.00, -1.00, 190.3, 334.9)">n</text><text xml:space="preserve" font-family="GillSans-Light,Gill Sans" font-size="36.9" fill="#525252" transform="matrix(1.00, 0.00, -0.00, -1.00, 208.4, 334.9)">t</text><text xml:space="preserve" font-family="GillSans-Light,Gill Sans" font-size="36.9" fill="#525252" transform="matrix(1.00, 0.00, -0.00, -1.00, 219.5, 334.9)"> </text><text xml:space="preserve" font-family="GillSans-Light,Gill Sans" font-size="36.9" fill="#525252" transform="matrix(1.00, 0.00, -0.00, -1.00, 229.7, 334.9)">a</text><text xml:space="preserve" font-family="GillSans-Light,Gill Sans" font-size="36.9" fill="#525252" transform="matrix(1.00, 0.00, -0.00, -1.00, 245.5, 334.9)">t</text><text xml:space="preserve" font-family="GillSans-Light,Gill Sans" font-size="36.9" fill="#525252" transform="matrix(1.00, 0.00, -0.00, -1.00, 256.6, 334.9)"> </text><text xml:space="preserve" font-family="GillSans-Light,Gill Sans" font-size="36.9" fill="#525252" transform="matrix(1.00, 0.00, -0.00, -1.00, 266.8, 334.9)">U</text><text xml:space="preserve" font-family="GillSans-Light,Gill Sans" font-size="36.9" fill="#525252" transform="matrix(1.00, 0.00, -0.00, -1.00, 292.5, 334.9)">C</text><text xml:space="preserve" font-family="GillSans-Light,Gill Sans" font-size="36.9" fill="#525252" transform="matrix(1.00, 0.00, -0.00, -1.00, 317.5, 334.9)"> </text><text xml:space="preserve" font-family="GillSans-Light,Gill Sans" font-size="36.9" fill="#525252" transform="matrix(1.00, 0.00, -0.00, -1.00, 327.7, 334.9)">B</text><text xml:space="preserve" font-family="GillSans-Light,Gill Sans" font-size="36.9" fill="#525252" transform="matrix(1.00, 0.00, -0.00, -1.00, 347.3, 334.9)">e</text><text xml:space="preserve" font-family="GillSans-Light,Gill Sans" font-size="36.9" fill="#525252" transform="matrix(1.00, 0.00, -0.00, -1.00, 364.9, 334.9)">r</text><text xml:space="preserve" font-family="GillSans-Light,Gill Sans" font-size="36.9" fill="#525252" transform="matrix(1.00, 0.00, -0.00, -1.00, 378.7, 334.9)">k</text><text xml:space="preserve" font-family="GillSans-Light,Gill Sans" font-size="36.9" fill="#525252" transform="matrix(1.00, 0.00, -0.00, -1.00, 394.0, 334.9)">e</text><text xml:space="preserve" font-family="GillSans-Light,Gill Sans" font-size="36.9" fill="#525252" transform="matrix(1.00, 0.00, -0.00, -1.00, 411.7, 334.9)">l</text><text xml:space="preserve" font-family="GillSans-Light,Gill Sans" font-size="36.9" fill="#525252" transform="matrix(1.00, 0.00, -0.00, -1.00, 418.6, 334.9)">e</text><text xml:space="preserve" font-family="GillSans-Light,Gill Sans" font-size="36.9" fill="#525252" transform="matrix(1.00, 0.00, -0.00, -1.00, 436.3, 334.9)">y</text><text xml:space="preserve" font-family="GillSans-Light,Gill Sans" font-size="36.9" fill="#525252" transform="matrix(1.00, 0.00, -0.00, -1.00, 451.7, 334.9)"> </text><text xml:space="preserve" font-family="GillSans-Light,Gill Sans" font-size="36.9" fill="#525252" transform="matrix(1.00, 0.00, -0.00, -1.00, 33.0, 292.9)">i</text><text xml:space="preserve" font-family="GillSans-Light,Gill Sans" font-size="36.9" fill="#525252" transform="matrix(1.00, 0.00, -0.00, -1.00, 39.9, 292.9)">n</text><text xml:space="preserve" font-family="GillSans-Light,Gill Sans" font-size="36.9" fill="#525252" transform="matrix(1.00, 0.00, -0.00, -1.00, 58.0, 292.9)"> </text><text xml:space="preserve" font-family="GillSans-Light,Gill Sans" font-size="36.9" fill="#525252" transform="matrix(1.00, 0.00, -0.00, -1.00, 66.0, 292.9)">A</text><text xml:space="preserve" font-family="GillSans-Light,Gill Sans" font-size="36.9" fill="#525252" transform="matrix(1.00, 0.00, -0.00, -1.00, 90.6, 292.9)">p</text><text xml:space="preserve" font-family="GillSans-Light,Gill Sans" font-size="36.9" fill="#525252" transform="matrix(1.00, 0.00, -0.00, -1.00, 109.4, 292.9)">p</text><text xml:space="preserve" font-family="GillSans-Light,Gill Sans" font-size="36.9" fill="#525252" transform="matrix(1.00, 0.00, -0.00, -1.00, 128.2, 292.9)">l</text><text xml:space="preserve" font-family="GillSans-Light,Gill Sans" font-size="36.9" fill="#525252" transform="matrix(1.00, 0.00, -0.00, -1.00, 135.1, 292.9)">i</text><text xml:space="preserve" font-family="GillSans-Light,Gill Sans" font-size="36.9" fill="#525252" transform="matrix(1.00, 0.00, -0.00, -1.00, 142.0, 292.9)">e</text><text xml:space="preserve" font-family="GillSans-Light,Gill Sans" font-size="36.9" fill="#525252" transform="matrix(1.00, 0.00, -0.00, -1.00, 159.7, 292.9)">d</text><text xml:space="preserve" font-family="GillSans-Light,Gill Sans" font-size="36.9" fill="#525252" transform="matrix(1.00, 0.00, -0.00, -1.00, 178.5, 292.9)"> </text><text xml:space="preserve" font-family="GillSans-Light,Gill Sans" font-size="36.9" fill="#525252" transform="matrix(1.00, 0.00, -0.00, -1.00, 188.7, 292.9)">M</text><text xml:space="preserve" font-family="GillSans-Light,Gill Sans" font-size="36.9" fill="#525252" transform="matrix(1.00, 0.00, -0.00, -1.00, 217.5, 292.9)">a</text><text xml:space="preserve" font-family="GillSans-Light,Gill Sans" font-size="36.9" fill="#525252" transform="matrix(1.00, 0.00, -0.00, -1.00, 233.2, 292.9)">t</text><text xml:space="preserve" font-family="GillSans-Light,Gill Sans" font-size="36.9" fill="#525252" transform="matrix(1.00, 0.00, -0.00, -1.00, 244.3, 292.9)">h</text><text xml:space="preserve" font-family="GillSans-Light,Gill Sans" font-size="36.9" fill="#525252" transform="matrix(1.00, 0.00, -0.00, -1.00, 262.4, 292.9)">e</text><text xml:space="preserve" font-family="GillSans-Light,Gill Sans" font-size="36.9" fill="#525252" transform="matrix(1.00, 0.00, -0.00, -1.00, 280.0, 292.9)">m</text><text xml:space="preserve" font-family="GillSans-Light,Gill Sans" font-size="36.9" fill="#525252" transform="matrix(1.00, 0.00, -0.00, -1.00, 308.5, 292.9)">a</text><text xml:space="preserve" font-family="GillSans-Light,Gill Sans" font-size="36.9" fill="#525252" transform="matrix(1.00, 0.00, -0.00, -1.00, 324.2, 292.9)">t</text><text xml:space="preserve" font-family="GillSans-Light,Gill Sans" font-size="36.9" fill="#525252" transform="matrix(1.00, 0.00, -0.00, -1.00, 335.3, 292.9)">i</text><text xml:space="preserve" font-family="GillSans-Light,Gill Sans" font-size="36.9" fill="#525252" transform="matrix(1.00, 0.00, -0.00, -1.00, 342.2, 292.9)">c</text><text xml:space="preserve" font-family="GillSans-Light,Gill Sans" font-size="36.9" fill="#525252" transform="matrix(1.00, 0.00, -0.00, -1.00, 357.6, 292.9)">s</text><text xml:space="preserve" font-family="LucidaGrande,Lucida Grande" font-size="36.9" fill="#525252" transform="matrix(1.00, 0.00, -0.00, -1.00, 370.7, 292.9)"> </text><text xml:space="preserve" font-family="GillSans-Light,Gill Sans" font-size="19.4" fill="#525252" transform="matrix(1.00, 0.00, -0.00, -1.00, 33.0, 266.8)">(</text><text xml:space="preserve" font-family="GillSans-Light,Gill Sans" font-size="19.4" fill="#525252" transform="matrix(1.00, 0.00, -0.00, -1.00, 39.4, 266.8)">C</text><text xml:space="preserve" font-family="GillSans-Light,Gill Sans" font-size="19.4" fill="#525252" transform="matrix(1.00, 0.00, -0.00, -1.00, 52.6, 266.8)">o</text><text xml:space="preserve" font-family="GillSans-Light,Gill Sans" font-size="19.4" fill="#525252" transform="matrix(1.00, 0.00, -0.00, -1.00, 63.1, 266.8)">m</text><text xml:space="preserve" font-family="GillSans-Light,Gill Sans" font-size="19.4" fill="#525252" transform="matrix(1.00, 0.00, -0.00, -1.00, 78.0, 266.8)">b</text><text xml:space="preserve" font-family="GillSans-Light,Gill Sans" font-size="19.4" fill="#525252" transform="matrix(1.00, 0.00, -0.00, -1.00, 87.9, 266.8)">i</text><text xml:space="preserve" font-family="GillSans-Light,Gill Sans" font-size="19.4" fill="#525252" transform="matrix(1.00, 0.00, -0.00, -1.00, 91.6, 266.8)">n</text><text xml:space="preserve" font-family="GillSans-Light,Gill Sans" font-size="19.4" fill="#525252" transform="matrix(1.00, 0.00, -0.00, -1.00, 101.1, 266.8)">a</text><text xml:space="preserve" font-family="GillSans-Light,Gill Sans" font-size="19.4" fill="#525252" transform="matrix(1.00, 0.00, -0.00, -1.00, 109.4, 266.8)">t</text><text xml:space="preserve" font-family="GillSans-Light,Gill Sans" font-size="19.4" fill="#525252" transform="matrix(1.00, 0.00, -0.00, -1.00, 115.2, 266.8)">o</text><text xml:space="preserve" font-family="GillSans-Light,Gill Sans" font-size="19.4" fill="#525252" transform="matrix(1.00, 0.00, -0.00, -1.00, 125.7, 266.8)">r</text><text xml:space="preserve" font-family="GillSans-Light,Gill Sans" font-size="19.4" fill="#525252" transform="matrix(1.00, 0.00, -0.00, -1.00, 132.7, 266.8)">i</text><text xml:space="preserve" font-family="GillSans-Light,Gill Sans" font-size="19.4" fill="#525252" transform="matrix(1.00, 0.00, -0.00, -1.00, 136.3, 266.8)">c</text><text xml:space="preserve" font-family="GillSans-Light,Gill Sans" font-size="19.4" fill="#525252" transform="matrix(1.00, 0.00, -0.00, -1.00, 144.4, 266.8)">s</text><text xml:space="preserve" font-family="GillSans-Light,Gill Sans" font-size="19.4" fill="#525252" transform="matrix(1.00, 0.00, -0.00, -1.00, 151.3, 266.8)">,</text><text xml:space="preserve" font-family="GillSans-Light,Gill Sans" font-size="19.4" fill="#525252" transform="matrix(1.00, 0.00, -0.00, -1.00, 153.1, 266.8)"> </text><text xml:space="preserve" font-family="GillSans-Light,Gill Sans" font-size="19.4" fill="#525252" transform="matrix(1.00, 0.00, -0.00, -1.00, 158.5, 266.8)">M</text><text xml:space="preserve" font-family="GillSans-Light,Gill Sans" font-size="19.4" fill="#525252" transform="matrix(1.00, 0.00, -0.00, -1.00, 173.7, 266.8)">o</text><text xml:space="preserve" font-family="GillSans-Light,Gill Sans" font-size="19.4" fill="#525252" transform="matrix(1.00, 0.00, -0.00, -1.00, 184.2, 266.8)">n</text><text xml:space="preserve" font-family="GillSans-Light,Gill Sans" font-size="19.4" fill="#525252" transform="matrix(1.00, 0.00, -0.00, -1.00, 193.7, 266.8)">t</text><text xml:space="preserve" font-family="GillSans-Light,Gill Sans" font-size="19.4" fill="#525252" transform="matrix(1.00, 0.00, -0.00, -1.00, 199.6, 266.8)">e</text><text xml:space="preserve" font-family="GillSans-Light,Gill Sans" font-size="19.4" fill="#525252" transform="matrix(1.00, 0.00, -0.00, -1.00, 208.8, 266.8)"> </text><text xml:space="preserve" font-family="GillSans-Light,Gill Sans" font-size="19.4" fill="#525252" transform="matrix(1.00, 0.00, -0.00, -1.00, 214.2, 266.8)">C</text><text xml:space="preserve" font-family="GillSans-Light,Gill Sans" font-size="19.4" fill="#525252" transform="matrix(1.00, 0.00, -0.00, -1.00, 227.4, 266.8)">a</text><text xml:space="preserve" font-family="GillSans-Light,Gill Sans" font-size="19.4" fill="#525252" transform="matrix(1.00, 0.00, -0.00, -1.00, 235.6, 266.8)">r</text><text xml:space="preserve" font-family="GillSans-Light,Gill Sans" font-size="19.4" fill="#525252" transform="matrix(1.00, 0.00, -0.00, -1.00, 242.9, 266.8)">l</text><text xml:space="preserve" font-family="GillSans-Light,Gill Sans" font-size="19.4" fill="#525252" transform="matrix(1.00, 0.00, -0.00, -1.00, 246.5, 266.8)">o</text><text xml:space="preserve" font-family="GillSans-Light,Gill Sans" font-size="19.4" fill="#525252" transform="matrix(1.00, 0.00, -0.00, -1.00, 257.0, 266.8)"> </text><text xml:space="preserve" font-family="GillSans-Light,Gill Sans" font-size="19.4" fill="#525252" transform="matrix(1.00, 0.00, -0.00, -1.00, 262.4, 266.8)">t</text><text xml:space="preserve" font-family="GillSans-Light,Gill Sans" font-size="19.4" fill="#525252" transform="matrix(1.00, 0.00, -0.00, -1.00, 268.3, 266.8)">e</text><text xml:space="preserve" font-family="GillSans-Light,Gill Sans" font-size="19.4" fill="#525252" transform="matrix(1.00, 0.00, -0.00, -1.00, 277.6, 266.8)">c</text><text xml:space="preserve" font-family="GillSans-Light,Gill Sans" font-size="19.4" fill="#525252" transform="matrix(1.00, 0.00, -0.00, -1.00, 285.6, 266.8)">h</text><text xml:space="preserve" font-family="GillSans-Light,Gill Sans" font-size="19.4" fill="#525252" transform="matrix(1.00, 0.00, -0.00, -1.00, 295.2, 266.8)">n</text><text xml:space="preserve" font-family="GillSans-Light,Gill Sans" font-size="19.4" fill="#525252" transform="matrix(1.00, 0.00, -0.00, -1.00, 304.7, 266.8)">i</text><text xml:space="preserve" font-family="GillSans-Light,Gill Sans" font-size="19.4" fill="#525252" transform="matrix(1.00, 0.00, -0.00, -1.00, 308.3, 266.8)">q</text><text xml:space="preserve" font-family="GillSans-Light,Gill Sans" font-size="19.4" fill="#525252" transform="matrix(1.00, 0.00, -0.00, -1.00, 318.2, 266.8)">u</text><text xml:space="preserve" font-family="GillSans-Light,Gill Sans" font-size="19.4" fill="#525252" transform="matrix(1.00, 0.00, -0.00, -1.00, 327.7, 266.8)">e</text><text xml:space="preserve" font-family="GillSans-Light,Gill Sans" font-size="19.4" fill="#525252" transform="matrix(1.00, 0.00, -0.00, -1.00, 337.0, 266.8)">s</text><text xml:space="preserve" font-family="GillSans-Light,Gill Sans" font-size="19.4" fill="#525252" transform="matrix(1.00, 0.00, -0.00, -1.00, 343.9, 266.8)">,</text><text xml:space="preserve" font-family="GillSans-Light,Gill Sans" font-size="19.4" fill="#525252" transform="matrix(1.00, 0.00, -0.00, -1.00, 345.8, 266.8)"> </text><text xml:space="preserve" font-family="GillSans-Light,Gill Sans" font-size="19.4" fill="#525252" transform="matrix(1.00, 0.00, -0.00, -1.00, 351.1, 266.8)">D</text><text xml:space="preserve" font-family="GillSans-Light,Gill Sans" font-size="19.4" fill="#525252" transform="matrix(1.00, 0.00, -0.00, -1.00, 365.5, 266.8)">N</text><text xml:space="preserve" font-family="GillSans-Light,Gill Sans" font-size="19.4" fill="#525252" transform="matrix(1.00, 0.00, -0.00, -1.00, 380.5, 266.8)">A</text><text xml:space="preserve" font-family="GillSans-Light,Gill Sans" font-size="19.4" fill="#525252" transform="matrix(1.00, 0.00, -0.00, -1.00, 393.4, 266.8)"> </text><text xml:space="preserve" font-family="GillSans-Light,Gill Sans" font-size="19.4" fill="#525252" transform="matrix(1.00, 0.00, -0.00, -1.00, 33.0, 244.8)">T</text><text xml:space="preserve" font-family="GillSans-Light,Gill Sans" font-size="19.4" fill="#525252" transform="matrix(1.00, 0.00, -0.00, -1.00, 41.4, 244.8)">o</text><text xml:space="preserve" font-family="GillSans-Light,Gill Sans" font-size="19.4" fill="#525252" transform="matrix(1.00, 0.00, -0.00, -1.00, 51.9, 244.8)">p</text><text xml:space="preserve" font-family="GillSans-Light,Gill Sans" font-size="19.4" fill="#525252" transform="matrix(1.00, 0.00, -0.00, -1.00, 61.8, 244.8)">o</text><text xml:space="preserve" font-family="GillSans-Light,Gill Sans" font-size="19.4" fill="#525252" transform="matrix(1.00, 0.00, -0.00, -1.00, 72.3, 244.8)">l</text><text xml:space="preserve" font-family="GillSans-Light,Gill Sans" font-size="19.4" fill="#525252" transform="matrix(1.00, 0.00, -0.00, -1.00, 75.9, 244.8)">o</text><text xml:space="preserve" font-family="GillSans-Light,Gill Sans" font-size="19.4" fill="#525252" transform="matrix(1.00, 0.00, -0.00, -1.00, 86.5, 244.8)">g</text><text xml:space="preserve" font-family="GillSans-Light,Gill Sans" font-size="19.4" fill="#525252" transform="matrix(1.00, 0.00, -0.00, -1.00, 94.7, 244.8)">y</text><text xml:space="preserve" font-family="GillSans-Light,Gill Sans" font-size="19.4" fill="#525252" transform="matrix(1.00, 0.00, -0.00, -1.00, 101.1, 244.8)">,</text><text xml:space="preserve" font-family="GillSans-Light,Gill Sans" font-size="19.4" fill="#525252" transform="matrix(1.00, 0.00, -0.00, -1.00, 103.0, 244.8)"> </text><text xml:space="preserve" font-family="GillSans-Light,Gill Sans" font-size="19.4" fill="#525252" transform="matrix(1.00, 0.00, -0.00, -1.00, 108.3, 244.8)">B</text><text xml:space="preserve" font-family="GillSans-Light,Gill Sans" font-size="19.4" fill="#525252" transform="matrix(1.00, 0.00, -0.00, -1.00, 118.6, 244.8)">r</text><text xml:space="preserve" font-family="GillSans-Light,Gill Sans" font-size="19.4" fill="#525252" transform="matrix(1.00, 0.00, -0.00, -1.00, 125.1, 244.8)">o</text><text xml:space="preserve" font-family="GillSans-Light,Gill Sans" font-size="19.4" fill="#525252" transform="matrix(1.00, 0.00, -0.00, -1.00, 135.3, 244.8)">w</text><text xml:space="preserve" font-family="GillSans-Light,Gill Sans" font-size="19.4" fill="#525252" transform="matrix(1.00, 0.00, -0.00, -1.00, 149.1, 244.8)">n</text><text xml:space="preserve" font-family="GillSans-Light,Gill Sans" font-size="19.4" fill="#525252" transform="matrix(1.00, 0.00, -0.00, -1.00, 158.6, 244.8)">i</text><text xml:space="preserve" font-family="GillSans-Light,Gill Sans" font-size="19.4" fill="#525252" transform="matrix(1.00, 0.00, -0.00, -1.00, 162.2, 244.8)">a</text><text xml:space="preserve" font-family="GillSans-Light,Gill Sans" font-size="19.4" fill="#525252" transform="matrix(1.00, 0.00, -0.00, -1.00, 170.5, 244.8)">n</text><text xml:space="preserve" font-family="GillSans-Light,Gill Sans" font-size="19.4" fill="#525252" transform="matrix(1.00, 0.00, -0.00, -1.00, 180.0, 244.8)"> </text><text xml:space="preserve" font-family="GillSans-Light,Gill Sans" font-size="19.4" fill="#525252" transform="matrix(1.00, 0.00, -0.00, -1.00, 185.4, 244.8)">D</text><text xml:space="preserve" font-family="GillSans-Light,Gill Sans" font-size="19.4" fill="#525252" transform="matrix(1.00, 0.00, -0.00, -1.00, 199.8, 244.8)">y</text><text xml:space="preserve" font-family="GillSans-Light,Gill Sans" font-size="19.4" fill="#525252" transform="matrix(1.00, 0.00, -0.00, -1.00, 207.8, 244.8)">n</text><text xml:space="preserve" font-family="GillSans-Light,Gill Sans" font-size="19.4" fill="#525252" transform="matrix(1.00, 0.00, -0.00, -1.00, 217.4, 244.8)">a</text><text xml:space="preserve" font-family="GillSans-Light,Gill Sans" font-size="19.4" fill="#525252" transform="matrix(1.00, 0.00, -0.00, -1.00, 225.6, 244.8)">m</text><text xml:space="preserve" font-family="GillSans-Light,Gill Sans" font-size="19.4" fill="#525252" transform="matrix(1.00, 0.00, -0.00, -1.00, 240.6, 244.8)">i</text><text xml:space="preserve" font-family="GillSans-Light,Gill Sans" font-size="19.4" fill="#525252" transform="matrix(1.00, 0.00, -0.00, -1.00, 244.2, 244.8)">c</text><text xml:space="preserve" font-family="GillSans-Light,Gill Sans" font-size="19.4" fill="#525252" transform="matrix(1.00, 0.00, -0.00, -1.00, 252.3, 244.8)">s</text><text xml:space="preserve" font-family="GillSans-Light,Gill Sans" font-size="19.4" fill="#525252" transform="matrix(1.00, 0.00, -0.00, -1.00, 259.2, 244.8)">,</text><text xml:space="preserve" font-family="GillSans-Light,Gill Sans" font-size="19.4" fill="#525252" transform="matrix(1.00, 0.00, -0.00, -1.00, 261.1, 244.8)"> </text><text xml:space="preserve" font-family="GillSans-Light,Gill Sans" font-size="19.4" fill="#525252" transform="matrix(1.00, 0.00, -0.00, -1.00, 266.5, 244.8)">G</text><text xml:space="preserve" font-family="GillSans-Light,Gill Sans" font-size="19.4" fill="#525252" transform="matrix(1.00, 0.00, -0.00, -1.00, 280.4, 244.8)">P</text><text xml:space="preserve" font-family="GillSans-Light,Gill Sans" font-size="19.4" fill="#525252" transform="matrix(1.00, 0.00, -0.00, -1.00, 290.3, 244.8)">U</text><text xml:space="preserve" font-family="GillSans-Light,Gill Sans" font-size="19.4" fill="#525252" transform="matrix(1.00, 0.00, -0.00, -1.00, 303.8, 244.8)"> </text><text xml:space="preserve" font-family="GillSans-Light,Gill Sans" font-size="19.4" fill="#525252" transform="matrix(1.00, 0.00, -0.00, -1.00, 309.2, 244.8)">c</text><text xml:space="preserve" font-family="GillSans-Light,Gill Sans" font-size="19.4" fill="#525252" transform="matrix(1.00, 0.00, -0.00, -1.00, 317.3, 244.8)">o</text><text xml:space="preserve" font-family="GillSans-Light,Gill Sans" font-size="19.4" fill="#525252" transform="matrix(1.00, 0.00, -0.00, -1.00, 327.8, 244.8)">m</text><text xml:space="preserve" font-family="GillSans-Light,Gill Sans" font-size="19.4" fill="#525252" transform="matrix(1.00, 0.00, -0.00, -1.00, 342.8, 244.8)">p</text><text xml:space="preserve" font-family="GillSans-Light,Gill Sans" font-size="19.4" fill="#525252" transform="matrix(1.00, 0.00, -0.00, -1.00, 352.7, 244.8)">u</text><text xml:space="preserve" font-family="GillSans-Light,Gill Sans" font-size="19.4" fill="#525252" transform="matrix(1.00, 0.00, -0.00, -1.00, 362.2, 244.8)">t</text><text xml:space="preserve" font-family="GillSans-Light,Gill Sans" font-size="19.4" fill="#525252" transform="matrix(1.00, 0.00, -0.00, -1.00, 368.0, 244.8)">i</text><text xml:space="preserve" font-family="GillSans-Light,Gill Sans" font-size="19.4" fill="#525252" transform="matrix(1.00, 0.00, -0.00, -1.00, 371.7, 244.8)">n</text><text xml:space="preserve" font-family="GillSans-Light,Gill Sans" font-size="19.4" fill="#525252" transform="matrix(1.00, 0.00, -0.00, -1.00, 381.2, 244.8)">g</text><text xml:space="preserve" font-family="GillSans-Light,Gill Sans" font-size="19.4" fill="#525252" transform="matrix(1.00, 0.00, -0.00, -1.00, 389.5, 244.8)">)</text><text xml:space="preserve" font-family="GillSans-Light,Gill Sans" font-size="30.2" fill="#525252" transform="matrix(1.00, 0.00, -0.00, -1.00, 0.0, 172.5)">•</text><text xml:space="preserve" font-family="GillSans-Light,Gill Sans" font-size="36.9" fill="#525252" transform="matrix(1.00, 0.00, -0.00, -1.00, 33.0, 170.1)">D</text><text xml:space="preserve" font-family="GillSans-Light,Gill Sans" font-size="36.9" fill="#525252" transform="matrix(1.00, 0.00, -0.00, -1.00, 60.3, 170.1)">e</text><text xml:space="preserve" font-family="GillSans-Light,Gill Sans" font-size="36.9" fill="#525252" transform="matrix(1.00, 0.00, -0.00, -1.00, 77.9, 170.1)">v</text><text xml:space="preserve" font-family="GillSans-Light,Gill Sans" font-size="36.9" fill="#525252" transform="matrix(1.00, 0.00, -0.00, -1.00, 93.1, 170.1)">e</text><text xml:space="preserve" font-family="GillSans-Light,Gill Sans" font-size="36.9" fill="#525252" transform="matrix(1.00, 0.00, -0.00, -1.00, 110.7, 170.1)">l</text><text xml:space="preserve" font-family="GillSans-Light,Gill Sans" font-size="36.9" fill="#525252" transform="matrix(1.00, 0.00, -0.00, -1.00, 117.7, 170.1)">o</text><text xml:space="preserve" font-family="GillSans-Light,Gill Sans" font-size="36.9" fill="#525252" transform="matrix(1.00, 0.00, -0.00, -1.00, 137.7, 170.1)">p</text><text xml:space="preserve" font-family="GillSans-Light,Gill Sans" font-size="36.9" fill="#525252" transform="matrix(1.00, 0.00, -0.00, -1.00, 156.4, 170.1)">e</text><text xml:space="preserve" font-family="GillSans-Light,Gill Sans" font-size="36.9" fill="#525252" transform="matrix(1.00, 0.00, -0.00, -1.00, 174.1, 170.1)">d</text><text xml:space="preserve" font-family="GillSans-Light,Gill Sans" font-size="36.9" fill="#525252" transform="matrix(1.00, 0.00, -0.00, -1.00, 192.9, 170.1)"> </text><text xml:space="preserve" font-family="GillSans-Light,Gill Sans" font-size="36.9" fill="#525252" transform="matrix(1.00, 0.00, -0.00, -1.00, 203.1, 170.1)">s</text><text xml:space="preserve" font-family="GillSans-Light,Gill Sans" font-size="36.9" fill="#525252" transform="matrix(1.00, 0.00, -0.00, -1.00, 216.2, 170.1)">o</text><text xml:space="preserve" font-family="GillSans-Light,Gill Sans" font-size="36.9" fill="#525252" transform="matrix(1.00, 0.00, -0.00, -1.00, 236.1, 170.1)">f</text><text xml:space="preserve" font-family="GillSans-Light,Gill Sans" font-size="36.9" fill="#525252" transform="matrix(1.00, 0.00, -0.00, -1.00, 245.0, 170.1)">t</text><text xml:space="preserve" font-family="GillSans-Light,Gill Sans" font-size="36.9" fill="#525252" transform="matrix(1.00, 0.00, -0.00, -1.00, 256.1, 170.1)">w</text><text xml:space="preserve" font-family="GillSans-Light,Gill Sans" font-size="36.9" fill="#525252" transform="matrix(1.00, 0.00, -0.00, -1.00, 282.2, 170.1)">a</text><text xml:space="preserve" font-family="GillSans-Light,Gill Sans" font-size="36.9" fill="#525252" transform="matrix(1.00, 0.00, -0.00, -1.00, 297.9, 170.1)">r</text><text xml:space="preserve" font-family="GillSans-Light,Gill Sans" font-size="36.9" fill="#525252" transform="matrix(1.00, 0.00, -0.00, -1.00, 310.2, 170.1)">e</text><text xml:space="preserve" font-family="GillSans-Light,Gill Sans" font-size="36.9" fill="#525252" transform="matrix(1.00, 0.00, -0.00, -1.00, 327.9, 170.1)"> </text><text xml:space="preserve" font-family="GillSans-Light,Gill Sans" font-size="36.9" fill="#525252" transform="matrix(1.00, 0.00, -0.00, -1.00, 338.1, 170.1)">f</text><text xml:space="preserve" font-family="GillSans-Light,Gill Sans" font-size="36.9" fill="#525252" transform="matrix(1.00, 0.00, -0.00, -1.00, 346.6, 170.1)">o</text><text xml:space="preserve" font-family="GillSans-Light,Gill Sans" font-size="36.9" fill="#525252" transform="matrix(1.00, 0.00, -0.00, -1.00, 366.6, 170.1)">r</text><text xml:space="preserve" font-family="GillSans-Light,Gill Sans" font-size="36.9" fill="#525252" transform="matrix(1.00, 0.00, -0.00, -1.00, 378.9, 170.1)"> </text><text xml:space="preserve" font-family="GillSans-Light,Gill Sans" font-size="36.9" fill="#525252" transform="matrix(1.00, 0.00, -0.00, -1.00, 33.0, 128.1)">s</text><text xml:space="preserve" font-family="GillSans-Light,Gill Sans" font-size="36.9" fill="#525252" transform="matrix(1.00, 0.00, -0.00, -1.00, 46.0, 128.1)">i</text><text xml:space="preserve" font-family="GillSans-Light,Gill Sans" font-size="36.9" fill="#525252" transform="matrix(1.00, 0.00, -0.00, -1.00, 53.0, 128.1)">m</text><text xml:space="preserve" font-family="GillSans-Light,Gill Sans" font-size="36.9" fill="#525252" transform="matrix(1.00, 0.00, -0.00, -1.00, 80.8, 128.1)">u</text><text xml:space="preserve" font-family="GillSans-Light,Gill Sans" font-size="36.9" fill="#525252" transform="matrix(1.00, 0.00, -0.00, -1.00, 98.9, 128.1)">l</text><text xml:space="preserve" font-family="GillSans-Light,Gill Sans" font-size="36.9" fill="#525252" transform="matrix(1.00, 0.00, -0.00, -1.00, 105.8, 128.1)">a</text><text xml:space="preserve" font-family="GillSans-Light,Gill Sans" font-size="36.9" fill="#525252" transform="matrix(1.00, 0.00, -0.00, -1.00, 121.5, 128.1)">t</text><text xml:space="preserve" font-family="GillSans-Light,Gill Sans" font-size="36.9" fill="#525252" transform="matrix(1.00, 0.00, -0.00, -1.00, 132.7, 128.1)">i</text><text xml:space="preserve" font-family="GillSans-Light,Gill Sans" font-size="36.9" fill="#525252" transform="matrix(1.00, 0.00, -0.00, -1.00, 139.6, 128.1)">n</text><text xml:space="preserve" font-family="GillSans-Light,Gill Sans" font-size="36.9" fill="#525252" transform="matrix(1.00, 0.00, -0.00, -1.00, 157.7, 128.1)">g</text><text xml:space="preserve" font-family="GillSans-Light,Gill Sans" font-size="36.9" fill="#525252" transform="matrix(1.00, 0.00, -0.00, -1.00, 173.4, 128.1)"> </text><text xml:space="preserve" font-family="GillSans-Light,Gill Sans" font-size="36.9" fill="#525252" transform="matrix(1.00, 0.00, -0.00, -1.00, 183.6, 128.1)">D</text><text xml:space="preserve" font-family="GillSans-Light,Gill Sans" font-size="36.9" fill="#525252" transform="matrix(1.00, 0.00, -0.00, -1.00, 210.9, 128.1)">N</text><text xml:space="preserve" font-family="GillSans-Light,Gill Sans" font-size="36.9" fill="#525252" transform="matrix(1.00, 0.00, -0.00, -1.00, 239.3, 128.1)">A</text><text xml:space="preserve" font-family="LucidaGrande,Lucida Grande" font-size="36.9" fill="#525252" transform="matrix(1.00, 0.00, -0.00, -1.00, 263.9, 128.1)"> </text><text xml:space="preserve" font-family="GillSans-Light,Gill Sans" font-size="36.9" fill="#525252" transform="matrix(1.00, 0.00, -0.00, -1.00, 33.0, 86.1)">d</text><text xml:space="preserve" font-family="GillSans-Light,Gill Sans" font-size="36.9" fill="#525252" transform="matrix(1.00, 0.00, -0.00, -1.00, 51.8, 86.1)">y</text><text xml:space="preserve" font-family="GillSans-Light,Gill Sans" font-size="36.9" fill="#525252" transform="matrix(1.00, 0.00, -0.00, -1.00, 67.1, 86.1)">n</text><text xml:space="preserve" font-family="GillSans-Light,Gill Sans" font-size="36.9" fill="#525252" transform="matrix(1.00, 0.00, -0.00, -1.00, 85.2, 86.1)">a</text><text xml:space="preserve" font-family="GillSans-Light,Gill Sans" font-size="36.9" fill="#525252" transform="matrix(1.00, 0.00, -0.00, -1.00, 100.9, 86.1)">m</text><text xml:space="preserve" font-family="GillSans-Light,Gill Sans" font-size="36.9" fill="#525252" transform="matrix(1.00, 0.00, -0.00, -1.00, 129.4, 86.1)">i</text><text xml:space="preserve" font-family="GillSans-Light,Gill Sans" font-size="36.9" fill="#525252" transform="matrix(1.00, 0.00, -0.00, -1.00, 136.3, 86.1)">c</text><text xml:space="preserve" font-family="GillSans-Light,Gill Sans" font-size="36.9" fill="#525252" transform="matrix(1.00, 0.00, -0.00, -1.00, 151.7, 86.1)">s</text><text xml:space="preserve" font-family="GillSans-Light,Gill Sans" font-size="36.9" fill="#525252" transform="matrix(1.00, 0.00, -0.00, -1.00, 164.7, 86.1)"> </text><text xml:space="preserve" font-family="GillSans-Light,Gill Sans" font-size="36.9" fill="#525252" transform="matrix(1.00, 0.00, -0.00, -1.00, 174.9, 86.1)">i</text><text xml:space="preserve" font-family="GillSans-Light,Gill Sans" font-size="36.9" fill="#525252" transform="matrix(1.00, 0.00, -0.00, -1.00, 181.9, 86.1)">n</text><text xml:space="preserve" font-family="LucidaGrande,Lucida Grande" font-size="36.9" fill="#525252" transform="matrix(1.00, 0.00, -0.00, -1.00, 199.9, 86.1)"> </text><text xml:space="preserve" font-family="GillSans-Light,Gill Sans" font-size="36.9" fill="#525252" transform="matrix(1.00, 0.00, -0.00, -1.00, 33.0, 44.1)">O</text><text xml:space="preserve" font-family="GillSans-Light,Gill Sans" font-size="36.9" fill="#525252" transform="matrix(1.00, 0.00, -0.00, -1.00, 63.3, 44.1)">p</text><text xml:space="preserve" font-family="GillSans-Light,Gill Sans" font-size="36.9" fill="#525252" transform="matrix(1.00, 0.00, -0.00, -1.00, 82.1, 44.1)">e</text><text xml:space="preserve" font-family="GillSans-Light,Gill Sans" font-size="36.9" fill="#525252" transform="matrix(1.00, 0.00, -0.00, -1.00, 99.8, 44.1)">n</text><text xml:space="preserve" font-family="GillSans-Light,Gill Sans" font-size="36.9" fill="#525252" transform="matrix(1.00, 0.00, -0.00, -1.00, 117.8, 44.1)">C</text><text xml:space="preserve" font-family="GillSans-Light,Gill Sans" font-size="36.9" fill="#525252" transform="matrix(1.00, 0.00, -0.00, -1.00, 142.8, 44.1)">L</text><text xml:space="preserve" font-family="GillSans-Light,Gill Sans" font-size="36.9" fill="#525252" transform="matrix(1.00, 0.00, -0.00, -1.00, 160.1, 44.1)">/</text><text xml:space="preserve" font-family="GillSans-Light,Gill Sans" font-size="36.9" fill="#525252" transform="matrix(1.00, 0.00, -0.00, -1.00, 170.4, 44.1)">P</text><text xml:space="preserve" font-family="GillSans-Light,Gill Sans" font-size="36.9" fill="#525252" transform="matrix(1.00, 0.00, -0.00, -1.00, 189.2, 44.1)">y</text><text xml:space="preserve" font-family="GillSans-Light,Gill Sans" font-size="36.9" fill="#525252" transform="matrix(1.00, 0.00, -0.00, -1.00, 204.6, 44.1)">t</text><text xml:space="preserve" font-family="GillSans-Light,Gill Sans" font-size="36.9" fill="#525252" transform="matrix(1.00, 0.00, -0.00, -1.00, 215.7, 44.1)">h</text><text xml:space="preserve" font-family="GillSans-Light,Gill Sans" font-size="36.9" fill="#525252" transform="matrix(1.00, 0.00, -0.00, -1.00, 233.8, 44.1)">o</text><text xml:space="preserve" font-family="GillSans-Light,Gill Sans" font-size="36.9" fill="#525252" transform="matrix(1.00, 0.00, -0.00, -1.00, 253.8, 44.1)">n</text><text xml:space="preserve" font-family="LucidaGrande,Lucida Grande" font-size="36.9" fill="#525252" transform="matrix(1.00, 0.00, -0.00, -1.00, 271.8, 44.1)"> </text><text xml:space="preserve" font-family="GillSans-Light,Gill Sans" font-size="36.9" fill="#525252" transform="matrix(1.00, 0.00, -0.00, -1.00, 33.0, 2.1)">o</text><text xml:space="preserve" font-family="GillSans-Light,Gill Sans" font-size="36.9" fill="#525252" transform="matrix(1.00, 0.00, -0.00, -1.00, 53.0, 2.1)">n</text><text xml:space="preserve" font-family="GillSans-Light,Gill Sans" font-size="36.9" fill="#525252" transform="matrix(1.00, 0.00, -0.00, -1.00, 71.0, 2.1)"> </text><text xml:space="preserve" font-family="GillSans-Light,Gill Sans" font-size="36.9" fill="#525252" transform="matrix(1.00, 0.00, -0.00, -1.00, 81.3, 2.1)">G</text><text xml:space="preserve" font-family="GillSans-Light,Gill Sans" font-size="36.9" fill="#525252" transform="matrix(1.00, 0.00, -0.00, -1.00, 107.8, 2.1)">P</text><text xml:space="preserve" font-family="GillSans-Light,Gill Sans" font-size="36.9" fill="#525252" transform="matrix(1.00, 0.00, -0.00, -1.00, 126.6, 2.1)">U</text><text xml:space="preserve" font-family="GillSans-Light,Gill Sans" font-size="36.9" fill="#525252" transform="matrix(1.00, 0.00, -0.00, -1.00, 152.3, 2.1)">s</text><text xml:space="preserve" font-family="GillSans-Light,Gill Sans" font-size="36.9" fill="#525252" transform="matrix(1.00, 0.00, -0.00, -1.00, 165.4, 2.1)"> </text></g></svg>