<?xml version="1.0" encoding="UTF-8" standalone="no"?><svg xmlns="http://www.w3.org/2000/svg" xmlns:xlink="http://www.w3.org/1999/xlink" clip-rule="evenodd" stroke-miterlimit="10" viewBox="0 0 599 147"><desc>SVG generated by Keynote</desc><defs></defs><g transform="matrix(1.00, 0.00, -0.00, -1.00, 0.0, 147.0)"><g><clipPath id="clip0x6180008a7e60"><path d="M 0.3 71.6 L 581.7 71.6 L 581.7 146.0 L 0.3 146.0 Z M 0.3 71.6 "></path></clipPath><g clip-path="url(#clip0x6180008a7e60)"><path d="M 580.6 138.9 C 580.5 137.9 580.5 136.8 580.5 135.0 C 580.5 135.8 580.4 136.3 580.3 136.2 C 580.4 137.7 580.4 139.7 580.4 142.6 C 580.5 142.6 580.4 141.1 580.5 140.1 C 580.5 138.8 580.5 139.2 580.6 138.9 C 580.6 138.9 580.6 138.9 580.6 138.9 Z M 305.9 73.1 C 308.3 73.2 305.7 73.0 304.8 73.0 C 304.7 73.0 304.5 73.0 303.6 73.0 C 303.4 72.9 305.5 72.8 307.1 72.8 C 313.7 72.9 308.8 73.2 305.9 73.1 C 305.9 73.1 305.9 73.1 305.9 73.1 Z M 2.0 86.2 C 2.0 91.5 2.2 86.0 2.2 85.2 C 2.3 87.7 2.6 85.9 2.6 89.1 C 2.5 89.7 2.4 90.8 2.3 91.3 C 2.3 89.9 2.4 87.9 2.3 87.6 C 2.3 89.5 2.3 92.1 2.2 92.4 C 2.2 88.2 2.0 91.6 1.9 92.2 C 2.0 88.5 1.8 87.2 2.0 86.2 C 2.0 86.2 2.0 86.2 2.0 86.2 Z M 211.4 144.0 C 209.9 144.0 208.6 144.0 208.9 143.9 C 210.5 143.9 211.6 143.9 212.5 144.0 C 212.7 143.9 212.2 143.8 213.6 143.8 C 215.2 143.9 214.5 144.2 213.8 144.3 C 213.6 144.1 208.3 144.2 211.4 144.0 C 211.4 144.0 211.4 144.0 211.4 144.0 Z M 344.1 143.7 C 348.6 143.8 344.1 143.5 348.7 143.5 C 348.6 143.7 349.4 143.9 346.5 143.9 C 346.2 143.8 344.5 143.8 344.1 143.7 C 344.1 143.7 344.1 143.7 344.1 143.7 Z M 123.7 74.6 C 123.6 74.5 120.4 74.6 121.2 74.4 C 122.8 74.4 124.3 74.4 125.9 74.4 C 126.3 74.5 125.8 74.6 123.7 74.6 C 123.7 74.6 123.7 74.6 123.7 74.6 Z M 3.7 123.1 C 3.5 128.5 3.8 134.3 3.6 132.6 C 3.4 134.6 3.1 128.6 3.3 128.9 C 3.5 128.4 3.7 118.8 3.7 123.1 C 3.7 123.1 3.7 123.1 3.7 123.1 Z M 278.9 76.3 C 273.3 76.1 274.4 76.6 270.8 76.4 C 272.0 76.4 272.6 76.3 273.0 76.3 C 272.1 76.3 270.8 76.3 270.8 76.2 C 273.4 76.2 276.6 76.1 278.9 76.3 C 278.9 76.3 278.9 76.3 278.9 76.3 Z M 505.7 144.5 C 504.8 144.5 504.4 144.6 504.6 144.6 C 500.9 144.6 501.1 144.7 498.7 144.6 C 498.4 144.4 501.6 144.5 504.5 144.5 C 504.5 144.5 505.4 144.4 505.7 144.5 C 505.7 144.5 505.7 144.5 505.7 144.5 Z M 401.7 143.8 C 401.9 144.0 404.1 144.0 400.7 144.1 C 396.6 143.9 400.0 143.7 403.9 143.6 C 403.8 143.5 403.8 143.4 403.7 143.4 C 402.1 143.4 401.1 143.3 400.1 143.3 C 399.6 143.6 396.7 143.1 390.7 143.3 C 393.5 143.1 390.3 142.9 394.1 143.0 C 393.0 142.8 395.6 142.9 395.0 142.7 C 393.5 142.8 389.5 142.8 390.6 143.0 C 388.5 143.0 386.9 143.0 385.8 142.9 C 384.2 142.8 389.6 142.9 387.9 142.7 C 386.8 142.7 386.5 142.7 385.6 142.7 C 385.4 142.7 386.0 142.8 384.6 142.8 C 380.8 142.8 385.1 142.6 379.8 142.6 C 379.5 142.7 381.1 142.7 381.1 142.8 C 378.7 142.9 378.7 142.8 376.4 142.9 C 375.9 142.8 378.0 142.7 376.3 142.7 C 375.0 143.0 371.3 142.5 368.1 142.8 C 370.6 143.2 367.5 142.7 364.7 143.1 C 364.0 143.0 366.0 142.7 363.4 142.7 C 364.6 143.2 354.0 143.0 362.7 143.4 C 358.2 143.4 356.9 143.8 360.5 143.9 C 352.7 143.7 355.3 144.0 352.4 144.0 C 349.4 144.0 353.9 143.9 352.2 143.8 C 355.4 143.8 354.6 143.7 356.9 143.8 C 356.9 143.7 357.4 143.7 358.1 143.6 C 354.9 143.7 351.0 143.5 353.2 143.3 C 354.8 143.3 353.4 143.5 355.6 143.5 C 354.6 143.2 357.9 143.5 357.9 143.4 C 356.3 143.1 360.7 142.9 356.4 142.9 C 356.4 143.0 356.5 143.1 356.6 143.2 C 355.4 143.2 354.3 143.2 353.1 143.2 C 352.0 143.0 352.7 142.9 351.6 142.8 C 349.7 142.8 348.7 142.9 348.2 142.9 C 350.6 143.0 353.6 143.1 349.6 143.2 C 350.8 142.8 343.9 143.1 347.0 142.9 C 342.6 142.8 340.6 143.1 340.0 142.8 C 337.7 142.8 339.3 143.0 336.5 143.0 C 332.1 142.8 333.0 143.1 327.1 142.9 C 326.6 143.2 326.5 142.9 324.7 142.9 C 324.7 143.0 324.8 143.1 324.9 143.2 C 322.7 143.0 318.0 142.9 313.1 143.1 C 311.9 143.1 312.7 142.9 309.5 142.9 C 306.2 143.2 301.9 142.9 298.0 143.2 C 297.5 143.0 294.7 143.0 293.2 143.1 C 292.5 143.0 294.4 142.8 291.8 142.8 C 290.2 143.0 293.3 143.0 289.7 143.1 C 289.9 142.9 286.3 143.3 286.1 143.1 C 287.2 143.0 288.5 142.9 289.6 142.9 C 288.0 142.9 288.4 142.8 287.1 142.8 C 287.5 143.0 284.5 142.8 283.6 142.8 C 283.7 142.9 283.4 143.0 282.5 143.0 C 280.5 143.0 278.9 143.0 277.9 143.1 C 275.2 143.0 279.3 142.9 276.6 142.9 C 275.6 143.4 272.7 142.8 267.4 143.1 C 266.0 143.0 263.7 142.9 260.2 142.9 C 259.9 143.0 263.6 143.0 263.8 143.1 C 258.6 143.0 264.8 143.2 261.4 143.2 C 254.1 143.1 249.3 143.1 241.4 142.9 C 241.6 143.1 235.6 143.2 235.7 143.1 C 237.3 143.1 232.3 142.9 229.7 142.9 C 229.2 143.2 225.4 143.5 225.2 143.6 C 224.2 143.5 224.5 143.4 223.9 143.2 C 219.5 143.1 217.3 143.4 214.5 143.1 C 214.7 143.2 212.7 143.3 211.0 143.3 C 211.4 143.2 212.4 143.1 213.3 142.9 C 211.0 143.0 210.6 142.9 208.6 142.9 C 206.7 143.4 203.0 142.8 201.6 143.2 C 198.3 143.3 198.8 143.1 195.7 143.1 C 195.8 143.2 195.5 143.3 194.6 143.3 C 196.7 143.3 198.1 143.1 199.3 143.3 C 194.8 143.4 208.1 143.8 200.7 144.0 C 200.5 143.9 201.1 143.8 199.5 143.8 C 195.3 143.9 197.9 144.0 199.6 144.0 C 196.7 144.1 193.7 144.0 196.1 144.3 C 189.6 144.3 193.7 144.2 191.3 144.1 C 179.7 144.2 165.0 144.3 149.0 144.1 C 148.5 144.3 140.0 144.1 137.2 144.0 C 132.8 144.2 128.1 144.2 126.6 144.0 C 125.9 144.2 121.1 143.8 120.7 144.0 C 122.6 144.0 123.9 144.1 122.0 144.1 C 115.4 144.0 105.7 144.0 101.9 144.1 C 99.6 143.9 95.4 144.0 92.5 144.1 C 92.0 144.0 94.3 143.9 92.5 143.9 C 91.9 144.0 85.9 144.2 84.4 144.0 C 86.2 144.1 88.2 143.8 85.5 143.8 C 85.5 143.9 82.3 143.9 83.1 144.0 C 79.2 143.9 76.9 144.1 73.7 144.0 C 76.3 143.9 77.9 143.9 78.4 143.7 C 76.1 143.8 74.4 143.9 72.5 143.7 C 73.0 144.0 69.3 143.8 65.6 144.0 C 64.5 143.9 63.7 143.8 60.7 143.8 C 59.2 143.9 65.4 144.0 62.0 144.0 C 62.0 143.9 58.8 143.8 59.6 144.0 C 55.6 143.9 53.4 144.1 50.2 143.9 C 54.3 144.0 51.2 143.7 50.2 143.7 C 49.3 143.7 47.9 143.7 47.9 143.7 C 47.9 143.8 50.0 143.8 50.2 143.8 C 47.3 143.8 46.5 144.1 45.5 143.9 C 46.8 143.9 47.0 143.8 45.5 143.8 C 45.2 144.1 36.8 143.9 39.6 143.7 C 39.6 143.8 42.8 143.8 43.2 143.7 C 42.3 143.6 37.5 143.7 38.5 143.5 C 41.2 143.5 41.0 143.7 44.3 143.6 C 44.7 143.5 46.6 143.4 47.9 143.4 C 42.6 143.4 41.5 143.6 40.8 143.4 C 38.5 143.4 39.9 143.6 36.1 143.5 C 30.7 143.5 35.1 143.3 33.8 143.2 C 29.0 143.3 30.5 143.6 32.5 143.8 C 28.8 143.8 27.6 143.9 23.1 143.8 C 23.4 143.7 23.9 143.6 25.5 143.6 C 25.7 143.7 29.4 143.8 29.1 143.7 C 28.7 143.4 25.6 143.3 20.8 143.2 C 22.0 143.5 22.1 143.4 17.3 143.4 C 18.1 143.6 15.0 143.3 14.9 143.5 C 15.1 143.6 16.8 143.6 18.4 143.5 C 18.3 143.7 17.8 143.7 16.1 143.8 C 15.1 143.7 14.3 143.8 11.5 143.7 C 11.2 143.6 13.3 143.5 13.7 143.4 C 12.1 143.4 11.8 143.5 10.2 143.5 C 8.8 143.4 8.9 143.1 9.0 142.9 C 10.9 142.8 13.7 142.8 11.4 142.7 C 18.3 142.7 11.1 143.0 13.7 143.0 C 16.6 142.8 15.0 143.1 19.6 143.1 C 20.9 143.1 21.4 143.0 22.0 142.9 C 21.6 142.9 19.0 142.7 22.0 142.7 C 22.7 142.8 24.3 142.9 26.7 142.9 C 26.7 142.9 21.7 142.8 26.7 142.8 C 29.1 142.8 26.9 143.0 30.2 143.0 C 30.2 142.9 31.1 142.9 31.3 142.9 C 26.5 142.9 32.3 142.7 29.0 142.6 C 33.2 142.5 29.7 142.8 32.5 142.8 C 32.6 142.7 37.1 142.9 37.2 142.7 C 35.5 142.8 32.0 142.8 32.5 142.6 C 35.6 142.6 49.8 142.5 44.3 142.8 C 46.3 142.6 56.7 142.4 55.9 142.5 C 52.8 142.5 53.0 142.6 52.5 142.8 C 58.3 142.5 61.3 142.7 67.7 142.5 C 60.7 142.4 65.9 142.1 61.8 142.0 C 60.0 142.0 57.5 142.0 57.0 142.0 C 57.8 142.2 60.7 142.1 61.8 142.0 C 61.8 142.2 61.8 142.4 61.9 142.5 C 54.2 142.3 50.1 142.5 46.5 142.5 C 49.6 142.4 40.7 142.2 44.2 142.2 C 45.7 142.3 49.4 142.3 52.5 142.3 C 52.5 142.3 52.5 142.2 52.5 142.2 C 53.8 142.2 55.8 142.2 55.9 142.1 C 51.7 142.1 49.4 142.0 46.5 142.1 C 46.5 142.1 46.5 142.0 46.5 142.0 C 45.8 142.0 45.1 142.0 45.4 141.9 C 46.7 141.9 48.7 141.9 48.9 141.9 C 45.8 141.8 45.2 141.6 41.8 141.6 C 42.6 141.4 38.0 141.2 43.0 141.1 C 43.8 141.3 46.6 141.3 46.5 141.4 C 47.9 141.5 50.9 141.5 52.4 141.4 C 50.9 141.3 47.9 141.2 47.7 141.0 C 50.1 141.0 52.0 140.9 53.5 141.1 C 48.5 141.2 56.3 141.2 58.2 141.4 C 57.6 141.4 56.5 141.3 55.8 141.2 C 59.7 141.2 61.5 141.3 61.7 141.1 C 66.4 141.0 65.4 141.2 68.7 141.2 C 66.5 141.0 70.8 141.1 68.6 140.8 C 74.1 140.8 70.3 141.1 72.2 141.1 C 73.9 141.1 74.1 141.0 75.7 141.0 C 78.3 141.1 83.3 141.1 84.0 141.3 C 86.2 141.3 86.5 141.4 88.7 141.4 C 89.2 141.3 89.9 141.2 90.9 141.2 C 91.3 141.3 92.9 141.3 93.3 141.3 C 87.2 141.0 89.0 141.0 82.7 140.8 C 82.2 140.9 81.3 140.9 82.7 141.0 C 78.4 141.0 77.1 140.9 73.3 140.9 C 72.9 140.8 72.0 140.5 68.6 140.7 C 69.4 140.5 68.5 140.4 69.8 140.4 C 71.7 140.5 74.2 140.5 76.8 140.6 C 77.0 140.5 76.6 140.4 77.9 140.4 C 79.2 140.5 81.1 140.6 82.7 140.5 C 82.7 140.6 82.2 140.6 81.5 140.7 C 87.3 140.7 85.2 140.5 89.7 140.6 C 89.0 140.5 86.1 140.5 88.5 140.4 C 92.5 140.3 93.4 140.4 95.5 140.5 C 95.8 140.4 95.6 140.4 96.7 140.4 C 99.6 140.5 90.5 140.7 95.6 141.0 C 95.9 140.8 100.8 140.8 101.5 141.0 C 99.9 141.1 97.0 140.9 96.8 141.0 C 105.7 141.0 97.1 141.3 106.2 141.4 C 106.2 141.3 106.2 141.2 106.2 141.1 C 102.6 141.2 102.4 141.0 102.6 140.8 C 99.4 140.8 98.1 140.6 95.5 140.7 C 96.5 140.4 98.1 140.7 101.5 140.7 C 101.3 140.5 98.3 140.5 97.9 140.4 C 105.4 140.5 107.0 140.3 114.2 140.5 C 112.4 140.3 118.2 140.5 117.7 140.4 C 111.4 140.4 113.9 139.9 112.9 139.8 C 108.8 139.9 110.7 140.2 108.3 140.3 C 107.2 140.1 107.7 140.0 108.2 139.8 C 111.9 139.8 111.3 139.8 114.1 139.7 C 116.6 139.9 118.7 140.2 115.4 140.3 C 116.1 140.3 120.8 140.2 121.2 140.3 C 116.6 140.3 121.7 140.4 119.0 140.5 C 122.5 140.6 128.7 140.4 133.0 140.5 C 132.6 140.4 134.2 140.4 134.1 140.3 C 129.8 140.5 128.9 140.1 124.7 140.1 C 126.5 140.1 125.5 139.9 124.6 139.9 C 128.8 140.0 131.0 139.8 134.0 140.0 C 134.0 139.9 134.0 139.9 134.0 139.8 C 139.0 140.0 138.3 139.9 142.1 139.8 C 143.6 139.9 141.7 140.2 141.1 140.4 C 143.0 140.3 149.7 140.3 145.8 140.1 C 149.7 140.1 148.8 140.4 152.8 140.4 C 152.8 140.2 149.1 140.2 150.4 139.9 C 154.1 139.9 152.0 140.2 155.1 140.0 C 155.2 140.2 155.4 140.3 158.6 140.3 C 156.2 140.2 158.9 140.2 159.8 140.1 C 158.3 140.1 157.0 140.1 156.2 140.0 C 162.0 140.1 163.2 140.0 167.8 140.0 C 166.2 140.2 168.8 140.3 165.6 140.4 C 168.6 140.2 172.3 140.5 173.8 140.4 C 172.0 140.3 169.0 140.3 167.9 140.2 C 177.2 140.1 182.0 139.9 190.1 140.2 C 188.7 140.2 186.8 140.2 186.6 140.2 C 187.5 140.3 188.9 140.2 189.0 140.3 C 186.1 140.3 183.4 140.3 181.9 140.4 C 179.4 140.3 183.4 140.2 180.7 140.2 C 180.3 140.3 175.4 140.2 177.3 140.4 C 181.7 140.3 185.9 140.4 188.0 140.7 C 192.0 140.4 188.1 140.4 192.4 140.1 C 192.3 140.2 193.4 140.2 194.8 140.2 C 193.3 140.0 198.8 140.1 199.4 140.1 C 197.4 140.2 189.7 140.4 193.7 140.6 C 191.8 140.1 202.8 140.7 200.6 140.4 C 205.6 140.3 203.9 140.6 206.5 140.4 C 206.7 140.4 206.4 140.5 207.7 140.5 C 209.1 140.5 209.5 140.5 210.1 140.4 C 203.1 140.3 205.1 140.1 200.5 140.1 C 201.3 140.1 202.0 140.1 201.7 140.0 C 201.7 140.0 201.8 139.9 202.9 139.9 C 203.3 140.2 206.5 139.9 207.6 140.1 C 206.2 140.1 204.8 140.1 205.3 140.2 C 211.1 140.1 210.2 140.4 218.2 140.5 C 215.8 140.4 218.9 140.3 221.7 140.3 C 225.5 140.3 224.2 140.6 228.8 140.6 C 228.2 140.1 233.7 140.6 239.2 140.4 C 238.7 140.6 246.1 140.7 247.5 140.5 C 247.7 140.6 250.3 140.5 252.2 140.5 C 252.7 140.6 250.5 140.7 252.2 140.7 C 253.8 140.7 252.3 140.5 254.4 140.5 C 256.9 140.5 256.6 140.7 260.3 140.7 C 260.4 140.6 258.3 140.6 260.2 140.5 C 263.6 140.6 266.5 140.5 263.7 140.4 C 268.6 140.3 266.4 140.7 270.9 140.7 C 269.5 140.6 269.6 140.5 272.0 140.5 C 273.7 140.6 273.9 140.7 274.5 140.8 C 275.8 140.6 275.3 140.6 279.1 140.7 C 279.1 140.6 279.0 140.5 279.0 140.4 C 280.7 140.4 283.2 140.4 283.7 140.5 C 280.5 140.4 281.5 140.6 280.3 140.7 C 283.5 140.7 289.7 140.9 284.9 140.7 C 289.3 140.6 287.3 140.8 290.8 140.8 C 288.5 140.6 290.7 140.8 294.3 140.7 C 293.8 140.5 296.7 140.7 298.9 140.7 C 298.5 140.5 299.1 140.4 301.1 140.4 C 301.0 140.5 302.4 140.6 304.7 140.5 C 304.6 140.5 299.7 140.4 304.6 140.4 C 306.9 140.4 307.0 140.6 310.7 140.7 C 311.6 140.8 307.4 140.8 308.4 141.0 C 311.3 140.8 312.3 140.9 316.7 141.0 C 314.8 140.6 325.1 140.5 319.9 140.4 C 321.3 140.4 323.3 140.1 324.5 140.3 C 322.9 140.3 325.9 140.5 325.8 140.5 C 327.8 140.5 332.6 140.6 332.7 140.5 C 328.3 140.5 328.2 140.4 326.7 140.2 C 333.2 140.1 338.9 140.2 338.6 140.4 C 338.5 140.4 339.4 140.4 339.6 140.3 C 337.4 140.3 335.7 140.0 338.3 140.0 C 337.9 140.2 339.8 140.2 341.9 140.3 C 341.9 140.1 350.6 140.4 348.9 140.1 C 345.6 140.3 342.7 140.0 345.2 139.9 C 347.5 140.0 352.2 140.1 351.3 140.3 C 352.5 140.2 353.6 140.2 354.7 140.1 C 355.6 140.0 353.0 140.0 353.4 139.8 C 355.1 139.8 357.7 139.8 358.1 139.9 C 353.4 139.9 360.5 140.0 355.8 140.1 C 358.8 140.1 359.5 140.2 361.8 140.2 C 361.8 140.2 362.7 140.2 362.9 140.1 C 360.9 140.2 358.8 140.1 359.2 139.9 C 363.4 139.9 362.9 140.1 366.4 140.1 C 367.4 140.0 372.0 139.7 374.5 139.9 C 369.8 139.9 374.9 140.0 372.2 140.1 C 367.9 139.9 366.9 140.1 365.4 140.3 C 367.3 140.4 370.8 140.5 371.2 140.2 C 368.9 140.2 368.9 140.3 367.7 140.4 C 367.7 140.3 368.4 140.2 369.9 140.1 C 372.0 140.3 376.2 140.1 373.5 140.4 C 376.4 140.3 379.8 140.4 382.8 140.3 C 379.4 140.3 376.8 140.2 375.7 140.1 C 378.5 140.0 381.5 140.2 381.5 140.1 C 381.1 139.9 376.5 140.0 375.6 139.8 C 379.1 139.6 385.0 140.2 380.2 139.8 C 382.2 139.8 385.1 139.8 386.1 139.9 C 383.6 139.9 386.5 140.1 387.5 140.2 C 389.7 140.2 391.4 140.1 392.1 140.1 C 388.9 140.1 386.2 139.9 388.5 139.9 C 389.1 140.0 389.7 139.9 390.7 139.8 C 391.0 139.9 394.7 139.9 395.4 139.9 C 395.1 139.9 393.4 139.8 393.0 139.8 C 395.2 139.7 398.2 139.4 399.9 139.7 C 398.6 139.7 396.6 139.7 396.6 139.8 C 402.8 140.0 404.9 140.2 412.1 140.4 C 411.2 140.4 410.8 140.4 411.1 140.5 C 415.6 140.5 418.7 140.6 418.2 140.7 C 421.0 140.7 422.4 140.6 423.8 140.5 C 420.8 140.4 419.9 140.6 418.0 140.4 C 419.1 140.4 415.4 140.1 414.1 139.9 C 409.2 140.1 408.7 139.8 403.6 139.9 C 405.0 139.8 399.8 139.9 401.2 139.7 C 406.2 140.0 410.6 139.8 417.6 139.9 C 416.8 140.0 416.1 140.2 419.0 140.2 C 423.5 140.3 421.1 140.1 424.8 140.1 C 426.4 140.3 424.3 140.3 426.1 140.4 C 427.3 140.3 430.8 140.3 432.0 140.5 C 427.2 140.5 433.1 140.6 429.9 140.7 C 431.5 140.7 432.5 140.8 433.5 140.8 C 428.7 140.6 438.0 140.5 434.3 140.4 C 440.8 140.3 435.1 140.8 440.5 140.8 C 437.7 140.7 441.1 140.6 445.0 140.6 C 446.2 140.8 450.2 140.8 453.4 140.9 C 451.6 140.8 450.4 140.8 453.3 140.7 C 451.6 140.6 448.9 140.6 447.4 140.7 C 447.4 140.6 446.8 140.5 446.0 140.5 C 449.9 140.4 448.2 140.4 449.4 140.3 C 450.6 140.4 453.5 140.4 454.2 140.5 C 454.2 140.4 455.2 140.4 455.3 140.4 C 450.4 140.3 455.9 140.1 452.8 140.1 C 450.6 140.1 452.1 140.3 449.4 140.2 C 446.6 140.0 451.4 140.0 452.6 139.8 C 450.2 139.7 447.7 139.9 446.7 139.7 C 449.5 139.5 454.4 139.6 458.3 139.7 C 457.9 139.5 464.8 139.8 465.2 139.5 C 465.8 139.5 466.5 139.6 467.6 139.6 C 468.6 139.4 470.0 139.7 471.2 139.7 C 471.2 139.6 470.8 139.5 469.8 139.5 C 474.7 139.6 475.8 139.6 481.4 139.5 C 482.4 139.6 483.5 139.7 484.1 139.8 C 482.8 139.9 481.5 139.9 480.7 139.9 C 488.4 140.0 483.0 139.5 488.7 139.8 C 488.4 139.7 484.5 139.5 487.3 139.4 C 492.4 139.6 499.1 139.4 499.4 139.9 C 503.8 140.1 506.5 139.8 508.7 140.0 C 510.1 140.0 510.5 139.9 511.0 139.9 C 509.6 139.8 507.8 139.7 506.1 139.6 C 503.6 139.7 502.3 139.5 505.0 139.8 C 501.2 139.8 500.0 139.7 497.9 139.6 C 503.1 139.4 508.2 139.6 508.2 139.3 C 510.1 139.4 511.5 139.6 513.1 139.7 C 513.6 139.6 519.6 139.5 520.2 139.7 C 516.0 139.6 512.0 139.9 515.8 140.0 C 525.7 139.9 531.6 140.2 540.3 140.0 C 540.6 140.1 540.0 140.2 541.6 140.2 C 541.5 140.1 541.8 140.1 542.7 140.0 C 545.4 140.0 547.1 140.1 550.8 140.1 C 550.7 140.2 551.4 140.4 553.5 140.4 C 554.5 140.2 557.9 139.9 560.1 139.9 C 557.9 139.9 561.0 140.2 562.6 140.2 C 561.0 139.9 573.3 140.4 569.6 140.1 C 572.8 140.1 574.8 140.2 575.9 140.2 C 575.9 139.8 575.9 139.5 576.0 139.5 C 575.9 137.9 575.9 136.6 575.8 135.0 C 576.1 134.2 575.9 126.2 576.0 125.2 C 575.9 127.8 576.2 128.5 576.2 126.3 C 576.1 124.7 575.9 117.5 576.0 116.2 C 576.0 116.7 576.2 117.3 576.3 120.8 C 576.3 114.9 576.0 114.8 575.8 112.9 C 576.1 113.1 575.9 110.4 575.8 109.5 C 576.0 107.7 575.9 109.6 576.1 109.5 C 576.1 107.5 576.2 106.7 576.2 104.0 C 576.0 104.8 576.1 101.7 576.1 100.6 C 576.0 100.2 575.9 98.7 575.9 96.2 C 576.2 99.5 576.2 81.9 576.0 86.2 C 575.8 82.9 576.2 82.5 576.2 78.2 C 576.2 78.0 576.1 77.6 576.1 77.2 C 575.2 77.2 574.5 77.2 576.0 77.3 C 576.0 77.3 576.0 77.3 576.0 77.3 C 576.0 77.3 576.0 77.3 576.0 77.3 C 572.3 77.3 574.7 77.1 570.2 77.2 C 571.9 77.4 565.8 77.1 566.6 77.4 C 565.0 77.1 560.9 77.5 557.4 77.2 C 557.4 77.3 556.4 77.3 556.1 77.4 C 555.4 77.4 560.5 77.5 557.2 77.5 C 553.3 77.4 555.5 77.3 555.1 77.2 C 544.3 77.3 531.4 77.2 520.1 77.2 C 521.4 77.3 521.2 77.3 518.8 77.4 C 515.8 77.0 502.4 77.2 500.3 77.3 C 499.2 77.1 492.2 77.3 491.0 77.2 C 492.4 77.2 495.1 77.0 492.3 77.0 C 490.3 77.2 488.0 77.1 485.2 77.2 C 484.0 77.0 475.5 77.2 479.5 76.9 C 477.9 76.9 477.0 76.8 476.2 76.8 C 475.9 77.0 474.2 77.0 477.1 77.1 C 469.6 77.0 467.6 77.1 461.9 77.0 C 460.9 77.1 465.3 77.2 461.8 77.2 C 461.8 77.2 461.8 77.1 461.9 77.1 C 460.6 77.1 460.1 77.2 459.6 77.1 C 459.9 77.0 461.8 77.0 462.0 76.8 C 459.2 76.9 457.4 76.6 456.2 76.8 C 460.2 76.8 457.3 77.2 455.0 77.0 C 457.2 76.9 445.8 77.0 442.1 77.1 C 440.4 76.9 446.1 77.1 445.7 76.9 C 438.9 77.0 439.5 76.9 438.6 77.1 C 435.0 77.1 433.7 76.9 429.3 77.0 C 426.8 77.0 430.8 76.9 428.2 76.9 C 426.6 76.9 425.9 77.0 423.5 77.0 C 417.4 76.6 402.5 77.3 395.7 76.7 C 398.4 76.8 394.6 76.9 390.9 76.9 C 390.7 76.9 391.2 76.8 389.8 76.7 C 390.0 76.9 388.7 76.9 386.2 76.9 C 386.0 76.9 386.5 76.8 385.2 76.7 C 384.1 77.0 381.1 76.8 379.2 76.9 C 378.5 76.7 383.6 76.8 383.9 76.6 C 378.0 76.5 376.9 76.7 372.3 76.6 C 374.7 76.6 370.7 76.4 370.0 76.4 C 371.0 76.6 367.3 76.7 369.9 76.8 C 368.2 76.8 365.6 76.8 365.2 76.8 C 366.2 76.7 367.6 76.7 367.7 76.7 C 365.5 76.7 362.8 76.5 361.7 76.7 C 363.2 76.7 364.1 76.8 364.1 76.9 C 363.5 76.9 362.8 77.0 361.6 77.1 C 365.1 76.6 355.3 76.8 354.7 76.9 C 353.9 76.6 353.3 76.6 353.7 76.5 C 349.6 76.5 350.1 76.7 347.7 76.8 C 348.4 76.5 349.3 76.4 345.5 76.3 C 346.3 76.5 341.7 76.5 343.1 76.8 C 333.4 76.8 331.4 76.5 325.6 76.6 C 325.4 76.6 327.3 76.7 325.5 76.7 C 322.8 76.6 320.4 76.6 318.6 76.5 C 317.1 76.6 319.2 76.6 317.5 76.7 C 313.2 76.5 314.2 76.3 310.4 76.2 C 305.8 76.3 307.5 76.2 304.6 76.4 C 305.9 76.4 307.5 76.5 305.7 76.5 C 302.9 76.3 301.8 76.1 301.1 76.1 C 303.1 76.1 304.7 76.1 305.8 76.2 C 306.5 76.0 309.3 76.0 306.9 75.9 C 309.9 76.0 313.2 76.0 317.5 76.0 C 316.1 75.8 321.3 75.9 319.8 75.7 C 315.0 75.8 313.9 75.6 309.3 75.7 C 310.3 75.9 305.6 75.8 304.6 75.7 C 304.6 75.8 301.4 75.8 302.2 76.0 C 298.7 76.0 298.8 75.9 295.3 75.9 C 295.1 75.8 295.5 75.7 294.1 75.7 C 292.9 75.9 291.7 75.7 290.6 75.7 C 291.4 75.9 286.3 75.8 285.9 75.9 C 287.3 75.9 289.2 75.9 289.5 76.0 C 283.8 75.9 288.3 76.1 289.5 76.3 C 289.2 76.2 291.3 75.9 291.7 76.1 C 287.0 76.2 298.5 76.4 294.1 76.3 C 290.5 76.3 290.7 76.4 287.1 76.4 C 282.7 76.1 287.9 75.9 283.5 75.6 C 280.9 75.8 279.1 75.7 278.8 75.9 C 278.3 75.8 277.6 75.8 276.6 75.7 C 275.4 75.8 280.0 75.9 276.6 76.0 C 274.7 75.9 276.8 75.7 273.0 75.7 C 271.4 75.9 277.6 75.9 274.2 76.0 C 270.5 75.7 275.0 76.1 270.8 76.1 C 270.4 76.0 269.7 76.0 268.4 76.0 C 268.1 75.9 268.7 75.8 267.2 75.8 C 266.4 76.1 265.6 75.7 262.5 75.7 C 260.8 76.0 265.7 75.8 264.8 76.0 C 261.3 75.8 259.2 76.1 257.9 76.0 C 260.7 75.9 253.4 75.9 253.1 75.7 C 254.0 75.9 252.4 75.8 248.4 76.0 C 248.1 75.7 243.6 75.9 242.5 75.7 C 242.0 75.8 240.8 75.8 240.3 75.9 C 241.6 75.9 243.0 75.9 242.6 76.0 C 241.4 76.0 240.3 76.0 239.0 76.0 C 237.1 75.9 242.0 75.5 234.3 75.5 C 235.2 75.8 231.9 75.8 229.8 75.9 C 230.0 76.1 232.9 75.9 233.2 76.0 C 230.6 76.2 227.9 76.0 226.2 75.9 C 221.7 76.0 216.3 75.9 209.8 76.0 C 208.3 75.8 215.3 75.8 210.9 75.7 C 209.1 75.7 210.0 75.9 207.5 75.8 C 209.6 75.1 189.9 75.7 188.5 75.4 C 187.8 75.5 182.1 75.4 182.8 75.7 C 186.5 75.5 189.2 75.7 191.1 75.8 C 194.6 75.7 187.8 75.7 191.0 75.6 C 191.4 75.7 196.1 75.6 195.7 75.8 C 190.7 75.8 198.4 76.0 194.7 76.2 C 190.0 76.1 180.9 76.3 182.9 76.1 C 183.0 76.2 185.0 76.2 185.2 76.1 C 179.9 76.0 176.9 76.1 174.8 76.3 C 172.3 76.1 163.1 76.4 165.5 76.3 C 164.6 76.1 171.1 76.3 170.1 76.2 C 160.3 76.1 160.2 76.2 153.7 76.1 C 155.9 76.3 147.2 76.4 147.9 76.3 C 147.8 76.1 145.8 76.0 142.1 76.2 C 142.5 76.0 140.4 76.0 138.4 75.9 C 137.5 76.1 140.2 76.1 139.8 76.2 C 137.8 76.2 135.8 76.2 133.8 76.2 C 133.7 76.1 134.0 76.0 132.6 76.0 C 130.5 76.1 122.7 76.3 123.4 76.2 C 126.5 76.0 117.9 76.0 123.1 75.8 C 121.7 75.8 121.5 75.8 119.6 75.8 C 119.6 75.9 119.7 75.9 119.7 76.0 C 115.4 76.0 117.4 75.7 113.7 75.7 C 113.4 75.8 111.8 75.8 111.4 75.9 C 112.9 75.9 113.0 75.8 114.9 75.8 C 112.9 76.1 118.9 76.0 118.7 76.2 C 114.6 76.2 114.5 76.1 112.7 76.0 C 107.7 76.1 110.0 76.0 104.5 76.0 C 104.6 76.0 106.0 76.1 105.8 76.2 C 99.1 76.1 99.5 75.7 95.1 75.9 C 96.1 75.8 100.1 75.7 97.2 75.7 C 94.2 75.8 93.4 75.9 89.3 76.0 C 89.0 75.9 89.3 75.8 87.9 75.8 C 86.3 75.9 86.3 76.0 84.7 76.1 C 84.3 76.0 82.1 76.0 81.2 76.1 C 79.6 75.9 81.6 75.9 79.8 75.8 C 76.3 75.9 74.8 76.3 71.9 76.2 C 71.9 76.0 68.7 76.0 65.9 76.1 C 65.3 75.9 59.3 75.9 55.2 75.8 C 56.3 76.0 52.1 76.0 53.2 76.2 C 55.1 76.1 56.2 76.2 56.7 76.3 C 52.2 76.3 50.5 75.9 47.3 76.2 C 45.5 76.1 43.2 76.0 40.1 75.9 C 39.8 76.0 45.7 76.1 42.6 76.2 C 42.3 76.1 41.3 76.1 40.3 76.2 C 40.6 75.9 38.0 75.9 36.5 75.8 C 33.8 75.9 27.9 75.7 30.7 75.9 C 26.4 75.9 29.0 75.6 25.7 75.6 C 27.6 75.9 21.9 75.9 24.9 76.0 C 20.5 76.1 20.6 75.8 22.3 75.7 C 18.1 75.6 17.4 75.8 15.2 75.7 C 17.3 75.9 11.2 76.0 14.2 75.9 C 15.1 75.7 10.4 75.8 9.4 75.7 C 11.0 75.8 8.8 75.8 11.9 75.9 C 9.9 75.9 7.1 76.0 4.6 75.9 C 4.6 77.1 4.6 78.1 4.5 79.0 C 4.6 83.0 4.6 86.6 4.4 84.8 C 4.5 88.4 4.5 87.1 4.4 90.7 C 4.5 90.7 4.5 89.7 4.6 89.5 C 4.6 94.5 4.4 93.4 4.4 100.0 C 4.2 99.1 4.2 103.3 4.1 104.5 C 4.1 101.8 4.2 99.6 4.2 97.5 C 4.1 97.0 4.1 99.1 4.0 97.4 C 4.1 97.2 4.1 96.2 4.1 95.2 C 4.0 99.3 3.8 89.4 4.0 92.7 C 4.0 92.6 4.0 92.8 4.0 93.8 C 4.2 93.1 4.1 93.0 4.3 94.0 C 4.2 91.8 4.4 90.2 4.3 89.3 C 4.2 89.3 4.2 91.4 4.1 91.6 C 4.0 86.1 4.4 90.2 4.3 85.9 C 4.1 84.8 4.1 87.0 4.0 87.9 C 3.9 84.0 4.0 80.7 4.1 79.7 C 4.0 76.1 3.9 79.8 3.8 77.2 C 3.9 76.4 4.0 76.3 4.0 75.3 C 4.4 75.4 4.9 75.4 5.6 75.4 C 8.1 75.3 3.9 75.2 6.5 75.2 C 9.5 75.3 4.8 75.4 9.2 75.5 C 7.9 75.2 13.1 75.5 12.6 75.4 C 10.2 75.4 9.9 75.1 11.3 75.3 C 17.3 75.6 20.6 74.9 26.6 75.3 C 26.6 75.2 27.5 75.2 27.7 75.2 C 23.3 75.1 17.0 75.0 15.6 74.8 C 12.2 74.8 12.9 75.0 12.3 75.1 C 8.1 74.8 8.4 74.8 10.6 74.5 C 17.3 74.5 20.3 74.6 24.8 74.7 C 27.1 74.6 24.5 74.6 23.5 74.5 C 37.6 74.7 26.5 74.2 31.5 74.2 C 31.5 74.3 32.6 74.4 34.0 74.4 C 33.9 74.3 36.0 74.4 36.3 74.3 C 35.3 74.3 34.8 74.2 35.0 74.2 C 38.4 74.1 37.2 74.3 37.5 74.4 C 34.9 74.4 33.2 74.4 32.9 74.5 C 36.3 74.4 39.1 74.6 41.1 74.4 C 44.5 74.7 39.8 74.9 41.7 75.1 C 41.3 75.3 43.5 74.7 45.9 74.6 C 50.2 74.6 50.1 74.4 54.0 74.4 C 55.2 74.6 50.2 74.5 50.7 74.6 C 51.8 74.6 52.1 74.7 53.1 74.7 C 55.9 74.7 55.5 74.5 57.6 74.5 C 58.9 74.6 59.5 74.5 61.1 74.5 C 63.8 74.5 59.7 74.6 62.5 74.6 C 65.4 74.7 67.3 74.4 68.2 74.5 C 68.5 74.5 68.1 74.6 69.5 74.6 C 72.7 74.5 73.5 74.5 69.3 74.4 C 73.0 74.4 74.5 74.4 73.8 74.2 C 68.3 74.1 66.9 74.2 64.2 73.9 C 63.3 74.1 61.6 74.0 59.5 73.9 C 61.0 74.2 57.1 73.9 56.1 74.1 C 57.5 74.1 58.9 74.2 59.7 74.2 C 53.9 74.2 54.0 74.2 49.4 74.5 C 49.3 74.4 48.7 74.3 48.1 74.3 C 49.5 74.2 53.8 74.3 53.8 74.1 C 50.3 73.9 49.4 74.2 45.4 74.0 C 43.9 74.1 48.7 74.2 45.6 74.2 C 44.0 74.1 42.0 74.0 39.5 73.9 C 37.0 74.0 35.8 74.0 33.8 74.1 C 33.5 74.0 33.2 74.0 31.3 74.0 C 31.5 74.1 33.5 74.1 31.4 74.2 C 25.0 73.9 20.7 73.8 14.6 73.9 C 16.9 73.9 22.0 74.1 19.6 74.1 C 16.7 74.0 13.1 74.2 10.1 74.0 C 9.1 74.0 13.6 74.1 12.3 73.8 C 9.5 73.8 7.8 73.8 6.4 73.7 C 6.5 73.9 3.2 73.8 4.2 74.0 C 6.5 74.0 7.0 73.8 7.6 73.9 C 6.9 74.1 5.0 74.1 2.7 74.0 C 2.6 76.5 2.4 79.4 2.4 81.8 C 2.5 84.8 2.6 79.8 2.6 83.2 C 2.7 85.4 2.3 86.2 2.2 82.8 C 2.3 80.7 2.1 79.5 2.3 79.2 C 2.3 78.3 2.3 76.9 2.2 76.8 C 2.2 78.5 2.1 78.0 2.0 79.0 C 2.1 76.7 1.7 76.0 1.9 74.1 C 1.9 75.5 2.0 76.0 2.0 76.7 C 2.0 75.4 2.0 74.3 2.0 73.3 C 6.0 73.3 7.9 73.4 10.8 73.5 C 8.8 73.4 10.9 73.4 10.6 73.3 C 7.9 73.3 2.6 73.2 5.8 73.1 C 8.1 73.4 9.2 72.8 11.5 73.0 C 9.9 73.0 10.3 73.2 9.4 73.2 C 11.8 73.2 11.8 73.4 14.3 73.4 C 21.7 73.1 28.1 73.6 40.0 73.2 C 44.3 73.2 36.2 73.3 36.7 73.4 C 37.9 73.4 38.2 73.5 39.1 73.5 C 39.1 73.3 41.3 73.5 42.6 73.3 C 42.5 73.5 48.1 73.3 51.0 73.5 C 51.1 73.4 50.6 73.3 52.0 73.3 C 60.8 73.6 76.2 73.2 82.8 73.4 C 82.5 73.3 85.4 73.3 86.1 73.2 C 90.3 73.2 88.5 73.4 94.4 73.2 C 97.4 73.2 93.9 73.3 93.4 73.4 C 102.3 73.3 110.2 73.5 115.8 73.3 C 118.6 73.2 115.8 73.4 121.7 73.4 C 121.7 73.2 131.1 73.6 132.2 73.3 C 135.8 73.2 142.4 73.6 139.4 73.3 C 144.2 73.3 141.1 73.6 143.1 73.6 C 146.4 73.5 141.8 73.1 145.2 73.1 C 144.9 73.3 147.7 73.2 150.0 73.4 C 147.4 73.4 145.7 73.4 145.4 73.5 C 147.6 73.4 147.6 73.5 151.2 73.5 C 153.9 73.4 161.8 73.2 164.2 73.5 C 164.3 73.4 163.6 73.4 163.0 73.3 C 165.3 73.3 168.1 73.5 167.7 73.3 C 173.0 73.3 175.4 73.5 178.3 73.3 C 180.6 73.2 177.6 73.5 184.4 73.4 C 184.4 73.3 196.4 73.3 199.7 73.4 C 199.7 73.2 200.5 73.4 202.0 73.4 C 202.2 73.4 201.8 73.3 203.2 73.3 C 203.4 73.3 204.5 73.3 205.5 73.3 C 204.8 73.6 209.8 73.2 210.2 73.4 C 209.2 73.4 209.2 73.5 210.3 73.6 C 210.6 73.4 215.6 73.7 215.0 73.5 C 213.9 73.4 210.6 73.5 211.5 73.3 C 216.1 73.2 214.3 73.5 217.4 73.5 C 217.2 73.4 215.3 73.4 217.4 73.3 C 220.6 73.4 217.6 73.4 219.7 73.5 C 221.4 73.5 224.5 73.3 225.6 73.3 C 225.3 73.3 226.4 73.4 226.8 73.4 C 232.9 73.5 246.7 73.3 252.7 73.6 C 253.2 73.5 254.5 73.5 254.0 73.3 C 257.6 73.4 257.3 73.4 261.0 73.4 C 261.0 73.4 261.0 73.3 261.0 73.2 C 265.7 73.1 261.5 73.5 264.6 73.4 C 264.9 73.0 266.4 73.6 269.3 73.6 C 269.7 73.5 271.0 73.5 270.6 73.3 C 275.1 73.3 274.8 73.6 278.7 73.5 C 277.8 73.5 277.1 72.9 277.6 72.7 C 278.3 72.8 279.4 72.9 281.1 72.9 C 279.1 73.1 280.2 73.8 285.9 73.6 C 282.8 73.6 281.6 73.5 282.3 73.4 C 286.6 73.4 288.1 73.5 291.7 73.5 C 292.3 73.3 289.7 73.3 290.6 73.1 C 291.5 73.1 292.0 73.0 291.7 73.0 C 295.7 73.0 295.8 73.1 300.0 73.0 C 300.0 73.1 299.1 73.2 297.6 73.1 C 297.9 73.2 297.9 73.4 295.3 73.4 C 295.0 73.3 296.5 73.1 292.9 73.1 C 292.9 73.2 292.9 73.3 292.9 73.4 C 295.5 73.5 301.8 73.6 302.3 73.5 C 301.1 73.4 299.0 73.4 300.0 73.2 C 304.5 73.3 305.8 73.5 309.5 73.6 C 315.9 73.5 327.3 73.6 326.0 73.3 C 329.9 73.3 328.5 73.4 331.9 73.4 C 330.9 73.2 335.9 73.3 335.5 73.1 C 331.3 73.2 332.5 73.2 328.4 73.2 C 328.5 73.1 329.2 73.0 330.8 73.0 C 331.1 73.1 332.8 73.1 335.5 73.1 C 335.1 73.0 332.6 72.9 335.6 72.8 C 335.8 72.9 336.5 72.9 337.9 72.9 C 337.9 73.0 337.8 73.1 337.8 73.2 C 336.2 73.3 334.2 73.3 333.1 73.4 C 334.2 73.4 334.5 73.4 335.5 73.4 C 336.2 73.3 341.0 73.5 341.4 73.3 C 339.4 73.3 338.2 73.2 340.2 73.2 C 340.6 73.2 343.8 73.3 345.0 73.2 C 340.8 73.1 342.5 73.1 340.3 72.9 C 345.0 72.9 344.3 73.1 349.7 73.0 C 349.8 73.2 349.8 73.3 348.4 73.4 C 351.8 73.7 359.9 73.4 362.5 73.4 C 360.7 73.4 358.6 73.7 361.3 73.7 C 361.3 73.6 363.4 73.6 363.8 73.6 C 364.8 73.2 362.4 73.0 360.4 72.8 C 362.6 72.9 363.0 72.8 365.1 72.8 C 365.8 72.9 363.5 73.2 366.2 73.2 C 366.8 72.9 371.1 73.2 372.1 73.0 C 370.3 73.0 369.0 72.9 371.0 72.8 C 370.6 73.0 374.4 72.9 374.5 73.0 C 371.4 73.1 370.5 73.3 368.6 73.3 C 371.0 73.3 366.7 73.4 370.8 73.4 C 372.7 73.3 373.7 73.1 378.1 73.2 C 379.7 73.2 378.1 73.4 380.3 73.4 C 379.8 73.2 384.5 73.2 381.6 73.3 C 383.2 73.3 384.1 73.4 385.0 73.4 C 382.8 73.2 394.0 73.0 392.3 72.8 C 392.2 73.1 392.7 73.3 393.3 73.4 C 395.6 73.2 398.0 73.3 404.0 73.3 C 403.9 73.1 405.0 73.3 407.5 73.3 C 408.0 73.2 405.8 73.1 407.6 73.1 C 410.4 73.2 410.5 73.2 411.1 73.3 C 413.1 73.3 414.8 73.3 415.8 73.3 C 415.9 73.2 415.2 73.2 414.7 73.2 C 422.5 73.4 426.8 73.1 433.6 73.2 C 430.8 73.1 430.0 73.4 432.3 73.3 C 433.7 73.3 435.0 73.3 435.9 73.2 C 434.3 73.0 435.0 73.1 438.3 73.2 C 441.3 73.1 437.3 72.9 439.6 72.8 C 442.1 73.0 440.6 73.0 441.9 73.1 C 443.1 73.1 444.3 73.1 445.5 73.1 C 443.4 73.0 445.8 72.9 447.9 72.8 C 446.3 73.1 447.2 73.1 451.4 73.0 C 451.8 73.1 449.6 73.2 451.3 73.2 C 452.2 73.2 455.6 73.0 458.4 73.2 C 457.4 73.2 457.0 73.2 457.1 73.3 C 460.3 73.1 462.6 73.4 465.3 73.5 C 462.7 73.3 464.2 73.2 463.2 73.0 C 465.8 73.2 469.3 73.0 471.3 73.2 C 467.3 73.2 471.0 73.6 473.5 73.6 C 474.2 73.4 469.9 73.4 471.3 73.2 C 472.8 73.1 475.8 73.3 477.3 73.2 C 477.1 73.0 475.4 73.2 475.0 73.1 C 477.2 73.1 474.4 73.0 476.2 73.0 C 477.2 73.2 478.7 72.9 479.8 72.9 C 481.3 73.0 484.2 73.2 485.6 73.1 C 485.6 73.0 483.6 73.0 483.4 73.0 C 489.9 72.9 491.7 73.1 497.6 72.9 C 498.2 73.0 499.3 73.1 501.0 73.1 C 501.0 73.0 502.1 72.9 503.5 72.9 C 505.9 73.0 508.4 73.1 511.6 73.2 C 510.9 73.3 509.3 73.4 513.7 73.4 C 514.0 73.3 512.2 73.3 513.8 73.3 C 513.8 73.3 514.8 73.3 515.1 73.3 C 515.1 73.2 515.1 73.2 515.2 73.2 C 513.9 73.2 512.7 73.2 511.6 73.2 C 511.8 73.0 511.5 73.0 510.6 72.9 C 515.9 72.8 515.2 73.2 518.7 73.0 C 519.1 73.3 520.2 73.4 517.1 73.6 C 520.2 73.5 522.3 73.4 523.2 73.3 C 519.7 73.3 521.0 73.1 520.0 73.0 C 522.3 73.0 522.4 72.9 523.6 72.9 C 526.1 73.0 520.6 73.2 525.7 73.2 C 522.0 73.0 529.1 73.0 531.7 73.1 C 531.3 73.0 530.4 73.0 531.8 72.9 C 539.0 72.8 537.9 73.4 542.3 73.1 C 541.8 73.2 543.8 73.2 544.6 73.3 C 541.1 73.3 540.1 73.4 538.6 73.4 C 538.7 73.5 539.8 73.5 540.8 73.5 C 540.9 73.4 541.8 73.4 543.2 73.5 C 544.4 73.3 544.3 73.1 547.2 72.9 C 547.3 73.0 546.9 73.1 548.3 73.1 C 549.7 72.9 547.0 73.4 552.8 73.3 C 551.8 73.3 551.3 73.2 551.9 73.0 C 554.7 73.0 554.1 73.0 557.8 73.0 C 558.9 73.3 555.0 73.3 553.8 73.5 C 556.4 73.5 558.6 73.3 561.0 73.4 C 559.2 73.3 561.3 73.1 563.6 73.1 C 565.6 73.1 563.2 73.4 565.7 73.4 C 567.8 73.3 568.9 73.2 567.2 73.1 C 571.5 73.2 570.7 73.0 574.3 73.0 C 574.3 73.1 573.3 73.1 572.0 73.0 C 572.1 73.1 571.6 73.2 572.9 73.2 C 574.7 73.1 577.6 73.1 580.3 73.0 C 580.3 74.4 580.3 75.6 580.4 76.6 C 580.0 82.4 580.5 88.7 580.3 94.4 C 580.1 92.2 580.3 101.9 580.1 104.6 C 580.1 106.3 580.5 111.6 580.4 109.6 C 580.1 110.1 580.2 113.4 580.1 116.0 C 580.2 116.0 580.3 116.0 580.3 116.0 C 580.4 121.7 580.2 122.9 580.0 124.7 C 580.1 130.8 579.9 137.1 580.0 144.4 C 579.1 144.4 578.2 144.4 577.4 144.4 C 575.2 144.2 573.5 144.3 568.8 144.1 C 569.1 144.3 565.4 144.3 562.0 144.3 C 562.9 144.5 559.7 144.4 559.8 144.6 C 562.9 144.6 562.0 144.8 563.6 144.9 C 559.3 144.7 557.6 145.0 554.2 144.9 C 558.2 144.8 559.2 144.5 559.5 144.3 C 554.7 144.3 552.1 144.2 551.1 144.1 C 550.9 144.2 551.5 144.3 552.6 144.4 C 551.0 144.4 549.4 144.4 547.9 144.4 C 547.4 144.3 549.5 144.2 547.8 144.2 C 546.7 144.3 545.5 144.3 544.4 144.4 C 542.8 144.2 546.1 144.2 546.4 144.1 C 540.1 144.1 543.2 144.4 539.8 144.5 C 538.7 144.4 538.8 144.2 535.9 144.1 C 534.9 144.3 534.7 144.4 531.5 144.4 C 529.4 144.4 531.3 144.1 528.9 144.1 C 528.6 144.2 527.6 144.2 526.5 144.1 C 526.7 144.2 525.7 144.3 524.4 144.3 C 523.9 144.2 521.7 144.3 520.8 144.3 C 520.5 144.2 516.6 144.0 515.9 144.1 C 516.0 144.2 518.1 144.2 518.3 144.3 C 515.7 144.2 513.9 144.3 512.5 144.3 C 511.4 143.9 507.3 144.2 501.7 144.0 C 498.5 144.2 502.7 144.3 498.5 144.4 C 495.9 144.3 499.0 144.3 498.2 144.1 C 497.5 144.1 493.5 143.9 493.5 144.1 C 493.6 144.2 495.6 144.1 495.9 144.2 C 493.0 144.4 492.9 144.1 491.1 144.1 C 491.5 144.2 489.4 144.3 489.1 144.4 C 480.7 144.5 480.5 144.2 477.0 144.0 C 477.0 144.1 475.0 144.1 474.8 144.1 C 477.1 144.1 480.5 144.2 477.2 144.3 C 477.7 144.2 472.8 144.3 472.5 144.3 C 473.2 144.4 476.2 144.4 475.1 144.6 C 470.7 144.6 472.2 144.3 469.1 144.4 C 468.6 144.3 470.6 144.3 471.3 144.3 C 469.9 144.2 468.0 144.3 467.7 144.2 C 469.4 144.1 469.3 144.0 469.9 143.9 C 467.7 144.0 463.5 143.9 466.5 144.1 C 461.8 144.1 457.4 144.2 460.8 144.4 C 457.0 144.4 459.0 144.2 456.0 144.3 C 456.3 144.1 457.1 144.0 454.5 143.8 C 454.1 143.9 452.1 144.0 452.4 144.1 C 446.8 144.1 445.0 143.9 442.6 143.8 C 444.9 144.1 442.0 143.8 439.4 144.0 C 437.6 143.9 439.0 143.7 434.5 143.8 C 439.6 144.0 428.8 143.8 431.2 144.1 C 425.3 144.0 425.4 144.0 419.3 144.0 C 419.7 143.8 421.2 143.7 423.8 143.7 C 422.1 143.9 429.1 143.9 428.5 143.8 C 428.5 143.7 428.5 143.7 428.4 143.7 C 424.0 143.7 421.0 143.6 419.0 143.5 C 418.1 143.7 416.1 143.7 417.0 144.0 C 412.6 143.7 408.3 144.0 406.2 143.8 C 407.7 143.8 409.1 143.8 408.6 143.7 C 406.9 143.8 404.8 143.8 405.2 144.0 C 408.6 144.0 409.4 144.0 411.0 143.9 C 409.6 144.0 414.6 144.1 411.2 144.2 C 411.1 143.9 404.3 144.3 406.4 144.1 C 410.1 144.0 402.1 144.0 401.7 143.8 C 401.7 143.8 401.7 143.8 401.7 143.8 Z M 13.1 73.4 C 9.7 73.5 14.2 73.7 16.8 73.6 C 16.0 73.6 15.5 73.5 15.4 73.4 C 14.4 73.4 13.4 73.5 13.1 73.4 C 13.1 73.4 13.1 73.4 13.1 73.4 Z M 53.1 76.0 C 54.1 75.8 48.3 75.9 45.9 75.9 C 46.6 76.0 47.5 76.0 46.0 76.0 C 48.7 76.2 49.3 75.9 53.1 76.0 C 53.1 76.0 53.1 76.0 53.1 76.0 Z M 182.7 75.4 C 181.8 75.4 179.5 75.5 179.2 75.4 C 177.9 75.4 178.2 75.5 178.0 75.5 C 175.3 75.6 178.6 75.3 174.4 75.4 C 173.0 75.7 181.9 75.8 182.7 75.4 C 182.7 75.4 182.7 75.4 182.7 75.4 Z M 444.3 141.1 C 442.5 141.0 446.4 140.9 445.1 140.7 C 438.7 140.9 443.9 141.1 434.8 141.0 C 435.4 141.1 436.2 141.1 436.1 141.2 C 440.3 141.1 440.5 141.0 439.7 141.3 C 441.7 141.3 441.8 140.9 444.3 141.1 C 444.3 141.1 444.3 141.1 444.3 141.1 Z M 359.5 140.4 C 360.2 140.4 360.8 140.5 360.9 140.5 C 363.5 140.5 363.0 140.4 366.6 140.5 C 366.0 140.2 362.5 140.2 359.5 140.4 C 359.5 140.4 359.5 140.4 359.5 140.4 Z M 137.5 139.9 C 136.7 139.9 135.9 139.9 135.1 139.9 C 135.7 140.1 133.6 140.3 137.6 140.2 C 137.8 140.2 137.1 140.2 136.4 140.2 C 137.1 140.1 139.0 140.1 138.7 140.0 C 137.6 140.0 137.5 140.0 137.5 139.9 C 137.5 139.9 137.5 139.9 137.5 139.9 Z M 44.2 141.6 C 48.7 141.4 37.5 141.0 44.2 141.6 C 44.2 141.6 44.2 141.6 44.2 141.6 C 44.2 141.6 44.2 141.6 44.2 141.6 Z M 53.8 143.7 C 54.0 143.8 55.0 143.8 55.0 143.7 C 58.9 143.8 55.1 143.9 57.3 144.0 C 60.4 143.8 55.7 143.6 59.7 143.5 C 58.9 143.4 56.1 143.7 53.8 143.7 C 53.8 143.7 53.8 143.7 53.8 143.7 Z M 537.5 73.2 C 534.2 73.3 533.1 73.4 532.4 73.6 C 534.6 73.6 536.4 73.7 537.0 73.7 C 541.2 73.6 534.4 73.6 533.7 73.6 C 534.3 73.4 537.3 73.4 537.5 73.2 C 537.5 73.2 537.5 73.2 537.5 73.2 Z M 526.8 73.3 C 525.4 73.4 523.3 73.4 523.0 73.6 C 525.1 73.5 525.3 73.6 525.3 73.7 C 527.3 73.6 525.0 73.5 526.8 73.3 C 526.8 73.3 526.8 73.3 526.8 73.3 Z M 546.7 73.4 C 545.2 73.5 545.7 73.6 545.3 73.7 C 547.5 73.7 547.8 73.8 550.0 73.7 C 550.1 73.7 550.1 73.6 550.2 73.6 C 548.3 73.5 548.2 73.6 546.6 73.6 C 546.6 73.6 546.7 73.5 546.7 73.4 C 546.7 73.4 546.7 73.4 546.7 73.4 Z M 516.0 73.5 C 509.8 73.5 506.8 73.8 502.6 74.0 C 507.1 74.0 511.5 73.6 514.6 73.8 C 518.5 73.7 513.4 73.6 513.6 73.6 C 513.7 73.5 515.1 73.5 516.0 73.5 C 516.0 73.5 516.0 73.5 516.0 73.5 Z M 461.7 73.5 C 460.5 73.4 458.1 73.7 454.5 73.6 C 455.2 73.7 455.7 73.7 455.7 73.8 C 460.7 73.9 457.9 73.5 461.7 73.5 C 461.7 73.5 461.7 73.5 461.7 73.5 Z M 432.2 73.6 C 429.1 73.6 433.8 73.7 432.1 73.9 C 435.5 73.9 439.2 73.9 439.2 73.7 C 435.4 73.8 434.6 73.8 432.2 73.6 C 432.2 73.6 432.2 73.6 432.2 73.6 Z M 410.9 73.6 C 407.4 73.7 412.3 73.9 410.7 74.0 C 412.1 74.0 411.8 73.9 412.0 73.9 C 413.0 73.9 413.9 73.9 415.5 73.9 C 414.4 73.8 410.4 73.8 410.9 73.6 C 410.9 73.6 410.9 73.6 410.9 73.6 Z M 579.6 119.5 C 579.5 117.3 579.3 117.9 579.4 113.3 C 579.4 120.3 578.8 116.3 578.9 125.3 C 579.0 124.0 579.1 124.9 579.0 125.4 C 579.1 128.9 579.1 122.2 579.3 125.5 C 579.2 123.0 579.0 124.3 579.0 121.8 C 579.2 119.3 579.3 117.7 579.6 119.5 C 579.6 119.5 579.6 119.5 579.6 119.5 Z M 578.7 125.3 C 578.7 127.7 579.0 127.9 578.8 129.0 C 578.8 130.2 578.9 130.0 579.0 130.2 C 578.9 129.3 579.0 129.2 579.0 129.1 C 579.0 126.9 578.9 124.8 578.7 125.3 C 578.7 125.3 578.7 125.3 578.7 125.3 Z M 578.7 102.3 C 578.8 106.4 578.7 107.6 578.8 109.6 C 578.6 111.0 578.9 112.3 578.7 114.4 C 578.8 118.4 578.9 115.5 579.0 114.5 C 579.0 118.4 578.8 115.4 578.8 119.3 C 579.1 120.1 579.0 115.1 579.2 115.7 C 579.2 112.7 579.1 112.7 579.0 110.8 C 579.0 109.4 579.1 109.8 579.2 109.6 C 579.1 106.1 579.3 106.4 579.3 103.5 C 579.1 102.8 579.0 104.0 579.1 107.2 C 579.0 103.9 578.9 102.5 579.0 98.7 C 579.1 101.4 579.2 89.0 578.9 90.2 C 578.9 93.5 579.0 92.5 579.1 93.8 C 578.9 98.1 578.9 100.7 578.7 102.3 C 578.7 102.3 578.7 102.3 578.7 102.3 Z M 547.4 74.0 C 546.4 74.0 545.5 74.0 543.9 74.0 C 544.0 73.8 546.0 73.9 544.1 73.8 C 541.6 73.7 541.0 73.8 539.4 73.8 C 540.2 73.9 545.3 74.1 542.5 74.2 C 543.2 74.2 544.9 74.3 547.1 74.3 C 544.8 74.0 550.7 74.3 553.1 74.3 C 553.1 74.0 557.2 74.3 559.0 74.2 C 557.8 74.0 552.8 74.2 550.8 74.2 C 551.8 74.1 545.3 73.8 547.4 74.0 C 547.4 74.0 547.4 74.0 547.4 74.0 Z M 578.8 135.0 C 578.9 135.8 578.9 138.5 579.0 136.4 C 579.0 137.5 578.9 139.7 579.2 139.0 C 579.2 140.3 579.2 141.5 579.2 142.7 C 579.1 142.1 579.1 138.8 579.0 140.0 C 579.0 142.0 579.0 141.8 579.0 143.3 C 578.6 143.3 578.1 143.3 577.5 143.3 C 579.0 143.1 577.2 143.1 578.2 142.9 C 577.4 143.0 574.5 143.0 574.9 143.1 C 570.4 143.1 575.9 142.9 570.0 142.9 C 569.9 142.7 574.2 142.7 575.8 142.8 C 576.4 142.7 568.4 142.8 564.0 142.7 C 568.0 142.9 565.1 143.0 563.3 143.2 C 561.9 143.1 563.2 143.1 560.7 142.9 C 558.7 142.9 557.8 143.0 557.1 142.9 C 555.5 143.0 556.3 143.1 556.2 143.2 C 553.4 143.2 555.2 142.9 551.3 142.9 C 554.5 143.2 551.1 143.3 545.7 143.2 C 546.1 143.3 547.8 143.3 548.1 143.4 C 547.4 143.5 544.1 143.3 543.3 143.2 C 541.3 143.2 542.7 143.3 544.5 143.3 C 543.4 143.4 542.3 143.4 541.1 143.5 C 547.0 143.5 556.2 143.5 567.3 143.7 C 565.0 143.6 567.4 143.5 570.7 143.6 C 571.2 143.7 569.9 143.7 568.4 143.7 C 572.4 144.0 571.7 143.5 577.7 143.6 C 580.9 143.7 574.3 143.7 577.9 143.8 C 578.5 143.8 579.0 143.8 579.4 143.8 C 579.4 142.3 579.3 141.2 579.5 140.6 C 579.4 136.5 579.2 135.3 579.2 129.2 C 579.1 132.6 578.7 133.8 578.8 137.4 C 578.8 137.5 578.8 135.9 578.8 135.0 C 578.8 135.0 578.8 135.0 578.8 135.0 Z M 525.2 73.8 C 523.2 73.8 522.0 73.9 521.7 73.8 C 518.1 73.9 522.0 74.0 522.6 74.0 C 524.3 74.0 524.9 73.9 525.2 73.8 C 525.2 73.8 525.2 73.8 525.2 73.8 Z M 166.8 73.8 C 162.3 73.8 163.3 74.0 159.7 74.0 C 162.6 74.0 163.4 74.2 168.1 74.2 C 168.3 74.0 168.2 73.9 166.8 73.8 C 166.8 73.8 166.8 73.8 166.8 73.8 Z M 536.9 73.9 C 539.9 73.7 533.2 74.2 533.4 74.0 C 529.9 74.1 536.4 74.1 533.1 74.3 C 536.1 74.2 537.7 74.3 541.3 74.2 C 541.3 74.1 538.4 74.1 535.6 74.1 C 535.3 74.0 536.8 74.0 536.9 73.9 C 536.9 73.9 536.9 73.9 536.9 73.9 Z M 212.9 74.3 C 216.0 74.1 209.9 74.0 208.1 73.9 C 208.0 74.1 208.9 74.1 212.9 74.3 C 212.9 74.3 212.9 74.3 212.9 74.3 Z M 136.2 74.1 C 134.7 74.3 141.5 74.1 139.9 74.3 C 142.0 74.4 142.2 74.3 142.3 74.2 C 143.3 74.3 146.7 74.2 145.8 74.4 C 146.5 74.6 140.5 74.4 142.5 74.6 C 140.5 74.6 140.4 74.5 138.9 74.5 C 142.3 74.5 140.6 74.3 136.3 74.3 C 136.4 74.5 138.4 74.4 136.5 74.5 C 136.2 74.4 133.9 74.3 133.9 74.0 C 130.3 74.1 132.6 74.4 128.2 74.4 C 128.6 74.5 131.4 74.5 133.0 74.5 C 132.7 74.7 128.4 74.4 129.5 74.6 C 128.5 74.5 126.0 74.4 125.8 74.2 C 129.0 74.2 131.2 74.0 133.9 73.9 C 131.3 73.8 127.8 74.2 123.4 74.1 C 123.9 74.2 121.2 74.2 122.3 74.4 C 118.8 74.3 120.3 74.1 120.9 74.1 C 120.0 73.9 113.3 74.0 113.9 74.2 C 113.3 74.0 105.3 74.1 105.8 74.3 C 103.3 74.1 99.8 74.4 98.6 74.2 C 97.3 74.2 94.5 74.2 91.5 74.2 C 90.9 74.4 96.0 74.3 96.4 74.5 C 97.4 74.6 90.9 74.4 91.8 74.6 C 91.8 74.6 91.9 74.7 91.9 74.7 C 94.2 74.7 96.6 74.6 98.9 74.5 C 100.6 74.6 98.5 74.6 99.0 74.7 C 100.5 74.6 107.9 74.4 108.4 74.7 C 113.4 74.6 117.0 74.7 118.9 74.5 C 121.9 74.5 117.3 74.6 119.1 74.8 C 127.8 74.5 138.7 74.8 145.9 74.5 C 147.5 74.5 147.0 74.7 147.3 74.8 C 157.3 74.6 148.6 74.4 156.5 74.5 C 156.6 74.6 152.8 74.6 153.1 74.8 C 155.9 74.8 156.5 74.7 160.2 74.7 C 160.1 74.6 160.1 74.6 160.1 74.5 C 163.1 74.5 162.0 74.7 163.6 74.8 C 167.4 74.7 166.4 74.6 168.4 74.8 C 171.9 74.7 175.3 74.7 179.0 74.8 C 181.4 74.6 176.7 74.4 172.9 74.4 C 173.1 74.3 174.1 74.3 174.1 74.2 C 178.5 74.4 179.3 74.7 186.0 74.8 C 180.9 74.6 188.6 74.7 189.6 74.8 C 192.3 74.8 190.2 74.6 188.3 74.6 C 188.6 74.5 190.4 74.6 190.6 74.7 C 190.9 74.4 184.4 74.2 177.7 74.4 C 180.7 74.0 172.9 74.4 176.3 74.0 C 170.8 74.1 175.6 74.3 169.4 74.2 C 170.0 74.3 171.2 74.4 171.8 74.5 C 167.1 74.5 168.3 74.2 163.4 74.3 C 162.7 74.5 165.9 74.4 165.9 74.5 C 160.5 74.4 158.7 74.3 155.1 74.1 C 154.4 74.2 155.5 74.4 149.3 74.3 C 149.3 74.2 149.3 74.2 149.3 74.2 C 152.1 74.2 152.7 73.9 145.5 73.9 C 145.1 74.0 147.3 74.0 149.2 74.0 C 148.4 74.1 146.1 74.1 143.4 74.2 C 142.0 74.1 140.4 74.1 142.2 74.0 C 141.0 73.9 140.1 74.2 136.2 74.1 C 136.2 74.1 136.2 74.1 136.2 74.1 Z M 467.3 73.9 C 466.4 74.0 465.5 74.0 463.7 74.0 C 462.8 74.1 466.1 74.1 466.0 74.2 C 468.5 74.2 466.7 74.0 467.3 73.9 C 467.3 73.9 467.3 73.9 467.3 73.9 Z M 500.2 74.0 C 500.1 73.9 498.2 74.1 495.5 74.0 C 494.6 74.2 497.8 74.2 497.8 74.3 C 500.9 74.3 497.2 74.0 500.2 74.0 C 500.2 74.0 500.2 74.0 500.2 74.0 Z M 486.1 74.0 C 485.0 73.9 484.8 74.1 487.3 74.1 C 487.0 74.2 486.4 74.3 484.8 74.3 C 486.3 74.5 487.7 74.2 490.6 74.3 C 489.7 74.2 488.1 74.1 486.1 74.0 C 486.1 74.0 486.1 74.0 486.1 74.0 Z M 481.4 74.0 C 479.6 74.2 478.5 74.0 475.5 74.1 C 476.1 74.2 482.7 74.2 483.8 74.1 C 484.9 74.0 477.9 74.0 481.4 74.0 C 481.4 74.0 481.4 74.0 481.4 74.0 Z M 260.0 74.5 C 258.8 74.5 259.1 74.6 258.8 74.6 C 255.1 74.4 250.1 74.4 254.1 74.2 C 250.3 74.3 246.7 74.1 243.5 74.0 C 240.7 74.0 242.2 74.2 240.0 74.2 C 236.5 74.2 241.8 74.1 241.1 74.0 C 240.4 73.9 239.4 74.2 235.2 74.1 C 236.5 74.4 231.7 74.1 233.0 74.4 C 230.7 74.3 230.0 74.4 227.0 74.4 C 227.4 74.5 230.3 74.5 230.6 74.6 C 232.2 74.8 232.2 74.5 229.5 74.5 C 231.0 74.3 235.2 74.6 236.5 74.5 C 238.0 74.7 232.7 74.5 234.2 74.7 C 235.2 74.7 236.3 74.7 236.5 74.6 C 238.2 74.6 239.4 74.7 240.1 74.8 C 239.0 74.8 238.9 74.7 238.9 74.7 C 236.7 74.7 241.1 75.0 236.6 75.0 C 237.4 75.1 239.3 75.1 239.0 75.2 C 240.4 75.3 238.9 74.7 243.6 74.9 C 246.7 74.7 236.3 74.7 238.8 74.3 C 245.4 74.4 241.8 74.7 247.0 74.7 C 247.0 74.6 246.9 74.5 248.3 74.5 C 248.0 74.5 246.1 74.5 244.7 74.5 C 244.9 74.4 246.9 74.4 248.3 74.4 C 248.0 74.4 247.0 74.4 247.0 74.3 C 251.5 74.4 251.1 74.7 247.1 74.8 C 247.2 75.0 252.7 75.0 254.2 74.9 C 252.7 74.7 254.3 74.8 253.0 74.6 C 251.8 74.6 252.1 74.7 251.7 74.7 C 249.7 74.7 251.6 74.6 251.7 74.5 C 254.1 74.6 254.0 74.7 256.4 74.6 C 255.9 74.6 255.3 74.7 255.3 74.8 C 256.5 74.8 257.7 74.8 258.9 74.8 C 258.7 74.7 260.2 74.6 260.0 74.5 C 260.0 74.5 260.0 74.5 260.0 74.5 Z M 198.7 74.0 C 194.8 74.0 196.9 74.2 198.7 74.2 C 198.0 74.2 196.6 74.3 195.2 74.3 C 196.4 74.4 197.4 74.3 201.1 74.4 C 198.0 74.6 201.4 74.9 207.2 74.9 C 208.8 74.5 203.9 74.5 205.8 74.3 C 201.6 74.4 199.2 74.3 198.7 74.0 C 198.7 74.0 198.7 74.0 198.7 74.0 Z M 522.6 74.1 C 520.3 74.1 517.9 74.1 515.6 74.1 C 515.7 74.3 522.9 74.4 522.6 74.1 C 522.6 74.1 522.6 74.1 522.6 74.1 Z M 536.3 143.3 C 535.3 143.3 535.2 143.2 535.0 143.2 C 531.6 143.2 536.8 143.3 535.3 143.5 C 536.6 143.5 537.7 143.5 538.8 143.5 C 539.0 143.4 533.9 143.3 537.5 143.3 C 537.2 143.2 536.3 143.2 536.3 143.3 C 536.3 143.3 536.3 143.3 536.3 143.3 Z M 469.6 74.2 C 467.4 74.2 468.6 74.5 463.5 74.4 C 465.2 74.5 466.4 74.5 469.4 74.5 C 469.5 74.4 469.5 74.3 469.6 74.2 C 469.6 74.2 469.6 74.2 469.6 74.2 Z M 277.6 74.2 C 274.6 74.0 273.9 74.5 268.2 74.3 C 271.1 74.6 274.3 74.3 277.6 74.2 C 277.6 74.2 277.6 74.2 277.6 74.2 Z M 82.3 74.5 C 84.1 74.6 82.0 74.6 84.9 74.7 C 86.4 74.6 87.1 74.5 89.5 74.5 C 86.0 74.3 80.2 74.5 77.5 74.2 C 74.7 74.3 75.1 74.5 74.3 74.6 C 75.6 74.6 76.3 74.6 76.6 74.6 C 78.1 74.4 80.5 74.8 82.3 74.5 C 82.3 74.5 82.3 74.5 82.3 74.5 Z M 214.1 74.3 C 216.3 74.5 212.6 74.5 211.8 74.6 C 210.2 74.6 210.8 74.5 210.5 74.4 C 208.5 74.4 207.9 74.5 208.3 74.6 C 212.2 74.7 217.0 74.7 214.2 74.9 C 218.0 75.0 215.9 74.7 217.7 74.7 C 219.8 74.8 217.9 74.9 217.8 75.1 C 218.7 75.0 221.5 74.8 221.4 75.1 C 226.9 74.8 224.3 74.5 220.0 74.2 C 216.3 74.4 220.6 74.5 214.1 74.3 C 214.1 74.3 214.1 74.3 214.1 74.3 Z M 363.5 74.5 C 363.2 74.5 361.1 74.5 361.2 74.4 C 358.6 74.6 356.4 74.8 354.0 74.9 C 354.5 75.1 357.7 75.0 356.4 74.8 C 357.4 75.0 359.6 75.0 361.0 75.1 C 363.4 75.2 364.3 74.8 364.5 75.1 C 366.9 75.0 365.5 75.0 369.2 75.0 C 363.3 74.8 371.3 74.9 371.7 74.7 C 368.3 74.7 365.3 74.7 365.7 74.9 C 363.2 74.8 360.5 74.8 360.0 74.6 C 360.2 74.5 362.2 74.5 363.5 74.5 C 363.5 74.5 363.5 74.5 363.5 74.5 Z M 349.3 75.1 C 350.2 75.0 351.2 75.0 352.8 75.0 C 351.9 75.0 351.5 74.9 351.7 74.8 C 348.7 74.8 348.0 74.9 347.0 74.7 C 344.2 74.7 347.6 75.0 343.4 74.9 C 343.7 75.0 345.8 74.9 345.8 75.0 C 346.1 74.9 347.9 74.8 349.3 75.1 C 349.3 75.1 349.3 75.1 349.3 75.1 Z M 312.9 74.7 C 309.9 74.7 314.5 74.8 312.9 74.9 C 313.7 74.9 319.6 75.0 318.8 75.1 C 320.4 75.4 326.4 74.9 325.8 75.2 C 327.2 75.2 326.8 75.1 327.0 75.0 C 322.9 75.1 322.9 74.9 325.9 74.9 C 325.4 74.8 322.9 74.8 321.2 74.8 C 320.9 74.9 322.5 75.0 322.3 75.1 C 318.8 75.0 316.1 74.8 312.9 74.7 C 312.9 74.7 312.9 74.7 312.9 74.7 Z M 408.1 142.9 C 410.8 142.9 412.5 142.9 413.9 142.8 C 413.0 142.7 411.7 142.8 410.3 142.8 C 409.9 142.7 411.2 142.7 412.7 142.7 C 411.2 142.5 406.4 142.7 408.1 142.9 C 408.1 142.9 408.1 142.9 408.1 142.9 Z M 431.5 142.9 C 434.2 142.9 435.9 142.9 436.1 142.8 C 435.0 142.7 435.5 142.8 433.8 142.8 C 432.7 142.8 432.0 142.7 431.4 142.6 C 430.2 142.6 430.5 142.7 430.2 142.8 C 429.3 142.8 429.1 142.7 429.0 142.7 C 425.9 142.9 432.8 142.7 431.5 142.9 C 431.5 142.9 431.5 142.9 431.5 142.9 Z M 332.9 74.8 C 333.9 74.9 334.7 75.0 337.5 75.0 C 337.0 74.9 339.3 74.9 341.1 74.9 C 338.4 74.7 337.0 74.8 332.9 74.8 C 332.9 74.8 332.9 74.8 332.9 74.8 Z M 578.1 142.8 C 578.2 142.8 578.3 142.8 578.4 142.8 C 578.6 139.6 578.3 139.5 578.4 134.7 C 578.4 134.6 578.3 134.6 578.2 134.6 C 578.4 137.7 578.3 139.0 578.4 142.8 C 578.3 142.8 578.2 142.8 578.1 142.8 C 578.1 142.8 578.1 142.8 578.1 142.8 Z M 93.6 142.8 C 93.9 142.6 90.2 142.7 90.0 142.6 C 89.4 142.9 87.4 142.4 80.6 142.5 C 80.5 142.4 80.9 142.4 81.8 142.3 C 76.2 142.3 83.5 142.5 84.2 142.7 C 88.5 142.7 89.2 142.8 93.6 142.8 C 93.6 142.8 93.6 142.8 93.6 142.8 Z M 118.0 75.1 C 118.2 75.0 117.5 75.0 116.8 75.0 C 116.0 75.0 115.2 75.0 114.5 75.0 C 114.9 75.3 118.9 75.4 116.0 75.6 C 117.1 75.6 117.2 75.6 117.1 75.6 C 122.5 75.0 127.5 75.9 134.7 75.6 C 135.9 75.5 135.6 75.5 135.8 75.4 C 134.9 75.4 134.8 75.4 134.6 75.4 C 133.9 75.6 127.0 75.3 129.9 75.2 C 129.6 75.2 128.7 75.2 128.7 75.2 C 127.9 75.2 127.1 75.2 126.3 75.2 C 126.8 75.3 128.5 75.3 128.8 75.4 C 125.0 75.4 120.4 75.3 122.7 75.1 C 120.4 75.1 119.7 75.2 118.1 75.2 C 116.6 75.2 116.5 75.1 118.0 75.1 C 118.0 75.1 118.0 75.1 118.0 75.1 Z M 87.6 75.1 C 83.9 75.1 85.4 75.3 81.7 75.2 C 84.1 75.4 86.8 75.2 90.0 75.3 C 89.5 75.2 87.9 75.2 87.6 75.1 C 87.6 75.1 87.6 75.1 87.6 75.1 Z M 155.7 75.4 C 155.1 75.6 158.3 75.6 161.7 75.6 C 162.3 75.4 159.2 75.4 155.7 75.4 C 155.7 75.4 155.7 75.4 155.7 75.4 Z M 140.5 75.4 C 137.1 75.4 144.8 75.4 143.0 75.6 C 144.6 75.6 146.3 75.6 146.5 75.7 C 147.7 75.6 147.6 75.5 149.9 75.5 C 149.8 75.4 146.0 75.5 146.3 75.4 C 143.7 75.5 143.3 75.5 140.5 75.4 C 140.5 75.4 140.5 75.4 140.5 75.4 Z M 138.2 75.4 C 135.9 75.4 138.9 75.7 141.8 75.7 C 140.7 75.6 139.9 75.5 138.2 75.4 C 138.2 75.4 138.2 75.4 138.2 75.4 Z M 412.5 75.4 C 410.9 75.4 412.0 75.6 410.1 75.6 C 410.1 75.7 417.0 75.7 411.2 75.7 C 413.3 75.9 414.5 75.6 417.2 75.7 C 416.4 75.6 415.7 75.6 417.2 75.5 C 418.1 75.4 411.6 75.6 412.5 75.4 C 412.5 75.4 412.5 75.4 412.5 75.4 Z M 405.5 75.4 C 404.1 75.4 404.8 75.5 405.5 75.5 C 405.2 75.6 403.3 75.5 401.9 75.5 C 401.8 75.5 404.3 75.8 404.1 76.0 C 410.1 75.8 405.6 75.6 405.5 75.4 C 405.5 75.4 405.5 75.4 405.5 75.4 Z M 399.6 75.5 C 395.8 75.4 390.4 75.4 387.8 75.6 C 390.5 75.9 397.7 75.8 399.6 75.5 C 399.6 75.5 399.6 75.5 399.6 75.5 Z M 438.2 75.6 C 431.3 75.4 417.4 75.7 429.9 75.8 C 429.5 75.7 437.7 75.6 441.7 75.7 C 441.8 75.6 446.4 75.5 446.4 75.6 C 449.6 75.5 436.7 75.4 438.2 75.6 C 438.2 75.6 438.2 75.6 438.2 75.6 Z M 383.0 76.0 C 385.0 75.9 382.6 75.6 385.5 75.7 C 387.2 75.6 385.1 75.6 385.6 75.5 C 381.9 75.5 374.4 75.7 373.8 75.5 C 372.0 75.6 371.3 75.7 367.9 75.7 C 367.8 75.8 380.4 75.5 383.1 75.8 C 382.8 75.9 378.2 76.0 383.0 76.0 C 383.0 76.0 383.0 76.0 383.0 76.0 Z M 577.0 141.7 C 577.0 141.7 577.1 141.7 577.4 141.8 C 577.5 140.8 577.4 137.8 577.6 138.7 C 577.4 135.9 577.5 133.5 577.3 130.5 C 577.4 129.6 577.7 130.1 577.7 126.0 C 577.5 125.8 577.6 127.9 577.5 125.9 C 577.4 122.1 577.6 123.3 577.6 118.9 C 577.3 119.5 577.5 109.8 577.2 110.7 C 577.2 112.9 577.4 112.8 577.3 116.6 C 577.3 117.8 577.2 117.2 577.2 118.8 C 577.0 117.6 577.3 115.8 577.2 114.2 C 577.0 114.5 577.0 117.3 576.9 117.6 C 576.9 119.3 577.0 117.2 577.1 117.6 C 577.1 122.1 576.7 117.2 576.7 122.1 C 576.9 121.2 576.9 121.2 577.1 122.2 C 577.0 124.1 577.1 130.1 576.9 126.7 C 576.8 127.0 577.0 130.7 577.1 130.3 C 577.1 132.2 577.0 132.4 577.0 132.5 C 577.1 137.5 577.2 138.3 577.4 137.4 C 577.6 138.6 577.3 139.0 577.3 141.7 C 577.2 141.7 577.1 141.7 577.0 141.7 C 577.0 141.7 577.0 141.7 577.0 141.7 Z M 475.6 75.7 C 478.5 75.5 472.5 75.7 469.8 75.7 C 473.1 75.7 471.9 75.9 475.4 76.0 C 474.2 75.9 474.5 75.8 476.8 75.8 C 477.4 75.8 472.3 75.7 475.6 75.7 C 475.6 75.7 475.6 75.7 475.6 75.7 Z M 360.8 75.7 C 359.6 75.5 353.5 75.6 350.3 75.6 C 350.9 75.9 358.7 75.5 359.7 75.8 C 361.5 75.8 358.7 75.7 360.8 75.7 C 360.8 75.7 360.8 75.7 360.8 75.7 Z M 577.6 97.8 C 577.6 96.6 577.5 97.3 577.5 97.8 C 577.4 97.5 577.5 95.0 577.5 93.2 C 577.3 95.9 577.3 92.7 577.1 93.4 C 577.1 92.0 577.1 91.4 577.0 91.2 C 577.4 90.9 576.8 84.0 576.8 91.3 C 577.0 89.9 577.0 90.4 577.0 93.4 C 576.9 96.7 577.1 99.2 576.9 100.4 C 576.9 102.5 577.0 103.3 577.0 106.1 C 576.8 106.8 576.8 109.3 576.5 107.2 C 576.5 112.2 576.9 108.9 577.0 113.0 C 576.9 116.9 576.8 111.0 576.6 111.9 C 576.6 112.9 576.5 112.6 576.5 112.9 C 576.5 114.4 576.7 114.4 576.7 113.0 C 576.7 113.4 576.9 117.5 576.7 116.3 C 576.8 118.7 577.2 112.8 577.0 109.5 C 577.0 107.6 577.4 107.6 577.3 109.6 C 577.5 108.9 577.1 105.1 577.5 106.0 C 577.5 104.4 577.5 103.0 577.5 101.4 C 577.4 101.6 577.4 102.5 577.3 102.5 C 577.3 101.1 577.3 99.5 577.3 97.9 C 577.4 99.2 577.5 99.2 577.6 97.8 C 577.6 97.8 577.6 97.8 577.6 97.8 Z M 376.1 75.7 C 373.2 75.7 372.5 75.8 370.2 75.8 C 371.0 76.0 377.4 75.9 376.1 75.7 C 376.1 75.7 376.1 75.7 376.1 75.7 Z M 556.5 141.1 C 556.9 141.2 558.9 141.2 559.0 141.3 C 555.4 141.3 559.6 141.4 557.1 141.7 C 561.6 141.6 562.8 141.2 556.4 141.0 C 551.9 141.1 561.2 141.1 556.5 141.1 C 556.5 141.1 556.5 141.1 556.5 141.1 Z M 570.8 141.3 C 573.5 141.2 566.3 141.1 564.6 141.0 C 564.5 141.0 564.5 140.9 564.4 140.8 C 560.7 141.1 566.2 141.2 562.9 141.6 C 567.5 141.7 569.5 141.7 573.4 141.6 C 573.1 141.6 572.2 141.6 572.3 141.6 C 569.3 141.6 571.1 141.3 574.4 141.4 C 573.4 141.4 570.5 141.4 568.4 141.3 C 569.1 141.4 569.8 141.4 569.8 141.5 C 567.3 141.5 568.0 141.4 566.2 141.4 C 566.1 141.3 570.5 141.2 570.8 141.3 C 570.8 141.3 570.8 141.3 570.8 141.3 Z M 340.4 141.6 C 342.8 141.5 337.7 141.3 337.8 141.0 C 335.3 141.0 334.7 141.1 333.1 141.1 C 334.0 141.2 336.8 141.2 338.0 141.3 C 337.6 141.6 334.3 141.3 333.4 141.4 C 332.0 141.7 339.2 141.3 340.4 141.6 C 340.4 141.6 340.4 141.6 340.4 141.6 Z M 544.4 76.0 C 543.2 76.0 543.8 76.1 544.4 76.1 C 544.1 76.2 542.0 76.2 542.1 76.1 C 540.2 76.1 543.0 76.2 540.8 76.2 C 540.3 76.3 544.2 76.2 544.3 76.2 C 546.9 76.1 544.7 76.4 545.3 76.4 C 547.6 76.4 546.9 76.3 550.1 76.3 C 548.2 76.2 546.6 76.1 544.4 76.0 C 544.4 76.0 544.4 76.0 544.4 76.0 Z M 548.8 141.5 C 548.4 141.6 551.2 141.2 554.5 141.4 C 558.6 141.4 551.8 141.2 555.4 141.2 C 552.3 141.2 548.7 141.3 543.9 141.3 C 542.9 141.4 550.6 141.4 546.3 141.4 C 546.6 141.5 547.6 141.5 547.6 141.4 C 548.5 141.4 548.6 141.5 548.8 141.5 C 548.8 141.5 548.8 141.5 548.8 141.5 Z M 553.0 141.1 C 552.7 141.0 551.7 141.1 551.8 141.1 C 550.3 141.1 550.1 140.9 551.6 140.9 C 549.5 140.7 549.9 141.1 545.8 141.0 C 547.7 141.1 548.6 141.2 544.8 141.1 C 542.0 141.3 551.8 141.2 553.0 141.1 C 553.0 141.1 553.0 141.1 553.0 141.1 Z M 377.7 141.4 C 377.4 141.4 374.9 141.4 373.0 141.4 C 375.2 141.2 384.7 141.3 386.0 141.4 C 387.0 141.4 388.0 141.4 388.4 141.4 C 388.2 141.4 390.8 141.3 389.4 141.3 C 389.6 141.2 391.6 141.2 391.6 141.1 C 395.1 141.2 390.6 141.3 391.7 141.4 C 395.8 141.2 395.0 141.4 400.0 141.4 C 399.0 141.2 393.6 141.3 393.9 141.0 C 390.2 141.2 385.8 141.1 383.3 140.9 C 387.2 141.2 373.6 141.3 367.1 141.3 C 367.3 141.1 365.0 141.2 362.3 141.1 C 360.4 140.9 361.2 141.3 364.7 141.2 C 364.7 141.3 359.8 141.2 357.8 141.3 C 360.2 141.4 358.9 141.5 360.2 141.5 C 364.8 141.5 360.6 141.5 361.4 141.3 C 362.5 141.3 363.6 141.3 364.9 141.3 C 358.9 141.6 373.8 141.4 368.4 141.4 C 373.1 141.4 373.4 141.6 377.7 141.4 C 377.7 141.4 377.7 141.4 377.7 141.4 Z M 487.8 141.5 C 488.6 141.5 492.2 141.4 492.5 141.5 C 497.2 141.4 492.8 141.2 498.2 141.2 C 497.8 141.1 495.7 141.2 495.7 141.1 C 493.7 141.1 491.7 141.2 492.4 141.4 C 490.0 141.4 489.3 141.4 487.8 141.4 C 488.3 141.4 489.1 141.3 491.2 141.3 C 491.4 141.2 490.5 141.1 487.5 141.1 C 486.2 141.2 487.2 141.4 487.8 141.5 C 487.8 141.5 487.8 141.5 487.8 141.5 Z M 499.4 141.3 C 500.0 141.3 500.7 141.4 500.7 141.4 C 502.5 141.6 501.1 141.2 502.8 141.2 C 504.2 141.2 503.9 141.3 504.1 141.4 C 506.2 141.3 507.7 141.3 508.8 141.4 C 511.9 141.3 505.0 141.2 503.9 141.1 C 501.7 141.1 502.6 141.3 499.4 141.3 C 499.4 141.3 499.4 141.3 499.4 141.3 Z M 534.7 141.4 C 535.4 141.6 536.4 141.4 538.0 141.4 C 536.7 141.2 533.4 141.3 535.5 141.1 C 532.0 141.0 531.8 141.0 528.4 141.1 C 526.1 140.9 528.4 141.2 532.0 141.1 C 531.6 141.2 530.0 141.2 529.9 141.3 C 527.3 141.0 521.8 141.5 525.1 141.3 C 526.2 141.3 527.0 141.4 527.6 141.5 C 528.2 141.3 536.3 141.4 534.7 141.4 C 534.7 141.4 534.7 141.4 534.7 141.4 Z M 568.7 76.4 C 573.0 76.4 573.4 76.3 576.9 76.4 C 576.9 76.7 576.9 77.1 576.9 77.5 C 576.8 77.7 576.8 77.4 576.8 76.5 C 576.7 77.6 576.8 79.0 576.8 81.0 C 576.9 80.8 576.8 79.8 576.8 79.8 C 576.9 76.0 576.9 79.2 577.1 79.6 C 577.1 78.4 577.1 77.2 577.1 76.2 C 574.1 76.2 571.4 76.3 570.1 76.2 C 568.3 76.2 570.3 76.2 568.7 76.4 C 568.7 76.4 568.7 76.4 568.7 76.4 Z M 98.0 141.3 C 97.3 141.3 95.4 141.3 95.8 141.4 C 97.5 141.4 98.7 141.4 100.4 141.3 C 97.1 141.3 97.5 141.0 93.3 141.0 C 94.7 141.1 94.4 141.3 98.0 141.3 C 98.0 141.3 98.0 141.3 98.0 141.3 Z M 522.9 141.4 C 522.7 141.3 522.5 141.2 523.8 141.2 C 524.2 141.1 520.5 141.1 520.2 141.0 C 519.0 141.0 519.6 141.1 518.0 141.1 C 518.6 141.2 521.7 141.2 520.6 141.4 C 519.6 141.4 519.4 141.4 519.3 141.3 C 516.9 141.4 520.6 141.5 522.9 141.4 C 522.9 141.4 522.9 141.4 522.9 141.4 Z M 328.6 141.4 C 330.2 141.4 328.6 141.3 327.3 141.3 C 330.6 141.1 325.1 141.0 324.8 140.8 C 326.3 140.9 331.0 140.9 331.8 140.9 C 333.1 140.9 331.4 140.7 335.2 140.7 C 334.6 140.5 330.6 140.7 331.7 140.8 C 330.6 140.6 326.7 140.8 326.9 140.6 C 321.7 140.6 320.5 140.7 320.2 140.9 C 325.2 140.8 322.8 141.1 327.2 141.1 C 327.3 141.1 325.9 141.1 325.0 141.1 C 325.4 141.3 327.3 141.3 328.6 141.4 C 328.6 141.4 328.6 141.4 328.6 141.4 Z M 450.3 141.4 C 452.9 141.4 452.7 141.2 452.4 141.1 C 451.5 141.1 449.9 141.2 447.8 141.1 C 448.3 141.2 451.5 141.2 450.3 141.4 C 450.3 141.4 450.3 141.4 450.3 141.4 Z M 347.2 141.1 C 347.5 141.2 348.4 141.2 348.4 141.1 C 351.3 141.1 352.1 141.2 353.1 141.3 C 354.7 141.3 354.1 141.2 354.1 141.1 C 351.5 141.2 351.9 141.0 348.3 141.0 C 348.6 141.1 348.1 141.1 347.2 141.1 C 347.2 141.1 347.2 141.1 347.2 141.1 Z M 425.7 141.3 C 427.0 141.3 426.3 141.2 425.6 141.2 C 427.1 141.0 432.0 141.2 433.7 141.1 C 433.9 140.9 427.9 141.0 434.7 140.9 C 433.4 140.8 427.3 140.9 424.2 140.8 C 424.8 140.7 429.0 140.7 428.6 140.5 C 425.1 140.6 421.1 140.7 420.8 141.0 C 426.0 141.0 424.3 141.1 425.7 141.3 C 425.7 141.3 425.7 141.3 425.7 141.3 Z M 419.8 141.1 C 420.3 141.2 421.2 141.1 423.2 141.1 C 420.2 140.9 418.5 141.0 412.6 141.0 C 412.6 141.0 412.6 141.0 412.6 141.1 C 411.5 141.1 410.2 141.1 409.1 141.1 C 414.4 141.3 415.5 141.1 420.9 141.1 C 421.1 141.1 420.4 141.1 419.8 141.1 C 419.8 141.1 419.8 141.1 419.8 141.1 Z M 576.5 141.1 C 574.8 141.0 573.3 140.9 570.4 140.9 C 570.8 141.1 572.6 141.2 576.5 141.1 C 576.5 141.1 576.5 141.1 576.5 141.1 Z M 342.5 141.0 C 339.3 141.1 345.5 141.0 343.5 140.8 C 340.9 140.8 338.2 140.7 337.5 140.5 C 333.0 140.8 342.9 140.8 342.5 141.0 C 342.5 141.0 342.5 141.0 342.5 141.0 Z M 363.2 140.6 C 364.6 140.6 364.7 140.9 363.3 140.7 C 360.0 140.7 366.2 140.9 361.1 140.8 C 363.3 140.9 368.2 141.0 370.4 140.9 C 370.2 140.8 365.8 140.8 365.6 140.7 C 365.4 140.6 366.0 140.6 366.7 140.6 C 366.2 140.5 365.3 140.6 363.2 140.6 C 363.2 140.6 363.2 140.6 363.2 140.6 Z M 380.9 140.9 C 378.9 140.8 376.6 140.7 372.6 140.7 C 375.3 140.8 376.9 141.0 380.9 140.9 C 380.9 140.9 380.9 140.9 380.9 140.9 Z M 159.9 140.7 C 162.8 140.7 160.2 140.5 159.8 140.4 C 157.0 140.4 157.3 140.5 153.9 140.5 C 155.0 140.7 158.0 140.5 159.9 140.7 C 159.9 140.7 159.9 140.7 159.9 140.7 Z M 149.4 140.5 C 149.0 140.4 144.9 140.5 144.7 140.4 C 142.4 140.7 138.6 140.2 138.8 140.4 C 137.9 140.4 136.9 140.4 135.2 140.4 C 138.6 140.7 145.9 140.6 149.4 140.5 C 149.4 140.5 149.4 140.5 149.4 140.5 Z M 400.6 140.5 C 403.7 140.6 399.5 140.3 402.7 140.3 C 402.9 140.2 396.7 140.2 400.3 140.1 C 395.5 140.0 400.9 140.5 400.6 140.5 C 400.6 140.5 400.6 140.5 400.6 140.5 Z M 457.7 140.4 C 457.6 140.5 461.8 140.4 463.5 140.4 C 463.5 140.4 462.1 140.4 461.2 140.4 C 461.6 140.3 462.2 140.3 463.4 140.2 C 462.4 140.1 459.4 140.4 457.7 140.4 C 457.7 140.4 457.7 140.4 457.7 140.4 Z M 396.8 143.7 C 394.8 143.5 392.2 143.4 391.0 143.6 C 388.8 143.5 392.2 143.4 389.6 143.3 C 386.3 143.4 387.8 143.2 382.5 143.3 C 383.4 143.1 379.5 143.1 378.7 142.9 C 380.9 142.9 383.8 143.1 384.7 142.9 C 382.8 143.0 383.8 142.8 384.6 142.9 C 388.3 143.0 380.4 143.1 384.9 143.3 C 386.0 143.0 392.6 143.4 396.7 143.4 C 395.2 143.6 399.9 143.7 396.8 143.7 C 396.8 143.7 396.8 143.7 396.8 143.7 Z M 375.5 143.3 C 372.7 143.3 370.9 142.9 371.7 142.9 C 371.8 143.0 375.0 143.0 375.3 142.9 C 374.5 142.9 373.8 142.9 374.0 142.9 C 379.3 142.9 377.5 143.1 378.9 143.2 C 376.1 143.3 375.2 143.2 374.2 143.2 C 374.9 143.3 375.6 143.3 375.5 143.3 C 375.5 143.3 375.5 143.3 375.5 143.3 Z M 311.6 140.3 C 312.3 140.4 312.9 140.3 314.0 140.2 C 314.4 140.5 320.1 140.2 321.0 140.3 C 319.7 140.4 316.6 140.4 315.3 140.5 C 316.9 140.5 317.2 140.6 318.8 140.5 C 318.5 140.7 315.1 140.7 314.3 140.8 C 313.9 140.7 312.4 140.8 311.9 140.7 C 316.4 140.6 309.0 140.3 311.6 140.3 C 311.6 140.3 311.6 140.3 311.6 140.3 Z M 427.2 140.3 C 427.5 140.1 422.2 139.7 426.6 139.5 C 427.7 139.6 428.4 139.8 428.3 140.0 C 431.0 139.9 432.4 140.1 434.0 139.9 C 439.7 140.4 429.8 139.8 427.2 140.3 C 427.2 140.3 427.2 140.3 427.2 140.3 Z M 445.9 140.1 C 445.0 140.3 447.6 140.3 447.3 140.4 C 444.9 140.3 437.7 140.5 440.1 140.4 C 442.5 140.3 442.4 140.1 445.9 140.1 C 445.9 140.1 445.9 140.1 445.9 140.1 Z M 291.7 75.9 C 295.5 75.8 297.4 76.1 295.3 76.2 C 296.2 76.0 290.5 76.1 291.7 75.9 C 291.7 75.9 291.7 75.9 291.7 75.9 Z M 428.9 73.0 C 425.5 72.9 423.5 73.0 423.1 72.8 C 426.5 72.8 426.1 72.9 429.0 72.9 C 429.2 72.8 431.0 72.8 431.3 72.8 C 429.7 72.9 430.0 73.0 428.9 73.0 C 428.9 73.0 428.9 73.0 428.9 73.0 Z M 520.9 144.4 C 521.3 144.5 522.7 144.5 522.2 144.6 C 518.6 144.6 514.7 144.7 511.8 144.8 C 511.8 144.7 511.7 144.6 511.6 144.6 C 517.3 144.6 518.7 144.5 520.9 144.4 C 520.9 144.4 520.9 144.4 520.9 144.4 Z M 528.3 144.7 C 528.8 144.7 526.7 144.4 529.2 144.5 C 529.2 144.6 533.8 144.8 531.8 144.8 C 531.0 144.7 529.9 144.7 528.3 144.7 C 528.3 144.7 528.3 144.7 528.3 144.7 Z M 330.0 143.8 C 327.1 143.8 331.4 143.9 331.3 144.0 C 329.2 144.0 326.3 144.0 325.4 143.9 C 327.4 143.9 328.8 143.6 330.0 143.8 C 330.0 143.8 330.0 143.8 330.0 143.8 Z M 373.2 143.4 C 379.2 143.3 376.8 143.7 382.8 143.7 C 380.5 143.8 375.1 143.8 373.5 144.0 C 373.7 143.9 372.2 143.8 372.2 143.7 C 374.4 143.7 374.8 143.8 377.0 143.8 C 376.1 143.6 376.1 143.7 376.8 143.5 C 375.2 143.5 374.2 143.5 373.3 143.5 C 373.7 143.4 371.5 143.4 373.2 143.4 C 373.2 143.4 373.2 143.4 373.2 143.4 Z M 330.9 143.3 C 328.5 143.4 326.3 143.1 328.4 143.1 C 328.8 143.2 330.3 143.1 330.8 143.2 C 327.4 143.2 333.6 143.3 332.1 143.4 C 330.0 143.4 329.4 143.5 329.9 143.6 C 328.5 143.6 326.5 143.6 326.3 143.5 C 327.2 143.5 328.6 143.5 328.6 143.5 C 327.9 143.5 327.2 143.5 327.4 143.4 C 329.5 143.4 330.3 143.4 330.9 143.3 C 330.9 143.3 330.9 143.3 330.9 143.3 Z M 347.2 143.3 C 344.0 143.3 343.6 143.1 342.4 143.0 C 346.8 143.1 347.6 143.3 350.9 143.4 C 347.3 143.4 343.9 143.6 342.7 143.5 C 344.2 143.4 347.1 143.4 347.2 143.3 C 347.2 143.3 347.2 143.3 347.2 143.3 Z M 3.4 92.1 C 3.5 89.4 3.6 87.2 3.7 84.1 C 3.5 82.9 3.2 88.4 3.3 86.1 C 3.3 82.8 3.5 85.2 3.5 82.7 C 3.4 84.3 3.3 78.7 3.4 74.7 C 5.4 74.7 7.1 74.7 7.4 74.8 C 5.3 74.8 4.7 74.9 5.3 75.0 C 4.7 75.0 4.2 75.0 3.7 75.0 C 3.7 79.4 3.9 81.7 3.9 85.4 C 3.7 88.2 3.6 97.0 3.8 101.9 C 3.5 104.8 3.9 110.6 3.6 114.8 C 3.7 116.0 3.8 111.3 3.8 114.9 C 3.6 117.1 3.6 115.2 3.5 118.3 C 3.6 118.6 3.7 117.9 3.7 119.5 C 3.6 119.3 3.6 121.2 3.5 121.9 C 3.6 115.4 3.3 122.2 3.2 117.1 C 3.3 115.0 3.6 119.4 3.5 113.6 C 3.5 111.5 3.4 109.5 3.2 109.9 C 3.2 108.2 3.2 107.3 3.2 106.2 C 3.4 108.5 3.1 98.0 3.4 102.8 C 3.4 103.2 3.4 106.4 3.4 108.8 C 3.6 106.8 3.5 104.2 3.4 100.4 C 3.6 99.0 3.6 101.3 3.7 99.4 C 3.5 96.5 3.4 100.3 3.3 98.0 C 3.3 99.0 3.3 100.4 3.2 100.3 C 3.4 95.5 3.2 93.3 3.2 90.8 C 3.4 92.6 3.4 88.0 3.4 92.1 C 3.4 92.1 3.4 92.1 3.4 92.1 Z M 3.7 135.0 C 3.7 136.1 3.7 137.3 3.7 138.6 C 3.5 138.8 3.5 134.2 3.3 137.3 C 3.3 132.0 3.5 137.5 3.7 135.0 C 3.7 135.0 3.7 135.0 3.7 135.0 Z M 4.3 111.6 C 4.5 110.0 4.1 110.7 4.1 109.1 C 4.1 112.0 4.2 114.7 4.0 114.9 C 4.0 111.6 4.0 110.1 4.0 106.6 C 4.2 110.1 4.2 103.1 4.4 102.2 C 4.4 104.8 4.5 106.9 4.5 110.5 C 4.4 109.8 4.4 115.0 4.3 111.6 C 4.3 111.6 4.3 111.6 4.3 111.6 Z M 4.6 121.1 C 4.4 121.7 4.5 126.9 4.3 125.7 C 4.4 122.6 4.3 121.4 4.1 122.1 C 4.1 119.8 4.2 119.5 4.2 117.4 C 4.4 116.2 4.4 119.9 4.5 121.1 C 4.5 120.4 4.6 119.7 4.6 121.1 C 4.6 121.1 4.6 121.1 4.6 121.1 Z M 71.0 140.7 C 72.1 140.9 67.3 140.8 66.4 140.7 C 67.7 140.9 67.1 141.0 64.1 141.0 C 65.2 140.8 60.9 140.9 58.2 140.6 C 57.6 140.8 61.0 140.9 57.0 140.9 C 53.9 140.8 51.2 140.9 46.5 141.0 C 45.5 140.8 47.5 140.7 48.8 140.7 C 45.6 140.7 46.5 140.5 44.1 140.5 C 44.6 140.6 42.6 140.7 41.8 140.6 C 45.9 140.5 36.4 140.4 40.7 140.3 C 40.9 140.4 41.9 140.3 43.0 140.3 C 41.8 140.6 47.5 140.5 48.8 140.6 C 51.0 140.2 57.1 140.3 64.0 140.5 C 64.5 140.6 62.4 140.6 64.1 140.7 C 64.3 140.6 66.6 140.6 67.6 140.5 C 67.5 140.6 68.4 140.7 69.9 140.7 C 70.0 140.7 70.1 140.7 71.0 140.7 C 71.0 140.7 71.0 140.7 71.0 140.7 Z M 179.7 76.7 C 179.6 77.0 187.1 76.8 189.1 76.7 C 188.9 77.1 175.7 77.0 179.7 76.7 C 179.7 76.7 179.7 76.7 179.7 76.7 Z M 134.4 76.9 C 136.3 76.9 134.8 76.8 136.5 76.7 C 136.7 76.9 141.0 76.6 141.2 76.7 C 139.1 76.9 137.7 76.9 134.4 76.9 C 134.4 76.9 134.4 76.9 134.4 76.9 Z M 92.2 76.9 C 95.6 76.8 90.3 76.8 91.0 76.7 C 93.9 76.7 97.0 76.7 96.9 76.9 C 94.2 76.8 92.7 77.0 92.2 76.9 C 92.2 76.9 92.2 76.9 92.2 76.9 Z M 155.4 77.1 C 158.2 77.2 153.7 77.4 153.2 77.3 C 156.2 77.2 151.1 77.1 148.5 77.2 C 148.5 76.9 149.6 77.0 148.3 76.8 C 152.3 76.7 149.1 77.0 151.9 77.0 C 153.8 76.9 151.7 76.9 151.8 76.7 C 152.9 76.7 154.1 76.7 155.2 76.7 C 155.2 76.8 155.3 76.9 155.3 77.0 C 154.0 77.1 152.6 77.1 153.1 77.2 C 154.3 77.2 154.5 77.1 155.4 77.1 C 155.4 77.1 155.4 77.1 155.4 77.1 Z M 10.3 140.3 C 8.4 140.3 10.0 140.4 11.4 140.4 C 11.8 140.3 12.9 140.0 14.9 140.2 C 10.4 140.3 16.3 140.5 13.8 140.5 C 12.8 140.4 10.0 140.6 7.9 140.5 C 7.0 140.4 9.2 140.1 10.3 140.3 C 10.3 140.3 10.3 140.3 10.3 140.3 Z M 18.5 140.4 C 18.2 140.4 17.4 140.4 16.1 140.4 C 17.6 140.2 15.5 140.2 17.3 140.1 C 17.1 140.2 23.3 140.2 19.6 140.3 C 16.4 140.2 20.5 140.4 22.0 140.4 C 20.4 140.4 17.6 140.6 17.2 140.5 C 18.0 140.5 18.7 140.5 18.5 140.4 C 18.5 140.4 18.5 140.4 18.5 140.4 Z M 94.3 140.2 C 94.7 140.1 92.7 140.1 92.0 140.0 C 97.9 140.0 103.0 140.0 106.0 140.1 C 103.3 140.1 103.3 140.2 104.9 140.3 C 101.9 140.2 101.3 140.3 100.2 140.2 C 102.7 140.1 97.9 140.2 94.3 140.2 C 94.3 140.2 94.3 140.2 94.3 140.2 Z M 94.3 140.2 " fill="#FF2600"></path></g></g><g><clipPath id="clip0x6180006bbe40"><path d="M 291.2 1.0 L 598.9 1.0 L 598.9 93.0 L 291.2 93.0 Z M 291.2 1.0 "></path></clipPath><g clip-path="url(#clip0x6180006bbe40)"><path d="M 292.0 92.0 L 598.0 92.0 L 598.0 2.0 L 292.0 2.0 Z M 292.2 92.0 " fill="#AA1802"></path></g></g><g><clipPath id="clip0x6180008a6c60"><path d="M 286.0 -4.3 L 895.9 -4.3 L 895.9 98.2 L 286.0 98.2 Z M 286.0 -4.3 "></path></clipPath><g clip-path="url(#clip0x6180008a6c60)"><text xml:space="preserve" font-family="GillSans-Light,Gill Sans" font-size="36.0" fill="#FEFFFF" transform="matrix(1.00, 0.00, -0.00, -1.00, 301.7, 55.6)">[</text><text xml:space="preserve" font-family="GillSans-Light,Gill Sans" font-size="36.0" fill="#FEFFFF" transform="matrix(1.00, 0.00, -0.00, -1.00, 312.6, 55.6)">0</text><text xml:space="preserve" font-family="GillSans-Light,Gill Sans" font-size="36.0" fill="#FEFFFF" transform="matrix(1.00, 0.00, -0.00, -1.00, 330.6, 55.6)">-</text><text xml:space="preserve" font-family="GillSans-Light,Gill Sans" font-size="36.0" fill="#FEFFFF" transform="matrix(1.00, 0.00, -0.00, -1.00, 341.9, 55.6)">1</text><text xml:space="preserve" font-family="GillSans-Light,Gill Sans" font-size="36.0" fill="#FEFFFF" transform="matrix(1.00, 0.00, -0.00, -1.00, 359.9, 55.6)">5</text><text xml:space="preserve" font-family="GillSans-Light,Gill Sans" font-size="36.0" fill="#FEFFFF" transform="matrix(1.00, 0.00, -0.00, -1.00, 377.9, 55.6)">]</text><text xml:space="preserve" font-family="GillSans-Light,Gill Sans" font-size="36.0" fill="#FEFFFF" transform="matrix(1.00, 0.00, -0.00, -1.00, 388.7, 55.6)"> </text><text xml:space="preserve" font-family="GillSans-Light,Gill Sans" font-size="36.0" fill="#FEFFFF" transform="matrix(1.00, 0.00, -0.00, -1.00, 398.7, 55.6)">h</text><text xml:space="preserve" font-family="GillSans-Light,Gill Sans" font-size="36.0" fill="#FEFFFF" transform="matrix(1.00, 0.00, -0.00, -1.00, 416.4, 55.6)">u</text><text xml:space="preserve" font-family="GillSans-Light,Gill Sans" font-size="36.0" fill="#FEFFFF" transform="matrix(1.00, 0.00, -0.00, -1.00, 434.0, 55.6)">e</text><text xml:space="preserve" font-family="GillSans-Light,Gill Sans" font-size="36.0" fill="#FEFFFF" transform="matrix(1.00, 0.00, -0.00, -1.00, 451.3, 55.6)"> </text><text xml:space="preserve" font-family="GillSans-Light,Gill Sans" font-size="36.0" fill="#FEFFFF" transform="matrix(1.00, 0.00, -0.00, -1.00, 461.3, 55.6)">s</text><text xml:space="preserve" font-family="GillSans-Light,Gill Sans" font-size="36.0" fill="#FEFFFF" transform="matrix(1.00, 0.00, -0.00, -1.00, 474.0, 55.6)">t</text><text xml:space="preserve" font-family="GillSans-Light,Gill Sans" font-size="36.0" fill="#FEFFFF" transform="matrix(1.00, 0.00, -0.00, -1.00, 484.9, 55.6)">r</text><text xml:space="preserve" font-family="GillSans-Light,Gill Sans" font-size="36.0" fill="#FEFFFF" transform="matrix(1.00, 0.00, -0.00, -1.00, 496.9, 55.6)">e</text><text xml:space="preserve" font-family="GillSans-Light,Gill Sans" font-size="36.0" fill="#FEFFFF" transform="matrix(1.00, 0.00, -0.00, -1.00, 514.1, 55.6)">n</text><text xml:space="preserve" font-family="GillSans-Light,Gill Sans" font-size="36.0" fill="#FEFFFF" transform="matrix(1.00, 0.00, -0.00, -1.00, 531.8, 55.6)">g</text><text xml:space="preserve" font-family="GillSans-Light,Gill Sans" font-size="36.0" fill="#FEFFFF" transform="matrix(1.00, 0.00, -0.00, -1.00, 547.1, 55.6)">t</text><text xml:space="preserve" font-family="GillSans-Light,Gill Sans" font-size="36.0" fill="#FEFFFF" transform="matrix(1.00, 0.00, -0.00, -1.00, 558.0, 55.6)">h</text><text xml:space="preserve" font-family="GillSans-Light,Gill Sans" font-size="36.0" fill="#FEFFFF" transform="matrix(1.00, 0.00, -0.00, -1.00, 575.6, 55.6)">s</text><text xml:space="preserve" font-family="GillSans-Light,Gill Sans" font-size="36.0" fill="#FEFFFF" transform="matrix(1.00, 0.00, -0.00, -1.00, 370.9, 14.6)">[</text><text xml:space="preserve" font-family="GillSans-Light,Gill Sans" font-size="36.0" fill="#FEFFFF" transform="matrix(1.00, 0.00, -0.00, -1.00, 381.7, 14.6)">1</text><text xml:space="preserve" font-family="GillSans-Light,Gill Sans" font-size="36.0" fill="#FEFFFF" transform="matrix(1.00, 0.00, -0.00, -1.00, 399.7, 14.6)">6</text><text xml:space="preserve" font-family="GillSans-Light,Gill Sans" font-size="36.0" fill="#FEFFFF" transform="matrix(1.00, 0.00, -0.00, -1.00, 417.7, 14.6)">]</text><text xml:space="preserve" font-family="GillSans-Light,Gill Sans" font-size="36.0" fill="#FEFFFF" transform="matrix(1.00, 0.00, -0.00, -1.00, 428.6, 14.6)"> </text><text xml:space="preserve" font-family="GillSans-Light,Gill Sans" font-size="36.0" fill="#FEFFFF" transform="matrix(1.00, 0.00, -0.00, -1.00, 438.6, 14.6)">c</text><text xml:space="preserve" font-family="GillSans-Light,Gill Sans" font-size="36.0" fill="#FEFFFF" transform="matrix(1.00, 0.00, -0.00, -1.00, 453.6, 14.6)">o</text><text xml:space="preserve" font-family="GillSans-Light,Gill Sans" font-size="36.0" fill="#FEFFFF" transform="matrix(1.00, 0.00, -0.00, -1.00, 473.1, 14.6)">u</text><text xml:space="preserve" font-family="GillSans-Light,Gill Sans" font-size="36.0" fill="#FEFFFF" transform="matrix(1.00, 0.00, -0.00, -1.00, 490.8, 14.6)">n</text><text xml:space="preserve" font-family="GillSans-Light,Gill Sans" font-size="36.0" fill="#FEFFFF" transform="matrix(1.00, 0.00, -0.00, -1.00, 508.4, 14.6)">t</text></g></g></g></svg>