<?xml version="1.0" encoding="UTF-8" standalone="no"?><svg xmlns="http://www.w3.org/2000/svg" xmlns:xlink="http://www.w3.org/1999/xlink" clip-rule="evenodd" stroke-miterlimit="10" viewBox="0 0 605 509"><desc>SVG generated by Keynote</desc><defs></defs><g transform="matrix(1.00, 0.00, -0.00, -1.00, 0.0, 509.0)"><g><clipPath id="clip0x600000ab8b40"><path d="M 21.6 26.8 L 604.2 26.8 L 604.2 508.8 L 21.6 508.8 Z M 21.6 26.8 "></path></clipPath><g clip-path="url(#clip0x600000ab8b40)"><image xlink:href="207329540FC233CAA78770080F3519DA.png" width="1240.00" height="1026.00" transform="matrix(0.47, 0.00, -0.00, -0.47, 22.0, 509.0)"></image></g></g><g><clipPath id="clip0x600000ab8d80"><path d="M 0.2 0.8 L 73.2 0.8 L 73.2 52.0 L 0.2 52.0 Z M 0.2 0.8 "></path></clipPath><g clip-path="url(#clip0x600000ab8d80)"><path d="M 1.0 51.0 L 72.0 51.0 L 72.0 2.0 L 1.0 2.0 Z M 1.2 51.0 " fill="#78889F"></path></g></g><g><clipPath id="clip0x600000ab9140"><path d="M -5.0 -4.3 L 78.4 -4.3 L 78.4 57.2 L -5.0 57.2 Z M -5.0 -4.3 "></path></clipPath><g clip-path="url(#clip0x600000ab9140)"><text xml:space="preserve" font-family="GillSans-Light,Gill Sans" font-size="36.0" fill="#FEFFFF" transform="matrix(1.00, 0.00, -0.00, -1.00, 5.8, 14.5)">M</text><text xml:space="preserve" font-family="GillSans-Light,Gill Sans" font-size="36.0" fill="#FEFFFF" transform="matrix(1.00, 0.00, -0.00, -1.00, 33.9, 14.5)">a</text><text xml:space="preserve" font-family="GillSans-Light,Gill Sans" font-size="36.0" fill="#FEFFFF" transform="matrix(1.00, 0.00, -0.00, -1.00, 49.2, 14.5)">p</text></g></g></g></svg>