<?xml version="1.0" encoding="UTF-8" standalone="no"?><svg xmlns="http://www.w3.org/2000/svg" xmlns:xlink="http://www.w3.org/1999/xlink" clip-rule="evenodd" stroke-miterlimit="10" viewBox="0 0 1024 768"><desc>SVG generated by Keynote</desc><defs></defs><g transform="matrix(1.00, 0.00, -0.00, -1.00, 0.0, 768.0)"><g><clipPath id="clip0x6080002a87c0"><path d="M 0.0 768.0 L 1024.0 768.0 L 1024.0 0.0 L 0.0 0.0 Z M 0.0 768.0 "></path></clipPath><g clip-path="url(#clip0x6080002a87c0)"><image xlink:href="../../BE03AB4A-F5E0-4685-80C7-20DCBC62631F/assets/574DCE55A4CF432400CBDDDE1DFDFC9B.jpeg" width="2048.00" height="1536.00" transform="matrix(0.50, 0.00, -0.00, -0.50, 0.0, 768.0)"></image></g></g><text xml:space="preserve" font-family="GillSans-Light,Gill Sans" font-size="28.0" fill="#525252" transform="matrix(1.00, 0.00, -0.00, -1.00, 446.1, 290.7)">–</text><text xml:space="preserve" font-family="GillSans-Light,Gill Sans" font-size="28.0" fill="#525252" transform="matrix(1.00, 0.00, -0.00, -1.00, 460.1, 290.7)">B</text><text xml:space="preserve" font-family="GillSans-Light,Gill Sans" font-size="28.0" fill="#525252" transform="matrix(1.00, 0.00, -0.00, -1.00, 475.0, 290.7)">r</text><text xml:space="preserve" font-family="GillSans-Light,Gill Sans" font-size="28.0" fill="#525252" transform="matrix(1.00, 0.00, -0.00, -1.00, 485.0, 290.7)">i</text><text xml:space="preserve" font-family="GillSans-Light,Gill Sans" font-size="28.0" fill="#525252" transform="matrix(1.00, 0.00, -0.00, -1.00, 490.2, 290.7)">a</text><text xml:space="preserve" font-family="GillSans-Light,Gill Sans" font-size="28.0" fill="#525252" transform="matrix(1.00, 0.00, -0.00, -1.00, 502.2, 290.7)">n</text><text xml:space="preserve" font-family="GillSans-Light,Gill Sans" font-size="28.0" fill="#525252" transform="matrix(1.00, 0.00, -0.00, -1.00, 515.9, 290.7)"> </text><text xml:space="preserve" font-family="GillSans-Light,Gill Sans" font-size="28.0" fill="#525252" transform="matrix(1.00, 0.00, -0.00, -1.00, 523.7, 290.7)">C</text><text xml:space="preserve" font-family="GillSans-Light,Gill Sans" font-size="28.0" fill="#525252" transform="matrix(1.00, 0.00, -0.00, -1.00, 542.6, 290.7)">r</text><text xml:space="preserve" font-family="GillSans-Light,Gill Sans" font-size="28.0" fill="#525252" transform="matrix(1.00, 0.00, -0.00, -1.00, 553.1, 290.7)">u</text><text xml:space="preserve" font-family="GillSans-Light,Gill Sans" font-size="28.0" fill="#525252" transform="matrix(1.00, 0.00, -0.00, -1.00, 566.8, 290.7)">z</text><text xml:space="preserve" font-family="GillSans-Light,Gill Sans" font-size="38.0" fill="#525252" transform="matrix(1.00, 0.00, -0.00, -1.00, 365.1, 403.1)">“</text><text xml:space="preserve" font-family="GillSans-Light,Gill Sans" font-size="38.0" fill="#525252" transform="matrix(1.00, 0.00, -0.00, -1.00, 380.2, 403.1)">H</text><text xml:space="preserve" font-family="GillSans-Light,Gill Sans" font-size="38.0" fill="#525252" transform="matrix(1.00, 0.00, -0.00, -1.00, 407.5, 403.1)">e</text><text xml:space="preserve" font-family="GillSans-Light,Gill Sans" font-size="38.0" fill="#525252" transform="matrix(1.00, 0.00, -0.00, -1.00, 425.7, 403.1)">r</text><text xml:space="preserve" font-family="GillSans-Light,Gill Sans" font-size="38.0" fill="#525252" transform="matrix(1.00, 0.00, -0.00, -1.00, 438.4, 403.1)">e</text><text xml:space="preserve" font-family="GillSans-Light,Gill Sans" font-size="38.0" fill="#525252" transform="matrix(1.00, 0.00, -0.00, -1.00, 456.6, 403.1)"> </text><text xml:space="preserve" font-family="GillSans-Light,Gill Sans" font-size="38.0" fill="#525252" transform="matrix(1.00, 0.00, -0.00, -1.00, 467.1, 403.1)">i</text><text xml:space="preserve" font-family="GillSans-Light,Gill Sans" font-size="38.0" fill="#525252" transform="matrix(1.00, 0.00, -0.00, -1.00, 474.3, 403.1)">s</text><text xml:space="preserve" font-family="GillSans-Light,Gill Sans" font-size="38.0" fill="#525252" transform="matrix(1.00, 0.00, -0.00, -1.00, 487.7, 403.1)"> </text><text xml:space="preserve" font-family="GillSans-Light,Gill Sans" font-size="38.0" fill="#525252" transform="matrix(1.00, 0.00, -0.00, -1.00, 498.3, 403.1)">m</text><text xml:space="preserve" font-family="GillSans-Light,Gill Sans" font-size="38.0" fill="#525252" transform="matrix(1.00, 0.00, -0.00, -1.00, 527.0, 403.1)">y</text><text xml:space="preserve" font-family="GillSans-Light,Gill Sans" font-size="38.0" fill="#525252" transform="matrix(1.00, 0.00, -0.00, -1.00, 542.9, 403.1)"> </text><text xml:space="preserve" font-family="GillSans-Light,Gill Sans" font-size="38.0" fill="#525252" transform="matrix(1.00, 0.00, -0.00, -1.00, 553.4, 403.1)">d</text><text xml:space="preserve" font-family="GillSans-Light,Gill Sans" font-size="38.0" fill="#525252" transform="matrix(1.00, 0.00, -0.00, -1.00, 572.8, 403.1)">e</text><text xml:space="preserve" font-family="GillSans-Light,Gill Sans" font-size="38.0" fill="#525252" transform="matrix(1.00, 0.00, -0.00, -1.00, 591.0, 403.1)">m</text><text xml:space="preserve" font-family="GillSans-Light,Gill Sans" font-size="38.0" fill="#525252" transform="matrix(1.00, 0.00, -0.00, -1.00, 620.3, 403.1)">o</text><text xml:space="preserve" font-family="GillSans-Light,Gill Sans" font-size="38.0" fill="#525252" transform="matrix(1.00, 0.00, -0.00, -1.00, 640.1, 403.1)">.</text><text xml:space="preserve" font-family="GillSans-Light,Gill Sans" font-size="38.0" fill="#525252" transform="matrix(1.00, 0.00, -0.00, -1.00, 643.8, 403.1)">”</text></g></svg>