<?xml version="1.0" encoding="UTF-8" standalone="no"?><svg xmlns="http://www.w3.org/2000/svg" xmlns:xlink="http://www.w3.org/1999/xlink" clip-rule="evenodd" stroke-miterlimit="10" viewBox="0 0 311 224"><desc>SVG generated by Keynote</desc><defs></defs><g transform="matrix(1.00, 0.00, -0.00, -1.00, 0.0, 224.0)"><g><clipPath id="clip0x6180008b2a80"><path d="M 0.9 45.0 L 310.8 45.0 L 310.8 139.8 L 0.9 139.8 Z M 0.9 45.0 "></path></clipPath><g clip-path="url(#clip0x6180008b2a80)"><image xlink:href="../../8F7BCC13-B65A-479F-A58D-145C72B9D542/assets/E6E0DAE95EA40530ABBBAF027A0EBD30.png" width="1000.00" height="306.00" transform="matrix(0.31, 0.00, -0.00, -0.31, 1.0, 140.0)"></image></g></g><g><clipPath id="clip0x6100006a5220"><path d="M 175.9 223.3 L 175.9 133.2 L 135.8 133.2 L 135.8 223.3 Z M 175.9 223.3 "></path></clipPath><g clip-path="url(#clip0x6100006a5220)"><path d="M 150.0 160.0 L 136.8 160.0 L 155.8 134.2 L 174.9 160.0 L 162.0 160.0 L 162.0 222.0 L 150.0 222.0 Z M 149.6 159.7 " fill="#D99719"></path></g></g><g><clipPath id="clip0x6100006a4e00"><path d="M 105.4 -4.5 L 224.8 -4.5 L 224.8 57.0 L 105.4 57.0 Z M 105.4 -4.5 "></path></clipPath><g clip-path="url(#clip0x6100006a4e00)"><text xml:space="preserve" font-family="GillSans-Light,Gill Sans" font-size="36.0" fill="#525252" transform="matrix(1.00, 0.00, -0.00, -1.00, 116.2, 14.3)">l</text><text xml:space="preserve" font-family="GillSans-Light,Gill Sans" font-size="36.0" fill="#525252" transform="matrix(1.00, 0.00, -0.00, -1.00, 122.9, 14.3)">u</text><text xml:space="preserve" font-family="GillSans-Light,Gill Sans" font-size="36.0" fill="#525252" transform="matrix(1.00, 0.00, -0.00, -1.00, 140.6, 14.3)">c</text><text xml:space="preserve" font-family="GillSans-Light,Gill Sans" font-size="36.0" fill="#525252" transform="matrix(1.00, 0.00, -0.00, -1.00, 155.6, 14.3)">e</text><text xml:space="preserve" font-family="GillSans-Light,Gill Sans" font-size="36.0" fill="#525252" transform="matrix(1.00, 0.00, -0.00, -1.00, 172.8, 14.3)">n</text><text xml:space="preserve" font-family="GillSans-Light,Gill Sans" font-size="36.0" fill="#525252" transform="matrix(1.00, 0.00, -0.00, -1.00, 190.5, 14.3)">e</text><text xml:space="preserve" font-family="GillSans-Light,Gill Sans" font-size="36.0" fill="#525252" transform="matrix(1.00, 0.00, -0.00, -1.00, 207.7, 14.3)">!</text></g></g></g></svg>