<?xml version="1.0" encoding="UTF-8" standalone="no"?><svg xmlns="http://www.w3.org/2000/svg" xmlns:xlink="http://www.w3.org/1999/xlink" clip-rule="evenodd" stroke-miterlimit="10" viewBox="0 0 581 236"><desc>SVG generated by Keynote</desc><defs></defs><g transform="matrix(1.00, 0.00, -0.00, -1.00, 0.0, 236.0)"><g><clipPath id="clip0x6180008b2a20"><path d="M 580.9 168.0 L 471.9 59.0 L 443.6 87.3 L 552.5 196.3 Z M 580.9 168.0 "></path></clipPath><g clip-path="url(#clip0x6180008b2a20)"><path d="M 472.0 96.3 L 463.0 105.4 L 458.4 73.9 L 489.9 78.4 L 480.9 87.5 L 570.4 177.0 L 561.6 185.8 Z M 472.0 96.3 " fill="#D99719"></path></g></g><g><clipPath id="clip0x6180008b3380"><path d="M 19.1 38.2 L 422.9 38.2 L 422.9 235.0 L 19.1 235.0 Z M 19.1 38.2 "></path></clipPath><g clip-path="url(#clip0x6180008b3380)"><image xlink:href="F4938046FDDBAF1946C17A7E9E9FCE20.png" width="1416.00" height="690.00" transform="matrix(0.29, 0.00, -0.00, -0.29, 19.0, 235.0)"></image></g></g><g><clipPath id="clip0x600000ab1760"><path d="M 0.8 0.2 L 297.2 0.2 L 297.2 80.2 L 0.8 80.2 Z M 0.8 0.2 "></path></clipPath><g clip-path="url(#clip0x600000ab1760)"><path d="M 2.0 79.0 L 296.0 79.0 L 296.0 1.0 L 2.0 1.0 Z M 1.8 79.2 " fill="#3D4453"></path></g></g><g><clipPath id="clip0x600000ab19a0"><path d="M -4.4 -2.2 L 514.2 -2.2 L 514.2 85.4 L -4.4 85.4 Z M -4.4 -2.2 "></path></clipPath><g clip-path="url(#clip0x600000ab19a0)"><text xml:space="preserve" font-family="GillSans-Light,Gill Sans" font-size="36.0" fill="#FEFFFF" transform="matrix(1.00, 0.00, -0.00, -1.00, 45.8, 42.7)">A</text><text xml:space="preserve" font-family="GillSans-Light,Gill Sans" font-size="36.0" fill="#FEFFFF" transform="matrix(1.00, 0.00, -0.00, -1.00, 69.8, 42.7)">P</text><text xml:space="preserve" font-family="GillSans-Light,Gill Sans" font-size="36.0" fill="#FEFFFF" transform="matrix(1.00, 0.00, -0.00, -1.00, 88.1, 42.7)">I</text><text xml:space="preserve" font-family="GillSans-Light,Gill Sans" font-size="36.0" fill="#FEFFFF" transform="matrix(1.00, 0.00, -0.00, -1.00, 95.6, 42.7)"> </text><text xml:space="preserve" font-family="GillSans-Light,Gill Sans" font-size="26.0" fill="#FEFFFF" transform="matrix(1.00, 0.00, -0.00, -1.00, 105.6, 42.7)">(</text><text xml:space="preserve" font-family="GillSans-Light,Gill Sans" font-size="26.0" fill="#FEFFFF" transform="matrix(1.00, 0.00, -0.00, -1.00, 114.3, 42.7)">b</text><text xml:space="preserve" font-family="GillSans-Light,Gill Sans" font-size="26.0" fill="#FEFFFF" transform="matrix(1.00, 0.00, -0.00, -1.00, 127.1, 42.7)">y</text><text xml:space="preserve" font-family="GillSans-Light,Gill Sans" font-size="26.0" fill="#FEFFFF" transform="matrix(1.00, 0.00, -0.00, -1.00, 138.0, 42.7)"> </text><text xml:space="preserve" font-family="GillSans-Light,Gill Sans" font-size="26.0" fill="#FEFFFF" transform="matrix(1.00, 0.00, -0.00, -1.00, 145.2, 42.7)">c</text><text xml:space="preserve" font-family="GillSans-Light,Gill Sans" font-size="26.0" fill="#FEFFFF" transform="matrix(1.00, 0.00, -0.00, -1.00, 156.0, 42.7)">o</text><text xml:space="preserve" font-family="GillSans-Light,Gill Sans" font-size="26.0" fill="#FEFFFF" transform="matrix(1.00, 0.00, -0.00, -1.00, 170.1, 42.7)">l</text><text xml:space="preserve" font-family="GillSans-Light,Gill Sans" font-size="26.0" fill="#FEFFFF" transform="matrix(1.00, 0.00, -0.00, -1.00, 175.0, 42.7)">o</text><text xml:space="preserve" font-family="GillSans-Light,Gill Sans" font-size="26.0" fill="#FEFFFF" transform="matrix(1.00, 0.00, -0.00, -1.00, 189.1, 42.7)">r</text><text xml:space="preserve" font-family="GillSans-Light,Gill Sans" font-size="26.0" fill="#FEFFFF" transform="matrix(1.00, 0.00, -0.00, -1.00, 198.8, 42.7)">s</text><text xml:space="preserve" font-family="GillSans-Light,Gill Sans" font-size="26.0" fill="#FEFFFF" transform="matrix(1.00, 0.00, -0.00, -1.00, 208.0, 42.7)"> </text><text xml:space="preserve" font-family="GillSans-Light,Gill Sans" font-size="26.0" fill="#FEFFFF" transform="matrix(1.00, 0.00, -0.00, -1.00, 215.2, 42.7)">a</text><text xml:space="preserve" font-family="GillSans-Light,Gill Sans" font-size="26.0" fill="#FEFFFF" transform="matrix(1.00, 0.00, -0.00, -1.00, 226.3, 42.7)">n</text><text xml:space="preserve" font-family="GillSans-Light,Gill Sans" font-size="26.0" fill="#FEFFFF" transform="matrix(1.00, 0.00, -0.00, -1.00, 239.1, 42.7)">d</text><text xml:space="preserve" font-family="GillSans-Light,Gill Sans" font-size="26.0" fill="#FEFFFF" transform="matrix(1.00, 0.00, -0.00, -1.00, 6.3, 11.4)">p</text><text xml:space="preserve" font-family="GillSans-Light,Gill Sans" font-size="26.0" fill="#FEFFFF" transform="matrix(1.00, 0.00, -0.00, -1.00, 19.6, 11.4)">r</text><text xml:space="preserve" font-family="GillSans-Light,Gill Sans" font-size="26.0" fill="#FEFFFF" transform="matrix(1.00, 0.00, -0.00, -1.00, 28.3, 11.4)">o</text><text xml:space="preserve" font-family="GillSans-Light,Gill Sans" font-size="26.0" fill="#FEFFFF" transform="matrix(1.00, 0.00, -0.00, -1.00, 42.3, 11.4)">b</text><text xml:space="preserve" font-family="GillSans-Light,Gill Sans" font-size="26.0" fill="#FEFFFF" transform="matrix(1.00, 0.00, -0.00, -1.00, 55.6, 11.4)">a</text><text xml:space="preserve" font-family="GillSans-Light,Gill Sans" font-size="26.0" fill="#FEFFFF" transform="matrix(1.00, 0.00, -0.00, -1.00, 66.7, 11.4)">b</text><text xml:space="preserve" font-family="GillSans-Light,Gill Sans" font-size="26.0" fill="#FEFFFF" transform="matrix(1.00, 0.00, -0.00, -1.00, 79.9, 11.4)">i</text><text xml:space="preserve" font-family="GillSans-Light,Gill Sans" font-size="26.0" fill="#FEFFFF" transform="matrix(1.00, 0.00, -0.00, -1.00, 84.8, 11.4)">l</text><text xml:space="preserve" font-family="GillSans-Light,Gill Sans" font-size="26.0" fill="#FEFFFF" transform="matrix(1.00, 0.00, -0.00, -1.00, 89.7, 11.4)">i</text><text xml:space="preserve" font-family="GillSans-Light,Gill Sans" font-size="26.0" fill="#FEFFFF" transform="matrix(1.00, 0.00, -0.00, -1.00, 94.6, 11.4)">t</text><text xml:space="preserve" font-family="GillSans-Light,Gill Sans" font-size="26.0" fill="#FEFFFF" transform="matrix(1.00, 0.00, -0.00, -1.00, 102.4, 11.4)">i</text><text xml:space="preserve" font-family="GillSans-Light,Gill Sans" font-size="26.0" fill="#FEFFFF" transform="matrix(1.00, 0.00, -0.00, -1.00, 107.3, 11.4)">e</text><text xml:space="preserve" font-family="GillSans-Light,Gill Sans" font-size="26.0" fill="#FEFFFF" transform="matrix(1.00, 0.00, -0.00, -1.00, 119.8, 11.4)">s</text><text xml:space="preserve" font-family="GillSans-Light,Gill Sans" font-size="26.0" fill="#FEFFFF" transform="matrix(1.00, 0.00, -0.00, -1.00, 129.0, 11.4)"> </text><text xml:space="preserve" font-family="GillSans-Light,Gill Sans" font-size="26.0" fill="#FEFFFF" transform="matrix(1.00, 0.00, -0.00, -1.00, 136.2, 11.4)">w</text><text xml:space="preserve" font-family="GillSans-Light,Gill Sans" font-size="26.0" fill="#FEFFFF" transform="matrix(1.00, 0.00, -0.00, -1.00, 154.6, 11.4)">i</text><text xml:space="preserve" font-family="GillSans-Light,Gill Sans" font-size="26.0" fill="#FEFFFF" transform="matrix(1.00, 0.00, -0.00, -1.00, 159.5, 11.4)">t</text><text xml:space="preserve" font-family="GillSans-Light,Gill Sans" font-size="26.0" fill="#FEFFFF" transform="matrix(1.00, 0.00, -0.00, -1.00, 167.3, 11.4)">h</text><text xml:space="preserve" font-family="GillSans-Light,Gill Sans" font-size="26.0" fill="#FEFFFF" transform="matrix(1.00, 0.00, -0.00, -1.00, 180.1, 11.4)"> </text><text xml:space="preserve" font-family="GillSans-Light,Gill Sans" font-size="26.0" fill="#FEFFFF" transform="matrix(1.00, 0.00, -0.00, -1.00, 187.3, 11.4)">t</text><text xml:space="preserve" font-family="GillSans-Light,Gill Sans" font-size="26.0" fill="#FEFFFF" transform="matrix(1.00, 0.00, -0.00, -1.00, 195.1, 11.4)">o</text><text xml:space="preserve" font-family="GillSans-Light,Gill Sans" font-size="26.0" fill="#FEFFFF" transform="matrix(1.00, 0.00, -0.00, -1.00, 209.2, 11.4)">l</text><text xml:space="preserve" font-family="GillSans-Light,Gill Sans" font-size="26.0" fill="#FEFFFF" transform="matrix(1.00, 0.00, -0.00, -1.00, 214.1, 11.4)">e</text><text xml:space="preserve" font-family="GillSans-Light,Gill Sans" font-size="26.0" fill="#FEFFFF" transform="matrix(1.00, 0.00, -0.00, -1.00, 226.6, 11.4)">r</text><text xml:space="preserve" font-family="GillSans-Light,Gill Sans" font-size="26.0" fill="#FEFFFF" transform="matrix(1.00, 0.00, -0.00, -1.00, 235.9, 11.4)">a</text><text xml:space="preserve" font-family="GillSans-Light,Gill Sans" font-size="26.0" fill="#FEFFFF" transform="matrix(1.00, 0.00, -0.00, -1.00, 247.0, 11.4)">n</text><text xml:space="preserve" font-family="GillSans-Light,Gill Sans" font-size="26.0" fill="#FEFFFF" transform="matrix(1.00, 0.00, -0.00, -1.00, 259.7, 11.4)">c</text><text xml:space="preserve" font-family="GillSans-Light,Gill Sans" font-size="26.0" fill="#FEFFFF" transform="matrix(1.00, 0.00, -0.00, -1.00, 270.6, 11.4)">e</text><text xml:space="preserve" font-family="GillSans-Light,Gill Sans" font-size="26.0" fill="#FEFFFF" transform="matrix(1.00, 0.00, -0.00, -1.00, 283.0, 11.4)">)</text></g></g></g></svg>