<?xml version="1.0" encoding="UTF-8" standalone="no"?><svg xmlns="http://www.w3.org/2000/svg" xmlns:xlink="http://www.w3.org/1999/xlink" clip-rule="evenodd" stroke-miterlimit="10" viewBox="0 0 224 184"><desc>SVG generated by Keynote</desc><defs></defs><g transform="matrix(1.00, 0.00, -0.00, -1.00, 0.0, 184.0)"><g><clipPath id="clip0x6080004be540"><path d="M 88.0 153.0 L 216.0 153.0 L 216.0 24.0 L 88.0 24.0 Z M 88.0 152.9 "></path></clipPath><g clip-path="url(#clip0x6080004be540)"><g><clipPath id="clip0x6080002acd80"><path d="M 81.0 8.8 L 223.4 8.8 L 223.4 156.9 L 81.0 156.9 Z M 81.0 8.8 "></path></clipPath><g clip-path="url(#clip0x6080002acd80)"><image xlink:href="../../8F7BCC13-B65A-479F-A58D-145C72B9D542/assets/752F8624EDA728EFB1596CAD69C3AF1C.png" width="459.00" height="250.00" transform="matrix(0.52, 0.00, -0.00, -0.52, 39.0, 153.0)"></image></g></g></g></g><g><clipPath id="clip0x6100006bf860"><path d="M 81.0 8.8 L 223.4 8.8 L 223.4 156.9 L 81.0 156.9 Z M 81.0 8.8 "></path></clipPath><g clip-path="url(#clip0x6100006bf860)"><image xlink:href="4503D9BF31249424888750617EEA045D.png" width="142.00" height="148.00" transform="matrix(1.00, 0.00, -0.00, 1.00, 81.0, 8.8)"></image></g></g><g><clipPath id="clip0x6180008a1740"><path d="M 0.2 183.5 L 69.3 183.5 L 69.3 171.9 L 0.2 171.9 Z M 0.2 183.5 "></path></clipPath><g clip-path="url(#clip0x6180008a1740)"><path d="M -0.2 -0.3 L 57.5 -0.3 L 58.8 -0.3 " fill="none" stroke="#595E5D" stroke-width="2.00" transform="matrix(1.00, 0.00, 0.00, -1.00, 1.2, 177.7)"></path><path d="M 59.0 173.2 L 68.6 178.0 L 59.0 182.8 Z M 59.0 173.2 " fill="#595E5D"></path></g></g><g><clipPath id="clip0x6180006be6c0"><path d="M 0.7 83.5 L 68.7 83.5 L 68.7 95.1 L 0.7 95.1 Z M 0.7 83.5 "></path></clipPath><g clip-path="url(#clip0x6180006be6c0)"><path d="M 0.3 0.3 L 56.4 0.3 L 57.3 0.3 " fill="none" stroke="#595E5D" stroke-width="2.00" transform="matrix(1.00, 0.00, 0.00, -1.00, 1.7, 89.3)"></path><path d="M 58.0 84.2 L 67.6 89.0 L 58.0 93.8 Z M 58.0 84.2 " fill="#595E5D"></path></g></g><g><clipPath id="clip0x6180006abb80"><path d="M 5.4 0.5 L 68.7 0.5 L 68.7 12.1 L 5.4 12.1 Z M 5.4 0.5 "></path></clipPath><g clip-path="url(#clip0x6180006abb80)"><path d="M -0.4 0.3 L 51.7 0.3 L 52.6 0.3 " fill="none" stroke="#595E5D" stroke-width="2.00" transform="matrix(1.00, 0.00, 0.00, -1.00, 6.4, 6.3)"></path><path d="M 58.0 1.2 L 67.6 6.0 L 58.0 10.8 Z M 58.0 1.2 " fill="#595E5D"></path></g></g></g></svg>